<?xml version="1.0" standalone="no"?>
<!DOCTYPE svg PUBLIC "-//W3C//DTD SVG 20010904//EN"
 "http://www.w3.org/TR/2001/REC-SVG-20010904/DTD/svg10.dtd">
<svg version="1.0" xmlns="http://www.w3.org/2000/svg"
 width="100%" height="100%" viewBox="0 0 1500.000000 1434.000000"
 preserveAspectRatio="xMidYMid meet">

<g transform="translate(0.000000,1434.000000) scale(0.100000,-0.100000)"
fill="#000000" stroke="none">
<path d="M12495 14284 c-212 -22 -359 -51 -518 -101 -399 -126 -764 -364
-1029 -670 l-81 -93 -3616 -3 -3616 -3 -115 -22 c-308 -59 -576 -166 -815
-323 -535 -351 -888 -910 -970 -1537 -13 -98 -15 -596 -15 -3816 l0 -3703
-790 -1767 c-434 -971 -795 -1786 -801 -1811 -30 -119 33 -253 151 -323 40
-24 55 -27 140 -27 l95 0 1667 722 1667 723 3923 3 3923 3 115 22 c246 47 483
131 674 238 626 350 1035 962 1116 1669 6 60 10 1170 10 3282 l0 3192 46 20
c73 33 272 154 360 220 492 367 806 895 901 1511 24 158 24 482 0 640 -110
713 -513 1305 -1130 1660 -240 137 -511 231 -797 275 -102 15 -414 27 -495 19z
m525 -752 c0 -10 -20 -461 -45 -1002 -25 -541 -45 -1001 -45 -1022 l0 -38
-259 0 -259 0 -6 63 c-6 62 -86 1923 -86 1985 l0 32 350 0 c330 0 350 -1 350
-18z m-2378 -464 c-104 -183 -197 -472 -238 -738 -25 -158 -25 -481 -1 -640
123 -798 628 -1460 1350 -1769 308 -132 567 -185 907 -185 221 0 350 14 535
59 55 14 103 25 108 25 4 0 7 -1407 7 -3127 0 -3310 1 -3210 -44 -3408 -125
-545 -491 -1008 -992 -1258 -167 -83 -318 -134 -514 -174 -79 -16 -354 -17
-4040 -23 l-3955 -5 -1665 -722 c-915 -397 -1666 -720 -1668 -718 -2 2 354
805 792 1783 l796 1780 2 3774 3 3773 23 109 c144 678 610 1206 1253 1420 117
39 285 77 399 89 19 2 1596 5 3503 5 l3468 2 -29 -52z m2099 -1788 c130 -24
252 -118 312 -239 30 -62 32 -72 32 -176 0 -100 -2 -115 -28 -167 -44 -89
-116 -162 -204 -205 -65 -32 -86 -37 -163 -41 -96 -5 -159 10 -236 55 -60 34
-141 124 -172 190 -24 52 -27 69 -27 168 0 103 2 114 32 177 55 116 162 203
288 234 63 16 99 17 166 4z"/>
<path d="M4915 12349 c-154 -3 -357 -7 -451 -8 l-171 -1 -12 -67 c-17 -92 -72
-256 -117 -345 -178 -356 -497 -626 -894 -759 -122 -40 -317 -79 -401 -79 -31
0 -51 -5 -54 -12 -3 -10 -70 -961 -87 -1248 l-3 -35 105 3 c128 3 270 20 582
68 131 21 240 35 243 32 6 -5 -278 -4614 -291 -4725 l-5 -53 655 0 655 0 6 43
c5 39 595 7160 595 7185 0 7 -15 11 -37 10 -21 -1 -164 -5 -318 -9z"/>
<path d="M6558 12020 c-222 -35 -395 -129 -504 -273 -60 -79 -116 -198 -144
-307 -31 -118 -38 -328 -16 -425 38 -161 145 -313 341 -484 279 -244 353 -341
363 -472 2 -38 -1 -97 -8 -131 -27 -138 -80 -199 -178 -205 -70 -5 -110 17
-137 72 -21 46 -30 178 -17 258 l9 57 -328 0 -328 0 -8 -57 c-14 -98 -8 -281
10 -353 51 -195 177 -336 364 -406 101 -38 196 -55 339 -61 480 -20 801 165
923 532 46 139 64 259 59 405 -4 107 -9 138 -35 212 -17 48 -52 122 -78 164
-59 94 -207 250 -374 393 -211 180 -270 270 -257 393 8 77 41 153 79 180 16
12 51 23 77 26 66 6 106 -17 132 -76 18 -40 20 -60 16 -159 l-5 -113 307 0
308 0 8 43 c12 73 7 248 -10 321 -53 223 -216 379 -464 442 -109 28 -340 41
-444 24z"/>
<path d="M7672 11738 c-29 -134 -55 -253 -58 -265 l-6 -23 236 0 c159 0 236
-3 236 -11 0 -5 -101 -488 -225 -1073 -124 -585 -225 -1068 -225 -1075 0 -8
86 -11 342 -9 l342 3 222 1050 c123 578 225 1065 229 1083 l6 32 234 0 c129 0
235 2 235 5 0 3 25 120 55 260 30 141 55 257 55 260 0 3 -366 5 -813 5 l-813
0 -52 -242z"/>
<path d="M9984 9581 c-697 -81 -1210 -585 -1445 -1420 -16 -58 -29 -110 -29
-118 0 -11 103 -13 587 -11 l587 3 22 84 c93 339 193 520 322 582 68 33 193
32 258 -2 98 -50 111 -152 55 -419 -36 -171 -59 -241 -105 -324 -73 -130 -158
-214 -627 -618 -646 -557 -1094 -1009 -1342 -1354 -236 -330 -385 -655 -466
-1021 -12 -51 -21 -95 -21 -98 0 -8 3128 -6 3134 3 4 6 232 854 252 935 l6 27
-771 0 c-542 0 -771 3 -771 11 0 26 61 110 130 180 41 41 186 163 321 271 272
216 397 323 664 563 611 550 795 810 899 1275 93 419 82 715 -35 942 -143 274
-463 435 -981 493 -159 18 -544 27 -644 16z"/>
<path d="M6585 4315 c-214 -45 -389 -200 -505 -447 -103 -222 -195 -579 -231
-898 -14 -126 -6 -340 16 -428 47 -191 159 -307 346 -358 91 -25 348 -26 439
-1 146 39 275 132 362 260 94 139 183 367 252 647 112 457 118 788 19 983 -55
109 -167 196 -298 232 -85 23 -309 29 -400 10z m206 -414 c51 -41 36 -199 -62
-656 -91 -423 -143 -590 -203 -650 -35 -35 -93 -35 -127 1 -22 24 -24 33 -23
127 1 107 29 281 90 560 109 506 164 636 265 637 21 0 47 -8 60 -19z"/>
<path d="M4509 4288 c-1 -2 -101 -471 -223 -1043 l-222 -1040 240 -3 c132 -1
243 1 247 5 13 13 115 535 178 912 33 194 62 356 65 359 3 3 8 3 10 1 5 -5 26
-930 26 -1137 l0 -142 300 0 300 0 5 23 c16 67 435 2050 435 2058 0 5 -103 9
-248 9 l-248 0 -52 -262 c-50 -252 -118 -653 -143 -843 -11 -86 -29 -137 -29
-85 0 19 -49 1176 -50 1188 0 1 -133 2 -295 2 -162 0 -295 -1 -296 -2z"/>
<path d="M7615 4278 c-7 -18 -85 -385 -85 -398 0 -6 64 -10 175 -10 142 0 175
-3 175 -14 0 -7 -72 -355 -161 -772 -88 -418 -166 -787 -173 -822 l-14 -62
276 2 276 3 173 820 c95 451 175 826 178 833 3 9 49 12 180 12 96 0 175 2 175
4 0 7 81 381 86 399 5 16 -29 17 -626 17 -495 0 -632 -3 -635 -12z"/>
<path d="M8985 4278 c-2 -7 -101 -472 -220 -1033 -119 -561 -218 -1026 -220
-1032 -3 -10 55 -13 273 -13 l277 0 219 1033 c121 567 221 1038 224 1045 3 9
-55 12 -272 12 -212 0 -278 -3 -281 -12z"/>
<path d="M9825 4278 c-2 -7 -101 -472 -220 -1033 -119 -561 -218 -1026 -220
-1032 -3 -10 55 -13 273 -13 l277 0 74 358 c41 196 81 385 89 420 l14 62 273
0 c252 0 274 1 279 18 3 9 21 96 41 192 20 96 39 183 41 193 5 16 -12 17 -265
17 -213 0 -271 3 -271 13 0 10 58 300 75 375 l5 22 295 0 c162 0 295 2 295 5
0 7 80 377 86 398 5 16 -27 17 -566 17 -447 0 -572 -3 -575 -12z"/>
<path d="M11070 4271 c0 -10 36 -314 80 -676 l80 -658 -25 -121 c-13 -66 -47
-229 -75 -360 -27 -132 -50 -243 -50 -248 0 -4 123 -8 274 -8 l274 0 16 68 c8
37 42 195 76 352 l61 285 351 640 c193 352 364 664 380 693 l30 52 -290 0
-290 0 -90 -222 c-50 -123 -125 -313 -168 -423 -77 -198 -102 -251 -91 -188 4
17 9 212 13 432 l7 401 -281 0 c-269 0 -282 -1 -282 -19z"/>
</g>
</svg>
