<svg width="100" height="25" viewBox="0 0 100 25" fill="none" xmlns="http://www.w3.org/2000/svg">
<path d="M43.835 17V6.995H40.835L38.405 13.04L35.975 6.995H32.99V17H35.12V9.995L37.94 17H38.87L41.69 9.995V17H43.835ZM52.032 17V12.32C52.032 10.235 50.517 9.575 48.867 9.575C47.727 9.575 46.587 9.935 45.702 10.715L46.422 11.99C47.037 11.42 47.757 11.135 48.537 11.135C49.497 11.135 50.127 11.615 50.127 12.35V13.325C49.647 12.755 48.792 12.44 47.832 12.44C46.677 12.44 45.312 13.085 45.312 14.78C45.312 16.4 46.677 17.18 47.832 17.18C48.777 17.18 49.632 16.835 50.127 16.25V17H52.032ZM48.597 15.89C47.847 15.89 47.232 15.5 47.232 14.825C47.232 14.12 47.847 13.73 48.597 13.73C49.212 13.73 49.812 13.94 50.127 14.36V15.26C49.812 15.68 49.212 15.89 48.597 15.89ZM57.2966 17.18C58.7816 17.18 59.6816 16.535 60.1616 15.86L58.9166 14.705C58.5716 15.185 58.0466 15.485 57.3866 15.485C56.2316 15.485 55.4216 14.63 55.4216 13.37C55.4216 12.11 56.2316 11.27 57.3866 11.27C58.0466 11.27 58.5716 11.54 58.9166 12.05L60.1616 10.88C59.6816 10.22 58.7816 9.575 57.2966 9.575C55.0616 9.575 53.4566 11.15 53.4566 13.37C53.4566 15.605 55.0616 17.18 57.2966 17.18ZM68.2169 17V11.855C68.2169 10.445 67.4519 9.575 65.8619 9.575C64.6769 9.575 63.7769 10.145 63.3119 10.7V6.995H61.4069V17H63.3119V12.125C63.6419 11.69 64.2269 11.27 64.9619 11.27C65.7869 11.27 66.3119 11.585 66.3119 12.59V17H68.2169ZM71.0531 8.975C71.6831 8.975 72.1931 8.465 72.1931 7.835C72.1931 7.205 71.6831 6.71 71.0531 6.71C70.4381 6.71 69.9131 7.205 69.9131 7.835C69.9131 8.465 70.4381 8.975 71.0531 8.975ZM72.0131 17V9.755H70.1081V17H72.0131ZM80.697 17V11.885C80.697 10.475 79.932 9.575 78.342 9.575C77.157 9.575 76.272 10.145 75.807 10.7V9.755H73.902V17H75.807V12.125C76.122 11.69 76.707 11.27 77.457 11.27C78.267 11.27 78.792 11.615 78.792 12.62V17H80.697ZM88.8436 17V12.32C88.8436 10.235 87.3286 9.575 85.6786 9.575C84.5386 9.575 83.3986 9.935 82.5136 10.715L83.2336 11.99C83.8486 11.42 84.5686 11.135 85.3486 11.135C86.3086 11.135 86.9386 11.615 86.9386 12.35V13.325C86.4586 12.755 85.6036 12.44 84.6436 12.44C83.4886 12.44 82.1236 13.085 82.1236 14.78C82.1236 16.4 83.4886 17.18 84.6436 17.18C85.5886 17.18 86.4436 16.835 86.9386 16.25V17H88.8436ZM85.4086 15.89C84.6586 15.89 84.0436 15.5 84.0436 14.825C84.0436 14.12 84.6586 13.73 85.4086 13.73C86.0236 13.73 86.6236 13.94 86.9386 14.36V15.26C86.6236 15.68 86.0236 15.89 85.4086 15.89Z" fill="#6F79AD"/>
<rect width="25" height="25" rx="6" fill="url(#paint0_radial_45_3351)"/>
<path d="M12.5017 16.584L15.8137 11.992V19H18.3737V7.64H16.0537L12.5017 12.536L8.94969 7.64H6.62969V19H9.17369V11.992L12.5017 16.584Z" fill="white"/>
<defs>
<radialGradient id="paint0_radial_45_3351" cx="0" cy="0" r="1" gradientUnits="userSpaceOnUse" gradientTransform="translate(2.58621 0.86207) rotate(48.7153) scale(23.5181)">
<stop stop-color="#0944DC"/>
<stop offset="1" stop-color="#E90580"/>
</radialGradient>
</defs>
</svg>
