<svg width="19" height="19" viewBox="0 0 19 19" fill="none" xmlns="http://www.w3.org/2000/svg">
<path d="M5.79317 13.5959L5.79319 13.5959C5.71117 13.3615 5.82216 13.0757 6.08674 12.9945C6.33697 12.9 6.60181 13.0404 6.68592 13.2787C6.98593 14.1044 7.36536 14.7521 7.78022 15.1903C8.1954 15.6288 8.63413 15.8461 9.05944 15.8461C9.67628 15.8461 10.3302 15.397 10.8823 14.4841L10.8848 14.48L10.8849 14.48C10.9297 14.4101 10.9918 14.3538 11.0643 14.316C9.81235 14.0899 8.42113 13.5803 7.08242 12.8177L7.08188 12.8174C5.89731 12.1372 4.84062 11.3032 4.01918 10.4126C3.94945 10.3378 3.90551 10.2433 3.89285 10.1428C3.53247 10.7096 3.32319 11.2526 3.28355 11.733C3.86782 11.8291 4.33354 12.3334 4.33354 12.9472C4.33354 13.6335 3.75665 14.1777 3.08035 14.1777C2.39983 14.1777 1.84225 13.6218 1.84225 12.9472C1.84225 12.5502 2.03429 12.1921 2.32929 11.9651C2.31183 11.1067 2.69514 10.1612 3.36391 9.24042C3.1957 9.23911 3.04273 9.13864 2.96159 8.99956L2.96141 8.99924C2.2653 7.80038 2.12276 6.63935 2.6367 5.75238L2.63697 5.75193C3.33186 4.56068 4.98102 4.16676 7.06067 4.54003L7.06601 4.54099L7.06599 4.54107C7.18851 4.56686 7.29162 4.64408 7.35838 4.73783C7.4247 4.83097 7.46614 4.95637 7.44133 5.08861C7.40173 5.34631 7.1547 5.52054 6.89468 5.46224C6.02163 5.31106 5.26016 5.31364 4.66613 5.45162C4.0701 5.59006 3.66189 5.85932 3.45753 6.22587L3.45568 6.2292L3.45564 6.22918C3.14266 6.76386 3.21923 7.56264 3.78032 8.52239L3.7844 8.52937L3.78424 8.52945C3.80557 8.56998 3.82079 8.61229 3.83009 8.65521C4.64796 7.71249 5.7632 6.80446 7.08199 6.0484L7.08285 6.04791C8.29534 5.3616 9.56419 4.86383 10.7688 4.61002C10.8532 4.58808 10.9391 4.59522 11.0162 4.62128C10.7172 4.06883 10.37 3.64073 9.9946 3.36824C9.76924 3.61246 9.4361 3.78979 9.05944 3.78979C8.38647 3.78979 7.8289 3.24146 7.8289 2.55925C7.8289 1.87704 8.38647 1.3287 9.05944 1.3287C9.7007 1.3287 10.2359 1.80998 10.299 2.43433C11.0399 2.86537 11.6596 3.67899 12.1179 4.71805C12.1884 4.53954 12.3685 4.42542 12.5537 4.4166L12.5644 4.41609L12.5644 4.4164C13.9179 4.43187 14.9838 4.88927 15.4895 5.75962C16.1851 6.95213 15.7022 8.56579 14.346 10.1581L14.3436 10.1611L14.3435 10.161C14.2477 10.2688 14.1148 10.3275 13.9665 10.3275C13.8693 10.3275 13.7598 10.2887 13.675 10.216L13.6733 10.2146C13.5791 10.1318 13.5211 10.0153 13.512 9.89013C13.5029 9.76501 13.5434 9.64132 13.6247 9.54578L13.625 9.54541C14.1956 8.87853 14.5707 8.23211 14.7444 7.65913C14.918 7.0862 14.8865 6.60273 14.6711 6.23718L14.6704 6.23613C14.3635 5.70716 13.6384 5.37503 12.5534 5.36006C12.553 5.36005 12.5527 5.36005 12.5523 5.36005L12.5548 5.17888C12.3887 5.17888 12.2604 5.04299 12.2679 4.88445L5.79317 13.5959ZM5.79317 13.5959L5.79404 13.5983C6.51016 15.5561 7.67807 16.7898 9.05944 16.7898C10.0683 16.7898 10.9933 16.1203 11.6904 14.9739L11.6905 14.974L11.6929 14.9698C11.7541 14.8628 11.7711 14.7361 11.7402 14.6167C11.7185 14.5331 11.6746 14.4578 11.614 14.3981C11.9056 14.4322 12.1874 14.4495 12.4567 14.4495C13.2325 14.4495 13.9193 14.3181 14.4687 14.0377C14.6317 14.123 14.8122 14.1711 14.997 14.1778C15.2182 14.1858 15.4375 14.1342 15.6319 14.0283C15.8264 13.9225 15.9888 13.7664 16.1022 13.5763C16.2156 13.3862 16.2759 13.1692 16.2766 12.9478V12.9472C16.2766 12.2641 15.7182 11.7166 15.0385 11.7166C14.3622 11.7166 13.7853 12.2608 13.7853 12.9472C13.7853 13.0655 13.8108 13.1798 13.8456 13.2824C13.4136 13.4532 12.8654 13.5268 12.2377 13.5013C12.3431 13.4442 12.4258 13.3479 12.4634 13.2282C12.8243 12.0838 13.0153 10.7743 13.0153 9.43672C13.0153 7.92248 12.7757 6.49868 12.3552 5.31616L5.79317 13.5959ZM11.731 13.4612C11.5618 13.4416 11.3881 13.4157 11.2105 13.3833C10.0694 13.175 8.79022 12.7054 7.55673 11.9973L7.55631 11.9971C6.44592 11.3637 5.46461 10.5899 4.71613 9.77469L4.71614 9.77468L4.71485 9.77331C4.58975 9.63987 4.41627 9.59588 4.25445 9.63111C4.31668 9.551 4.38171 9.47065 4.44948 9.39017C5.20393 8.49426 6.28126 7.60331 7.56394 6.86873C8.68949 6.22771 9.8723 5.76703 10.9843 5.52976C11.1405 5.49679 11.2575 5.3825 11.3097 5.24116C11.353 5.34589 11.3949 5.45371 11.4352 5.56447C11.831 6.65292 12.0641 8.00186 12.0641 9.43672C12.0641 10.6904 11.8998 11.9011 11.5598 12.9359L11.5561 12.947L11.5539 12.9586C11.5196 13.1387 11.5737 13.3418 11.731 13.4612ZM9.25728 10.293L9.25767 10.2929C9.72896 10.1871 10.0089 9.71955 9.92464 9.26055L9.92466 9.26054L9.9241 9.25775C9.82763 8.77537 9.34914 8.48588 8.88047 8.57961L8.88046 8.57957L8.8767 8.5804C8.64959 8.63087 8.45183 8.76949 8.32693 8.96577C8.20203 9.16205 8.16021 9.3999 8.21068 9.62701C8.26115 9.85412 8.39977 10.0519 8.59604 10.1768C8.79232 10.3017 9.03018 10.3435 9.25728 10.293ZM8.77257 2.55925C8.77257 2.40264 8.90283 2.27237 9.05944 2.27237C9.22925 2.27237 9.36142 2.40819 9.36142 2.55925C9.36142 2.70656 9.23317 2.83858 9.05944 2.83858C8.90461 2.83858 8.77257 2.71018 8.77257 2.55925ZM2.79347 12.9472C2.79347 12.7906 2.92373 12.6603 3.08035 12.6603C3.24074 12.6603 3.37477 12.7943 3.37477 12.9472C3.37477 13.1057 3.24267 13.234 3.08035 13.234C2.92182 13.234 2.79347 13.1094 2.79347 12.9472ZM15.0385 13.234C14.9876 13.234 14.9325 13.2179 14.8697 13.1855C14.851 13.1526 14.826 13.1252 14.7992 13.1038C14.7679 13.0533 14.7517 13.0001 14.7517 12.9472C14.7517 12.7886 14.8763 12.6603 15.0385 12.6603C15.1146 12.6603 15.1876 12.6905 15.2414 12.7443C15.2952 12.7981 15.3254 12.8711 15.3254 12.9472C15.3254 13.0233 15.2952 13.0962 15.2414 13.15C15.1876 13.2038 15.1146 13.234 15.0385 13.234Z" fill="#38D8CC" stroke="#38D8CC" stroke-width="0.362369"/>
</svg>
