<svg width="19" height="19" viewBox="0 0 19 19" fill="none" xmlns="http://www.w3.org/2000/svg">
<path d="M16.6029 13.6106L16.7893 13.54L16.6699 13.3804C16.3929 13.0103 16.118 12.6426 15.8445 12.2768C15.1136 11.2992 14.3925 10.3347 13.6671 9.37253L13.6583 9.36081L13.6473 9.35103C13.6194 9.326 13.597 9.29535 13.5816 9.26108C13.5663 9.22681 13.5584 9.18969 13.5584 9.15214C13.5584 9.1146 13.5663 9.07748 13.5816 9.04321C13.597 9.00894 13.6194 8.97829 13.6473 8.95325L13.6564 8.94515L13.664 8.93569C14.0974 8.399 14.5124 7.8487 14.9261 7.30013C15.0318 7.16 15.1374 7.01998 15.2432 6.88033L15.2434 6.88007L16.4068 5.33709L16.5262 5.17881L16.3414 5.10698C16.1021 5.01393 15.837 5.01212 15.5964 5.10187C15.359 5.19045 15.1619 5.36212 15.0416 5.58484C14.5175 6.32615 13.967 7.04873 13.4042 7.78747C13.2445 7.99705 13.0838 8.20793 12.9225 8.4209C12.7255 8.158 12.5291 7.89928 12.3343 7.64275C11.8074 6.94891 11.2927 6.27106 10.8125 5.56956C10.6746 5.34607 10.4641 5.17664 10.2162 5.08967C9.9671 5.00227 9.69545 5.0035 9.44713 5.09317L9.25421 5.16284L9.37908 5.32557L12.3084 9.14307L9.15267 13.3765L9.03176 13.5387L9.22208 13.6073C9.46568 13.6951 9.73287 13.6913 9.97389 13.5967C10.2119 13.5032 10.4084 13.3274 10.5277 13.1015C11.1159 12.2414 11.7459 11.4057 12.3886 10.5529C12.5587 10.3273 12.7297 10.1004 12.9011 9.87154L13.093 10.1274C13.3098 10.4256 13.5285 10.721 13.7467 11.0157C14.2562 11.704 14.7629 12.3884 15.2365 13.0968C15.3621 13.3326 15.569 13.515 15.8189 13.6101C16.0714 13.7061 16.3503 13.7063 16.6029 13.6106ZM1.40301 9.05669L1.3998 9.07196L1.3998 9.08756C1.39985 9.33 1.40125 9.57244 1.40401 9.81487L1.40419 9.83021L1.40747 9.8452C1.41646 9.88631 1.42958 9.93535 1.44157 9.98011C1.44887 10.0074 1.45575 10.0331 1.461 10.0544C1.47723 10.1203 1.4874 10.1774 1.4874 10.2302H1.48695L1.48786 10.2418C1.56012 11.1683 1.93356 12.0458 2.55117 12.7402L2.55072 12.7406L2.56049 12.7498C3.18581 13.3379 3.98111 13.7133 4.83265 13.8222C5.68419 13.931 6.54834 13.7678 7.30153 13.3559L7.30158 13.356L7.30665 13.353C7.76517 13.0782 8.15543 12.7031 8.44809 12.2558C8.74075 11.8085 8.92819 11.3007 8.99631 10.7705L9.01245 10.6449L8.89131 10.6079C8.68599 10.5453 8.48809 10.5178 8.31729 10.5971C8.14161 10.6788 8.03932 10.8514 7.97031 11.074L7.97001 11.0739L7.96774 11.0833C7.87493 11.4691 7.68752 11.8257 7.4224 12.121C7.15765 12.4159 6.82373 12.6403 6.45071 12.774C5.26827 13.1683 4.23397 12.9745 3.50927 12.3826C2.80955 11.8111 2.37672 10.8505 2.39226 9.62956H8.91848H9.0627L9.06836 9.48545C9.12758 7.97875 8.82782 6.60204 7.58904 5.62928C5.47392 3.96769 2.41561 5.09329 1.66819 7.74981C1.58871 8.02932 1.53572 8.33009 1.48545 8.61542C1.45842 8.76889 1.43217 8.91788 1.40301 9.05669ZM5.41764 5.75969L5.41858 5.7597C6.89403 5.77105 8.03771 6.97951 8.13322 8.75821H2.40856C2.47341 7.86517 2.7965 7.12612 3.29721 6.60669C3.82434 6.05986 4.55638 5.74772 5.41764 5.75969Z" fill="#38D8CC" stroke="#38D8CC" stroke-width="0.3"/>
</svg>
