<svg width="19" height="19" viewBox="0 0 19 19" fill="none" xmlns="http://www.w3.org/2000/svg">
<g clip-path="url(#clip0_1538_2469)">
<path d="M12.9998 6.28933L14.4575 5.58562V4.88191L11.0897 3.27376L14.4575 1.53962V0.86083L13.0501 0.20752L9.06271 2.19279L5.00794 0.20752L3.70131 0.911227V1.51428L6.86778 3.24842L3.70117 4.85686V5.58562L5.05833 6.28919L9.07927 4.22846L12.9998 6.28933Z" fill="#38D8CC"/>
<path d="M5.04961 0.00988821C5.03657 0.00336183 5.02219 -2.44479e-05 5.00762 1.32871e-07C4.99304 2.47136e-05 4.97867 0.00345947 4.96566 0.0100298L3.52555 0.742191C3.51023 0.750009 3.49736 0.761905 3.48837 0.776567C3.47938 0.791229 3.47461 0.808088 3.47458 0.825288V1.57699C3.47458 1.61252 3.49468 1.64494 3.52639 1.66079L4.54593 2.16461L4.3459 4.35147L3.54083 4.7511C3.5255 4.75872 3.51256 4.77041 3.50343 4.78489C3.49429 4.79937 3.48931 4.81609 3.48902 4.83321L3.47572 5.57216C3.4754 5.58967 3.48 5.60692 3.48901 5.62194C3.49803 5.63696 3.51108 5.64914 3.52668 5.6571L4.19514 5.99529L4.1555 6.4289L3.2444 8.79129C3.08164 8.96063 2.99073 9.18638 2.99072 9.42125V17.2058C2.99095 17.4481 3.0873 17.6805 3.25864 17.8519C3.42997 18.0233 3.6623 18.1197 3.90465 18.12H14.2152C14.4576 18.1197 14.6899 18.0233 14.8612 17.8519C15.0326 17.6805 15.1289 17.4481 15.1291 17.2058V9.42139C15.1291 9.19981 15.0482 8.98587 14.9015 8.81975L13.9692 5.97151L14.5425 5.69405C14.5583 5.68636 14.5716 5.67438 14.5809 5.65948C14.5902 5.64459 14.5951 5.62737 14.595 5.60982V4.83759C14.5951 4.82015 14.5902 4.80303 14.581 4.78821C14.5718 4.77339 14.5586 4.76146 14.5429 4.75379L13.812 4.39465L13.6289 2.1203L14.5438 1.66079C14.5592 1.65298 14.5722 1.64103 14.5812 1.62629C14.5903 1.61154 14.5951 1.59457 14.595 1.57727V0.837604C14.595 0.820475 14.5903 0.803682 14.5813 0.789072C14.5724 0.774462 14.5596 0.7626 14.5443 0.75479L13.0921 0.010596C13.0789 0.0038412 13.0644 0.000293778 13.0496 0.000244564C13.0349 0.000195351 13.0203 0.00364574 13.0071 0.0103129L9.10452 1.99077C9.09157 1.99735 9.07725 2.0008 9.06273 2.00085C9.0482 2.0009 9.03386 1.99755 9.02086 1.99106L5.04961 0.00988821ZM5.00898 0.341852L9.06276 2.44335L13.0489 0.34256L14.0639 0.862519L10.3729 2.71982C10.2253 2.79414 10.2257 3.00478 10.3733 3.07868L14.0262 4.9071L13.0793 5.3979L9.06276 3.33944L4.97543 5.43952L4.04182 4.90356L7.8156 3.02772C7.96509 2.95354 7.9641 2.73992 7.81362 2.6673L4.02852 0.840011L5.00898 0.341852ZM14.2799 1.10686V1.4408L11.0749 3.04994C11.0703 3.04711 10.737 2.88941 10.737 2.88941L14.2799 1.10686ZM3.83684 1.12667L7.36684 2.88743L7.00997 3.03012L3.83684 1.45892V1.12667ZM13.1945 2.33845L13.3418 4.1639L11.4297 3.22449L13.1945 2.33845ZM4.97826 2.37823L6.65337 3.20595L4.81929 4.11648L4.97826 2.37823ZM9.22032 3.84269L12.8677 5.64478V6.00718L9.22032 4.13856V3.84269ZM8.90506 3.84326V4.1387L5.16526 6.03097V5.69745L8.90506 3.84326ZM9.02058 4.44816C9.03365 4.44158 9.04809 4.43818 9.06273 4.43823C9.07736 4.43828 9.09178 4.44178 9.10481 4.44844L12.9707 6.41418C12.9835 6.42067 12.9977 6.42413 13.012 6.42428C13.0264 6.42443 13.0406 6.42126 13.0536 6.41503L13.5056 6.19603L13.6917 8.50732H4.41739L4.59831 6.53295L4.70589 6.25407L5.022 6.41389C5.03506 6.42049 5.04949 6.42392 5.06412 6.42392C5.07875 6.42392 5.09317 6.42049 5.10623 6.41389L9.02058 4.44816ZM3.7897 5.1227L4.85 5.73114V5.97363L3.7897 5.43711V5.1227ZM14.28 5.13049V5.47094L13.1827 6.00223V5.69929L14.28 5.13049ZM14.0838 7.76893L14.3279 8.51496C14.2905 8.50995 14.2529 8.50731 14.2152 8.50704H14.143L14.0838 7.76893ZM4.0053 8.06904L3.96538 8.50704H3.90465C3.88145 8.50731 3.85826 8.50844 3.83514 8.51043L4.0053 8.06904ZM3.90479 8.77685H14.2152C14.386 8.77697 14.5497 8.84488 14.6704 8.96566C14.7911 9.08644 14.8589 9.25021 14.8589 9.42096V10.0237H3.26097V9.42125C3.26093 9.25047 3.32871 9.08666 3.44942 8.96585C3.57013 8.84504 3.73401 8.77697 3.90479 8.77685ZM3.99398 9.21754C3.93987 9.21754 3.88799 9.23903 3.84973 9.27729C3.81148 9.31554 3.78998 9.36743 3.78998 9.42153C3.78998 9.47563 3.81148 9.52752 3.84973 9.56577C3.88799 9.60403 3.93987 9.62552 3.99398 9.62552C4.04808 9.62552 4.09996 9.60403 4.13822 9.56577C4.17648 9.52752 4.19797 9.47563 4.19797 9.42153C4.19797 9.36743 4.17648 9.31554 4.13822 9.27729C4.09996 9.23903 4.04808 9.21754 3.99398 9.21754ZM4.69117 9.21754C4.63707 9.21754 4.58518 9.23903 4.54693 9.27729C4.50867 9.31554 4.48718 9.36743 4.48718 9.42153C4.48718 9.47563 4.50867 9.52752 4.54693 9.56577C4.58518 9.60403 4.63707 9.62552 4.69117 9.62552C4.74527 9.62552 4.79716 9.60403 4.83542 9.56577C4.87367 9.52752 4.89516 9.47563 4.89516 9.42153C4.89516 9.36743 4.87367 9.31554 4.83542 9.27729C4.79716 9.23903 4.74527 9.21754 4.69117 9.21754ZM5.36671 9.21754C5.31261 9.21754 5.26072 9.23903 5.22246 9.27729C5.18421 9.31554 5.16272 9.36743 5.16272 9.42153C5.16272 9.47563 5.18421 9.52752 5.22246 9.56577C5.26072 9.60403 5.31261 9.62552 5.36671 9.62552C5.42081 9.62552 5.4727 9.60403 5.51095 9.56577C5.54921 9.52752 5.5707 9.47563 5.5707 9.42153C5.5707 9.36743 5.54921 9.31554 5.51095 9.27729C5.4727 9.23903 5.42081 9.21754 5.36671 9.21754ZM3.26097 10.2938H14.8589V17.2056C14.8589 17.3764 14.7911 17.5401 14.6704 17.6609C14.5497 17.7817 14.386 17.8496 14.2152 17.8497H3.90465C3.7339 17.8496 3.57017 17.7817 3.44947 17.6609C3.32877 17.5401 3.26097 17.3764 3.26097 17.2056V10.2938ZM3.96793 13.0039V14.5546H4.2192V13.9661H4.54366C4.57905 13.9661 4.6126 13.9633 4.64417 13.9576C4.67588 13.9521 4.70589 13.9435 4.73378 13.9326C4.78902 13.9107 4.83873 13.8769 4.87931 13.8335C4.92022 13.7897 4.95139 13.7378 4.97076 13.6811C4.98081 13.6521 4.98831 13.6213 4.99341 13.5883C4.9985 13.5554 5.00119 13.5206 5.00119 13.4839C5.00119 13.4476 4.9985 13.413 4.99341 13.3802C4.98862 13.3486 4.98094 13.3176 4.97047 13.2875C4.94136 13.2017 4.88505 13.1277 4.81008 13.0768C4.78572 13.0604 4.75961 13.0467 4.73222 13.036C4.70352 13.0251 4.67379 13.017 4.64346 13.012C4.61048 13.0065 4.5771 13.0038 4.54366 13.0039H3.96793ZM10.3708 13.1936V13.5025H10.1519V13.7236H10.3709V14.1473C10.3709 14.1816 10.3732 14.2134 10.3776 14.2431C10.3818 14.2729 10.3884 14.3003 10.3973 14.3257C10.406 14.3512 10.4171 14.3742 10.4305 14.3953C10.4438 14.4163 10.4594 14.4352 10.4773 14.452C10.4952 14.4689 10.5148 14.4839 10.536 14.4967C10.5572 14.5094 10.5802 14.5203 10.6048 14.5288C10.6293 14.5373 10.6556 14.544 10.6835 14.5482C10.7114 14.5525 10.741 14.5546 10.7721 14.5546C10.7931 14.5546 10.8143 14.553 10.8358 14.5499C10.8574 14.5468 10.8792 14.5423 10.9012 14.536C10.9235 14.5298 10.9458 14.5217 10.9686 14.5123C10.9914 14.5028 11.0146 14.4917 11.0381 14.479L10.9603 14.2536C10.9321 14.269 10.9024 14.2813 10.8716 14.2904C10.8452 14.2981 10.8179 14.3023 10.7904 14.3027C10.7786 14.3028 10.7669 14.3018 10.7553 14.2999C10.7448 14.2983 10.7346 14.2955 10.7247 14.2917C10.6973 14.2808 10.6749 14.2601 10.6619 14.2337C10.6571 14.224 10.6533 14.2139 10.6505 14.2035C10.6473 14.1918 10.6449 14.1799 10.6434 14.1678C10.6418 14.1542 10.641 14.1405 10.641 14.1268V13.7236H10.9747V13.5025H10.6412V13.1936H10.3708ZM4.2192 13.2664H4.54366C4.54791 13.2664 4.55187 13.2664 4.55584 13.2667C4.57479 13.2672 4.59363 13.2699 4.61204 13.2744C4.61558 13.2753 4.61912 13.2764 4.62237 13.2774C4.62577 13.2785 4.62917 13.2795 4.63228 13.2808C4.64494 13.2856 4.65697 13.2919 4.6681 13.2996C4.67638 13.3053 4.68414 13.3117 4.69131 13.3187L4.69853 13.3258C4.70721 13.336 4.71503 13.3469 4.72189 13.3584C4.72359 13.3612 4.725 13.3642 4.72656 13.3672C4.72798 13.3701 4.72968 13.3731 4.73095 13.3761C4.73374 13.3823 4.73624 13.3887 4.73845 13.3952L4.74157 13.4051C4.74256 13.4086 4.74369 13.4119 4.74454 13.4154L4.74681 13.4262C4.7498 13.4412 4.75145 13.4564 4.75176 13.4716L4.75204 13.4839C4.75204 13.4881 4.75204 13.492 4.75176 13.4961C4.75176 13.5001 4.75148 13.504 4.75119 13.508L4.75006 13.5196C4.74932 13.5272 4.74824 13.5347 4.74681 13.5421L4.74454 13.5529C4.74369 13.5564 4.74256 13.5597 4.74157 13.5631C4.7368 13.5798 4.7302 13.5959 4.72189 13.6111C4.71689 13.6198 4.71121 13.6281 4.7049 13.636C4.70292 13.6387 4.70066 13.6412 4.69853 13.6438C4.68026 13.6637 4.65757 13.6794 4.63228 13.6889C4.62917 13.6902 4.62577 13.6912 4.62237 13.6923L4.61218 13.6953C4.59762 13.6991 4.58274 13.7015 4.56773 13.7025C4.55973 13.7032 4.5517 13.7036 4.54366 13.7037H4.2192V13.2664ZM7.06149 13.4716C7.02766 13.4716 6.99538 13.4742 6.96452 13.4789C6.9344 13.4832 6.9047 13.4902 6.87576 13.4997C6.82029 13.5182 6.76881 13.547 6.72401 13.5846V13.5025H6.45377V15.011H6.72401V14.444C6.74694 14.4624 6.77129 14.4787 6.79677 14.4926C6.84957 14.5202 6.9066 14.5388 6.96551 14.5476C6.99623 14.5523 7.02823 14.5547 7.06149 14.5547C7.09519 14.5547 7.12803 14.5513 7.1596 14.5448C7.22304 14.5321 7.28303 14.5059 7.33556 14.4681C7.39217 14.4277 7.44092 14.3774 7.47939 14.3195C7.4981 14.2905 7.51376 14.2597 7.5261 14.2276C7.53856 14.1953 7.54776 14.1615 7.55385 14.1259C7.56008 14.0904 7.56305 14.0532 7.56305 14.0142C7.56305 13.9753 7.56008 13.9382 7.55385 13.9025C7.54256 13.8334 7.51716 13.7673 7.47924 13.7083C7.4414 13.6494 7.39251 13.5984 7.33528 13.5581C7.30852 13.5393 7.27992 13.5232 7.24991 13.5101C7.22061 13.4975 7.19005 13.488 7.15875 13.4817C7.12674 13.4752 7.09416 13.4716 7.06149 13.4716ZM8.37548 13.4716C8.34179 13.4716 8.30951 13.4742 8.27851 13.4789C8.24842 13.4832 8.21878 13.4902 8.18989 13.4997C8.13437 13.5182 8.08283 13.547 8.03799 13.5846V13.5025H7.76775V15.011H8.03799V14.444C8.08363 14.4809 8.13571 14.509 8.19159 14.5268C8.21962 14.536 8.24892 14.5431 8.27964 14.5476C8.31036 14.5523 8.34221 14.5547 8.37548 14.5547C8.44044 14.5547 8.50473 14.5416 8.56446 14.5161C8.59377 14.5033 8.62208 14.4873 8.64926 14.4681C8.69183 14.4379 8.73007 14.402 8.76293 14.3615C8.78446 14.3345 8.8032 14.3055 8.81885 14.2747C8.84233 14.2278 8.85883 14.1776 8.86783 14.1259C8.87406 14.0904 8.87703 14.0532 8.87703 14.0142C8.87703 13.9753 8.8742 13.9382 8.86783 13.9025C8.85882 13.8507 8.84232 13.8004 8.81885 13.7532C8.81113 13.7378 8.80262 13.7228 8.79337 13.7083C8.77423 13.6786 8.75223 13.6507 8.72768 13.6252C8.70355 13.6005 8.67721 13.578 8.64898 13.5581C8.5962 13.5204 8.53603 13.4944 8.47245 13.4817C8.44053 13.4752 8.40805 13.4716 8.37548 13.4716ZM9.5278 13.4716C9.49042 13.4716 9.45475 13.475 9.42049 13.4814C9.35346 13.4934 9.28967 13.5192 9.2332 13.5573C9.17488 13.5965 9.12485 13.6468 9.08598 13.7054C9.06679 13.7345 9.05071 13.7656 9.03799 13.7981C9.02491 13.8314 9.01528 13.8659 9.00925 13.9011C9.00288 13.9372 8.99948 13.9747 8.99948 14.0144C8.9995 14.0704 9.00678 14.1262 9.02114 14.1803C9.0305 14.2139 9.04321 14.2465 9.05908 14.2775C9.08292 14.324 9.11398 14.3663 9.1511 14.403C9.17615 14.4282 9.20277 14.4501 9.23094 14.4689C9.28714 14.5069 9.35063 14.5328 9.41738 14.545C9.45135 14.5513 9.48688 14.5546 9.52383 14.5546C9.55243 14.5546 9.58003 14.5529 9.60693 14.5496C9.63383 14.5464 9.65973 14.5413 9.68479 14.5346C9.73411 14.5215 9.78126 14.5014 9.82479 14.4747C9.86751 14.4482 9.90565 14.4149 9.93776 14.3762C9.95404 14.3565 9.96919 14.3354 9.98264 14.3127C9.99623 14.29 10.0081 14.2654 10.019 14.2393L9.77737 14.1884C9.76476 14.2099 9.74939 14.2297 9.73165 14.2473C9.71452 14.2642 9.69541 14.2781 9.67431 14.2894C9.65308 14.3008 9.63015 14.3093 9.60495 14.3149C9.57989 14.3206 9.55299 14.3233 9.52383 14.3233C9.50798 14.3233 9.49241 14.3219 9.47783 14.319C9.44871 14.3136 9.42098 14.3024 9.39628 14.286C9.35638 14.2602 9.32374 14.2247 9.30144 14.1827C9.29365 14.168 9.28702 14.1527 9.28162 14.137C9.27591 14.1203 9.27137 14.1033 9.26803 14.086H10.0456V13.9937C10.0443 13.9568 10.04 13.9202 10.0326 13.884C10.0256 13.8501 10.0153 13.8169 10.002 13.7849C9.976 13.7218 9.93726 13.6647 9.88821 13.6172C9.86378 13.5937 9.83724 13.5726 9.80894 13.554C9.75423 13.518 9.69293 13.4933 9.62859 13.4811C9.59531 13.4748 9.56166 13.4716 9.5278 13.4716ZM11.609 13.4716C11.5718 13.4716 11.536 13.475 11.5017 13.4814C11.4347 13.4934 11.3709 13.5192 11.3145 13.5573C11.2708 13.5867 11.2318 13.6223 11.1987 13.6632C11.1653 13.7037 11.1386 13.7492 11.1194 13.7981C11.1062 13.8313 11.0966 13.8659 11.0905 13.9011C11.0841 13.9372 11.0809 13.9747 11.0809 14.0144C11.0809 14.0704 11.0882 14.1262 11.1025 14.1803C11.1119 14.2139 11.1246 14.2465 11.1405 14.2775C11.1643 14.324 11.1954 14.3663 11.2325 14.403C11.2575 14.4282 11.2842 14.4501 11.3122 14.4689C11.3685 14.5069 11.432 14.5328 11.4988 14.545C11.5327 14.5513 11.5683 14.5546 11.6051 14.5546C11.6338 14.5546 11.6614 14.5529 11.6883 14.5496C11.7147 14.5464 11.7408 14.5414 11.7665 14.5346C11.8157 14.5216 11.8627 14.5014 11.906 14.4747C11.9488 14.4482 11.987 14.4149 12.0192 14.3762C12.0532 14.3352 12.0806 14.2889 12.1003 14.2393L11.8589 14.1884C11.8463 14.2099 11.831 14.2297 11.8132 14.2473C11.7962 14.2642 11.7769 14.2781 11.7558 14.2894C11.7339 14.301 11.7106 14.3096 11.6863 14.3149C11.6613 14.3206 11.6342 14.3233 11.6051 14.3233C11.5748 14.3235 11.5448 14.3178 11.5168 14.3066C11.4887 14.2953 11.4632 14.2788 11.4414 14.2579C11.4177 14.2364 11.3979 14.211 11.3828 14.1828C11.375 14.1681 11.3684 14.1528 11.363 14.137C11.3573 14.1203 11.3528 14.1033 11.3494 14.086H12.1269V13.9937C12.1256 13.9568 12.1212 13.9202 12.1139 13.884C12.1069 13.8501 12.0967 13.8169 12.0834 13.7849C12.0574 13.7218 12.0186 13.6646 11.9695 13.6172C11.945 13.5937 11.9185 13.5726 11.8902 13.554C11.8356 13.5181 11.7744 13.4933 11.7101 13.4811C11.6769 13.4748 11.6429 13.4717 11.609 13.4716ZM12.8228 13.4716C12.7854 13.4716 12.7495 13.475 12.7152 13.4814C12.6483 13.4938 12.5846 13.5196 12.5279 13.5573C12.4843 13.5866 12.4454 13.6223 12.4123 13.6632C12.3789 13.7037 12.3522 13.7492 12.333 13.7981C12.3199 13.8314 12.3103 13.8659 12.3043 13.9011C12.2979 13.9372 12.2946 13.9747 12.2946 14.0144C12.2946 14.0704 12.3018 14.1262 12.3162 14.1803C12.3255 14.2139 12.3382 14.2465 12.3541 14.2775C12.3779 14.324 12.409 14.3663 12.4461 14.403C12.4712 14.4282 12.4978 14.4501 12.5259 14.4689C12.5822 14.5069 12.6456 14.5328 12.7124 14.545C12.7464 14.5513 12.7818 14.5546 12.8186 14.5546C12.8473 14.5546 12.8752 14.5529 12.9021 14.5496C12.9283 14.5464 12.9544 14.5414 12.9799 14.5346C13.0291 14.5215 13.0761 14.5013 13.1195 14.4747C13.1846 14.4345 13.2389 14.3788 13.2775 14.3127C13.291 14.29 13.3033 14.2654 13.314 14.2393L13.0724 14.1884C13.0598 14.2099 13.0444 14.2297 13.0267 14.2473C13.0095 14.2642 12.9904 14.2781 12.9693 14.2894C12.9481 14.3008 12.9252 14.3093 12.9 14.3149C12.8732 14.3207 12.8459 14.3235 12.8186 14.3233C12.7884 14.3234 12.7585 14.3178 12.7305 14.3066C12.7024 14.2954 12.6768 14.2788 12.6551 14.2579C12.6314 14.2364 12.6116 14.211 12.5966 14.1828C12.5888 14.1681 12.5822 14.1528 12.5768 14.137C12.5709 14.1203 12.5662 14.1033 12.5628 14.086H13.3406V13.9937C13.3392 13.9568 13.3348 13.9201 13.3273 13.884C13.3204 13.8501 13.3104 13.8169 13.2972 13.7849C13.271 13.7217 13.2322 13.6646 13.1829 13.6172C13.1586 13.5937 13.1322 13.5726 13.1039 13.554C13.0492 13.518 12.9879 13.4933 12.9236 13.4811C12.8903 13.4748 12.8567 13.4716 12.8228 13.4716ZM14.1817 13.4883C14.1277 13.4877 14.0741 13.4974 14.0237 13.5167C13.974 13.5357 13.9286 13.5645 13.8902 13.6013C13.8765 13.6141 13.8636 13.6276 13.8514 13.6418C13.8386 13.6568 13.8265 13.6724 13.8153 13.6886V13.5028H13.5452V14.5239H13.8153V14.1943C13.8153 14.1578 13.8174 14.1235 13.8211 14.0915C13.8249 14.0595 13.8304 14.0297 13.8381 14.0024C13.8456 13.9749 13.8551 13.95 13.8664 13.9273C13.8772 13.9053 13.8906 13.8846 13.9062 13.8657C13.9365 13.8291 13.9757 13.8008 14.0201 13.7836C14.0428 13.7746 14.0674 13.7678 14.094 13.7633C14.1223 13.7586 14.151 13.7564 14.1797 13.7566H14.2391L14.2533 13.4964C14.2435 13.4931 14.2333 13.4909 14.223 13.49C14.2093 13.4888 14.1955 13.4882 14.1817 13.4883ZM5.1664 13.5025V14.1248C5.1664 14.1565 5.16866 14.1868 5.17333 14.2154C5.17786 14.2441 5.18494 14.2712 5.19428 14.2969C5.22207 14.3737 5.27302 14.4399 5.34009 14.4865C5.36189 14.5015 5.38525 14.5141 5.40988 14.5241C5.43466 14.5342 5.46071 14.5418 5.48831 14.5468C5.51606 14.5519 5.54522 14.5546 5.57594 14.5546C5.60906 14.5546 5.64077 14.5519 5.67078 14.5468C5.70051 14.5417 5.72897 14.5341 5.75572 14.5239C5.80881 14.5036 5.85697 14.4722 5.897 14.4319V14.5239H6.16724V13.5025H5.897V13.9549C5.897 13.9844 5.89587 14.0118 5.89318 14.0376C5.89089 14.0618 5.88701 14.0857 5.88157 14.1094C5.87667 14.13 5.86999 14.1502 5.86161 14.1697C5.85368 14.1881 5.84448 14.2044 5.83386 14.2191C5.81374 14.2477 5.78639 14.2705 5.75459 14.2851C5.73812 14.2925 5.72082 14.298 5.70306 14.3013C5.68333 14.3052 5.66328 14.3071 5.64318 14.307C5.62812 14.3071 5.61309 14.3056 5.5983 14.3027C5.57134 14.2974 5.54591 14.2861 5.52384 14.2698C5.51285 14.2614 5.50279 14.2519 5.49383 14.2414C5.48416 14.2307 5.47571 14.2189 5.46863 14.2063C5.46128 14.1933 5.45526 14.1795 5.45065 14.1653C5.44584 14.1501 5.44234 14.1345 5.44018 14.1187C5.43783 14.1017 5.4367 14.0846 5.43678 14.0675V13.5025H5.1664ZM7.01435 13.7072C7.03452 13.7072 7.05465 13.709 7.07452 13.7124C7.1022 13.7176 7.12893 13.727 7.15379 13.7402C7.16186 13.7444 7.16979 13.7494 7.17758 13.7546C7.1814 13.7572 7.18522 13.7601 7.1889 13.763C7.19272 13.7658 7.1964 13.7685 7.19994 13.7715L7.21084 13.7812L7.22132 13.7911C7.24122 13.8118 7.25762 13.8357 7.26987 13.8616C7.27839 13.8795 7.28503 13.8983 7.28969 13.9176C7.29499 13.9382 7.29845 13.9592 7.30003 13.9804C7.30246 14.0136 7.30117 14.047 7.2962 14.0799C7.29137 14.1094 7.28261 14.1381 7.27016 14.1653C7.26189 14.1825 7.25188 14.1987 7.24029 14.2138C7.22267 14.2364 7.20148 14.256 7.17758 14.2717C7.13815 14.2984 7.0925 14.3143 7.04507 14.318C7.02553 14.3199 7.00586 14.3199 6.98632 14.318C6.9682 14.316 6.95028 14.3124 6.93281 14.3071C6.9062 14.2989 6.88099 14.2867 6.85807 14.2709C6.83315 14.2542 6.81058 14.2343 6.79097 14.2116C6.76519 14.1818 6.74646 14.1466 6.73618 14.1085C6.73052 14.0885 6.72687 14.068 6.72528 14.0472C6.72271 14.0147 6.72404 13.9819 6.72925 13.9497C6.73456 13.9201 6.74415 13.8915 6.7577 13.8648C6.76691 13.847 6.77807 13.8304 6.79097 13.8152C6.80398 13.7997 6.81854 13.7855 6.83443 13.7729C6.84938 13.7608 6.86534 13.7501 6.88213 13.7407C6.89827 13.7319 6.91525 13.7247 6.93281 13.7192C6.9592 13.711 6.98671 13.7069 7.01435 13.7072ZM8.32834 13.7072C8.34841 13.7072 8.36844 13.709 8.38822 13.7124C8.4159 13.7176 8.44262 13.727 8.46749 13.7402C8.47556 13.7444 8.48363 13.7494 8.49128 13.7546C8.4951 13.7572 8.49892 13.7601 8.5026 13.763L8.51378 13.7715C8.51746 13.7746 8.521 13.778 8.52454 13.7812L8.53516 13.7911C8.55508 13.8118 8.57143 13.8356 8.58357 13.8616C8.59222 13.8795 8.59901 13.8983 8.60382 13.9176C8.61152 13.9492 8.61523 13.9817 8.61486 14.0142C8.61523 14.0465 8.61152 14.0787 8.60382 14.1101C8.5964 14.1383 8.58501 14.1652 8.56998 14.1902C8.55994 14.2064 8.54827 14.2216 8.53516 14.2355C8.5151 14.2555 8.49231 14.2725 8.46749 14.286C8.44284 14.2995 8.41616 14.3089 8.3885 14.3138C8.35948 14.3192 8.32986 14.3206 8.30045 14.318C8.28232 14.316 8.26441 14.3124 8.24694 14.3071C8.22022 14.299 8.19492 14.2867 8.17191 14.2709C8.15538 14.2598 8.13992 14.2472 8.12576 14.2332C8.10419 14.2129 8.08599 14.1893 8.07183 14.1633C8.0626 14.1459 8.05534 14.1275 8.05017 14.1085C8.04455 14.0885 8.04094 14.068 8.03941 14.0472C8.03679 14.0147 8.03808 13.9819 8.04323 13.9497C8.04859 13.9201 8.05822 13.8915 8.07183 13.8648C8.08104 13.847 8.09219 13.8304 8.10509 13.8152C8.1181 13.7997 8.13267 13.7855 8.14855 13.7729C8.16336 13.7608 8.17923 13.75 8.19598 13.7407C8.21211 13.7319 8.22909 13.7247 8.24665 13.7192C8.27313 13.7111 8.30066 13.7071 8.32834 13.7072ZM9.52765 13.7072C9.53925 13.7072 9.55084 13.7079 9.56234 13.7095C9.56574 13.7099 9.56914 13.7103 9.57253 13.7109C9.58425 13.7126 9.59584 13.7152 9.60721 13.7185C9.61821 13.7221 9.62894 13.7265 9.63935 13.7315C9.64269 13.7331 9.64599 13.7347 9.64926 13.7364C9.65966 13.7417 9.66969 13.7477 9.67927 13.7543C9.69546 13.766 9.7099 13.7799 9.72216 13.7957C9.73078 13.8067 9.73836 13.8186 9.74481 13.8311C9.74834 13.8375 9.75151 13.8442 9.7543 13.851L9.75854 13.8616C9.76132 13.8689 9.76382 13.8763 9.76605 13.8837L9.7693 13.8953H9.2761C9.27914 13.8824 9.28331 13.8698 9.28856 13.8577C9.28951 13.8553 9.2905 13.853 9.29153 13.8507C9.29693 13.8387 9.30338 13.8272 9.31078 13.8163C9.31831 13.8057 9.32674 13.7958 9.33598 13.7866C9.33797 13.7846 9.34 13.7826 9.34207 13.7807C9.3514 13.7717 9.36149 13.7636 9.37222 13.7563C9.3823 13.7493 9.39285 13.743 9.40379 13.7375C9.40659 13.736 9.40943 13.7346 9.41228 13.7332C9.42329 13.7279 9.43464 13.7234 9.44626 13.7197C9.45767 13.7161 9.4693 13.7134 9.48108 13.7114C9.4847 13.7109 9.48834 13.7104 9.49198 13.71C9.5038 13.7083 9.51571 13.7073 9.52765 13.7072ZM11.609 13.7072C11.6206 13.7072 11.6321 13.7079 11.6436 13.7095C11.647 13.7099 11.6505 13.7103 11.6539 13.7109C11.6656 13.7126 11.6772 13.7152 11.6886 13.7185C11.6996 13.7221 11.7103 13.7265 11.7207 13.7315C11.7241 13.7331 11.7274 13.7347 11.7306 13.7364C11.7411 13.7417 11.7511 13.7477 11.7607 13.7543C11.7714 13.762 11.7813 13.7708 11.7904 13.7804C11.7928 13.7828 11.7949 13.7853 11.7972 13.7879L11.8038 13.7957L11.8099 13.8039C11.816 13.8125 11.8215 13.8216 11.8262 13.8311C11.835 13.848 11.8421 13.8657 11.8474 13.884L11.8507 13.8956H11.3573C11.3604 13.8827 11.3646 13.8698 11.3698 13.8577C11.3708 13.8553 11.3718 13.853 11.3729 13.8507C11.3783 13.8387 11.3847 13.8272 11.392 13.8163C11.3996 13.8057 11.408 13.7957 11.4172 13.7865C11.4192 13.7845 11.4213 13.7826 11.4233 13.7807C11.4327 13.7717 11.4428 13.7635 11.4536 13.7563C11.4637 13.7493 11.4742 13.743 11.4852 13.7375C11.488 13.736 11.4908 13.7346 11.4937 13.7332C11.5047 13.7279 11.516 13.7234 11.5276 13.7197C11.5391 13.7161 11.5507 13.7134 11.5625 13.7114C11.5661 13.7109 11.5696 13.7104 11.5732 13.71C11.5851 13.7083 11.5971 13.7073 11.609 13.7072ZM12.8228 13.7072C12.8344 13.7072 12.8459 13.7079 12.8573 13.7095C12.8608 13.7099 12.8642 13.7103 12.8677 13.7109C12.8794 13.7126 12.8909 13.7152 12.9022 13.7185C12.9132 13.7221 12.924 13.7265 12.9344 13.7315C12.9377 13.7331 12.941 13.7347 12.9443 13.7364C12.9547 13.7417 12.9647 13.7477 12.9743 13.7543C13.0021 13.7742 13.0246 13.8005 13.04 13.8311C13.0434 13.8376 13.0465 13.8441 13.0494 13.851L13.0537 13.8616C13.0564 13.8689 13.0589 13.8763 13.0611 13.8837L13.0643 13.8953H12.5708C12.5739 13.8824 12.578 13.8698 12.5833 13.8577C12.5843 13.8553 12.5853 13.853 12.5864 13.8507C12.5918 13.8387 12.5981 13.8272 12.6055 13.8163C12.613 13.8059 12.6213 13.7961 12.6304 13.787C12.6329 13.7846 12.6354 13.7823 12.6379 13.78C12.647 13.7713 12.6568 13.7634 12.6672 13.7563C12.6774 13.7492 12.688 13.7428 12.6991 13.7372C12.7016 13.7359 12.7041 13.7347 12.7066 13.7335C12.7177 13.7281 12.7292 13.7235 12.741 13.7197C12.7525 13.7161 12.7643 13.7134 12.7762 13.7114C12.7797 13.7109 12.7832 13.7104 12.7867 13.71C12.7987 13.7083 12.8107 13.7073 12.8228 13.7072Z" fill="#16B4A8"/>
</g>
<defs>
<clipPath id="clip0_1538_2469">
<rect width="18.12" height="18.12" fill="white"/>
</clipPath>
</defs>
</svg>
