<svg width="25" height="25" viewBox="0 0 25 25" fill="none" xmlns="http://www.w3.org/2000/svg">
<path d="M12.3682 0.000362382C14.5292 -0.0165624 16.6544 0.559647 18.5192 1.66803C20.3704 2.75393 21.9078 4.31472 22.9772 6.19388C24.0693 8.08649 24.637 10.2435 24.6204 12.4367C24.6458 15.0667 23.8251 17.6334 22.283 19.7472C20.7937 21.86 18.6779 23.4344 16.2445 24.2404C16.1368 24.2739 16.0228 24.2811 15.9118 24.2614C15.8009 24.2417 15.696 24.1957 15.6059 24.1271C15.5388 24.0662 15.4855 23.9912 15.4497 23.9074C15.4138 23.8236 15.3963 23.7329 15.3983 23.6416C15.3983 23.6092 15.401 23.1964 15.4065 22.403C15.412 21.6096 15.4147 20.8837 15.4147 20.2255C15.4147 19.1787 15.1381 18.4123 14.5849 17.9264C15.1364 17.8714 15.6829 17.7739 16.2198 17.635C16.7437 17.4888 17.2476 17.2767 17.7196 17.0035C18.2137 16.7306 18.6524 16.3651 19.0124 15.9263C19.3985 15.4195 19.6855 14.8423 19.8579 14.2261C20.0878 13.4353 20.1983 12.6137 20.1858 11.7894C20.2044 10.5543 19.7528 9.35953 18.9251 8.45402C19.1189 7.92197 19.2073 7.35632 19.1853 6.7895C19.1634 6.22268 19.0314 5.66584 18.797 5.15089C18.3583 5.06859 17.9052 5.13102 17.5041 5.32903C16.9939 5.51893 16.5025 5.75738 16.0365 6.04119L15.43 6.43008C13.4253 5.86909 11.3084 5.86909 9.30374 6.43008C9.13345 6.31132 8.90752 6.16552 8.62596 5.99268C8.19828 5.75052 7.75296 5.54195 7.29391 5.3688C6.87667 5.15041 6.4014 5.07361 5.93796 5.1497C5.70355 5.66465 5.57156 6.22149 5.54958 6.78831C5.52759 7.35512 5.61604 7.92077 5.80985 8.45283C4.98208 9.35834 4.53047 10.5531 4.5491 11.7882C4.53585 12.61 4.64602 13.4291 4.87585 14.2173C5.04983 14.8317 5.33421 15.4081 5.71465 15.9176C6.06929 16.3605 6.50565 16.729 6.99929 17.0023C7.47143 17.2756 7.97556 17.4875 8.49981 17.633C9.03676 17.7718 9.58328 17.8692 10.1347 17.9244C9.69149 18.3715 9.41518 18.961 9.35311 19.5921C9.1241 19.7019 8.88303 19.7836 8.63497 19.8355C8.33535 19.8935 8.03064 19.9201 7.72565 19.915C7.351 19.9068 6.98725 19.7855 6.68078 19.5667C6.30976 19.3065 6.00604 18.9593 5.79536 18.5547C5.60243 18.219 5.33807 17.9313 5.02159 17.7125C4.78501 17.5334 4.51714 17.4015 4.23215 17.3236L3.91285 17.2751C3.75521 17.2633 3.59698 17.288 3.45016 17.3475C3.36475 17.3957 3.33864 17.4579 3.37181 17.534C3.40815 17.6165 3.45663 17.6929 3.51559 17.7606C3.57687 17.8335 3.64659 17.8987 3.72323 17.9547L3.83489 18.0342C4.11212 18.1791 4.3504 18.3904 4.52912 18.6497C4.72845 18.9035 4.89708 19.1806 5.03138 19.4752L5.19084 19.8474C5.31974 20.2434 5.56451 20.5902 5.89252 20.8415C6.20563 21.0873 6.57204 21.2538 6.96129 21.327C7.32716 21.3957 7.698 21.4336 8.07003 21.4403C8.36626 21.4495 8.66269 21.4306 8.95545 21.3838L9.32216 21.319C9.32216 21.7294 9.3249 22.2065 9.33038 22.7505C9.33587 23.2945 9.33861 23.5886 9.33861 23.6328C9.34057 23.7242 9.32303 23.8149 9.28718 23.8987C9.25134 23.9825 9.19805 24.0574 9.13097 24.1183C9.04083 24.1869 8.93601 24.233 8.82504 24.2526C8.71407 24.2723 8.60008 24.2652 8.49237 24.2317C6.05889 23.4259 3.94302 21.8515 2.45387 19.7384C0.913025 17.627 0.0921957 15.0633 0.115727 12.4359C0.0990509 10.2427 0.666779 8.08569 1.75885 6.19309C2.82871 4.31406 4.36653 2.75355 6.21809 1.66803C8.0826 0.559786 10.2076 -0.0164188 12.3682 0.000362382ZM4.75792 17.8604C4.78979 17.7849 4.75257 17.7202 4.64627 17.6664C4.53996 17.634 4.47075 17.6449 4.43862 17.699C4.40676 17.7745 4.44398 17.8392 4.55028 17.893C4.64614 17.958 4.71535 17.9471 4.75792 17.8604ZM5.25274 18.4107C5.32718 18.3577 5.31647 18.2713 5.22061 18.1515C5.11431 18.0542 5.02917 18.038 4.96517 18.103C4.89074 18.156 4.90144 18.2424 4.9973 18.3622C5.1036 18.4704 5.18875 18.4865 5.25274 18.4107ZM5.7311 19.1396C5.82696 19.064 5.82696 18.9616 5.7311 18.8322C5.6457 18.6917 5.55546 18.6593 5.46038 18.7348C5.36453 18.7878 5.36453 18.885 5.46038 19.0263C5.55624 19.1676 5.64661 19.2055 5.73149 19.14L5.7311 19.1396ZM6.40105 19.8195C6.48645 19.7329 6.46517 19.6304 6.33719 19.5122C6.20973 19.3828 6.10329 19.3666 6.01789 19.4637C5.92203 19.5504 5.94332 19.6528 6.08175 19.771C6.20947 19.9007 6.3159 19.9168 6.40105 19.8195ZM7.31037 20.2243C7.34223 20.1056 7.27302 20.0192 7.10272 19.9651C6.94288 19.9219 6.84193 19.9596 6.79988 20.0784C6.75783 20.1972 6.82704 20.2783 7.00752 20.3218C7.16737 20.3867 7.26832 20.3542 7.31037 20.2243ZM8.31567 20.3039C8.31567 20.1634 8.22543 20.104 8.04495 20.1257C7.87466 20.1257 7.78951 20.1851 7.78951 20.3039C7.78951 20.4444 7.87975 20.5037 8.06023 20.482C8.23079 20.4831 8.31607 20.4242 8.31607 20.3055L8.31567 20.3039ZM9.24067 20.142C9.21925 20.0233 9.12352 19.9746 8.95349 19.9961C8.7832 20.0284 8.70876 20.1096 8.73018 20.2394C8.75159 20.3693 8.84732 20.4127 9.01735 20.3695C9.18764 20.3263 9.26208 20.2507 9.24067 20.1428V20.142Z" fill="white"/>
</svg>
