<svg width="577" height="328" viewBox="0 0 577 328" fill="none" xmlns="http://www.w3.org/2000/svg">
<path d="M80.2076 0.564063C74.1886 0.564063 69.3092 5.44347 69.3092 11.4625L69.3092 300.149C69.3092 306.168 74.1886 311.047 80.2076 311.047L496.789 311.047C502.808 311.047 507.687 306.168 507.687 300.149V11.4625C507.687 5.44345 502.808 0.564063 496.789 0.564063L80.2076 0.564063Z" fill="url(#paint0_linear_112_1917)"/>
<path d="M80.2076 0.564063C74.1886 0.564063 69.3092 5.44347 69.3092 11.4625L69.3092 300.149C69.3092 306.168 74.1886 311.047 80.2076 311.047L496.789 311.047C502.808 311.047 507.687 306.168 507.687 300.149V11.4625C507.687 5.44345 502.808 0.564063 496.789 0.564063L80.2076 0.564063Z" fill="url(#paint1_linear_112_1917)"/>
<path d="M80.2076 0.564063C74.1886 0.564063 69.3092 5.44347 69.3092 11.4625L69.3092 300.149C69.3092 306.168 74.1886 311.047 80.2076 311.047L496.789 311.047C502.808 311.047 507.687 306.168 507.687 300.149V11.4625C507.687 5.44345 502.808 0.564063 496.789 0.564063L80.2076 0.564063Z" stroke="#333333" stroke-width="0.871874"/>
<path d="M498.712 290.227H499.148V289.792V13.8245C499.148 10.6946 496.611 8.15732 493.481 8.15732L83.5144 8.15732C80.3845 8.15732 77.8473 10.6946 77.8473 13.8245L77.8473 289.792V290.227H78.2832L498.712 290.227Z" fill="black" stroke="#444444" stroke-width="0.871874"/>
<path d="M0.624023 306.441L576.37 306.441V316.785C576.37 319.076 574.88 321.101 572.682 321.747C569.812 322.591 565.814 323.72 562.748 324.412C556.734 325.768 532.795 327.039 532.795 327.039L48.5777 327.039C48.0989 327.039 47.6333 327.043 47.1545 327.047C43.3471 327.076 24.9727 327.071 13.0833 324.395C10.3739 323.786 6.87497 322.784 4.27507 322.006C2.09408 321.353 0.624023 319.338 0.624023 317.061L0.624023 306.441Z" fill="url(#paint2_linear_112_1917)"/>
<path d="M0.624023 306.441L576.37 306.441V316.785C576.37 319.076 574.88 321.101 572.682 321.747C569.812 322.591 565.814 323.72 562.748 324.412C556.734 325.768 532.795 327.039 532.795 327.039L48.5777 327.039C48.0989 327.039 47.6333 327.043 47.1545 327.047C43.3471 327.076 24.9727 327.071 13.0833 324.395C10.3739 323.786 6.87497 322.784 4.27507 322.006C2.09408 321.353 0.624023 319.338 0.624023 317.061L0.624023 306.441Z" fill="url(#paint3_linear_112_1917)" fill-opacity="0.3"/>
<path d="M245.071 307.566H331.922C331.922 312.958 327.551 317.329 322.159 317.329H254.834C249.442 317.329 245.071 312.958 245.071 307.566Z" fill="#C4C4C4"/>
<path d="M245.071 307.566H331.922C331.922 312.958 327.551 317.329 322.159 317.329H254.834C249.442 317.329 245.071 312.958 245.071 307.566Z" fill="url(#paint4_linear_112_1917)"/>
<path d="M245.071 307.566H331.922C331.922 312.958 327.551 317.329 322.159 317.329H254.834C249.442 317.329 245.071 312.958 245.071 307.566Z" fill="url(#paint5_linear_112_1917)"/>
<defs>
<linearGradient id="paint0_linear_112_1917" x1="69.7451" y1="1" x2="514.019" y2="300.575" gradientUnits="userSpaceOnUse">
<stop stop-color="#333333"/>
<stop offset="0.53125" stop-color="#596368"/>
<stop offset="1" stop-color="#333333"/>
</linearGradient>
<linearGradient id="paint1_linear_112_1917" x1="288.498" y1="1" x2="288.498" y2="319.224" gradientUnits="userSpaceOnUse">
<stop offset="0.6875" stop-opacity="0.4"/>
<stop offset="0.883584" stop-color="#333333" stop-opacity="0.643"/>
<stop offset="1" stop-opacity="0.94"/>
</linearGradient>
<linearGradient id="paint2_linear_112_1917" x1="576.37" y1="306.441" x2="0.624023" y2="306.441" gradientUnits="userSpaceOnUse">
<stop stop-color="#212121"/>
<stop offset="0.5" stop-color="#555555"/>
<stop offset="1" stop-color="#212121"/>
</linearGradient>
<linearGradient id="paint3_linear_112_1917" x1="288.497" y1="306.441" x2="288.497" y2="327.052" gradientUnits="userSpaceOnUse">
<stop stop-color="#666666"/>
<stop offset="0.5" stop-color="#666666"/>
<stop offset="0.541667" stop-opacity="0.5"/>
<stop offset="1"/>
</linearGradient>
<linearGradient id="paint4_linear_112_1917" x1="288.497" y1="307.566" x2="288.497" y2="317.329" gradientUnits="userSpaceOnUse">
<stop stop-color="#999999"/>
<stop offset="0.151042" stop-color="#777777"/>
<stop offset="0.609375" stop-color="#444444"/>
<stop offset="0.822917" stop-color="#333333"/>
<stop offset="1" stop-color="#222222"/>
</linearGradient>
<linearGradient id="paint5_linear_112_1917" x1="245.071" y1="307.566" x2="331.922" y2="307.566" gradientUnits="userSpaceOnUse">
<stop stop-color="#333333"/>
<stop offset="0.130208" stop-color="#333333" stop-opacity="0.42"/>
<stop offset="0.932292" stop-color="#333333" stop-opacity="0.118947"/>
<stop offset="1" stop-color="#333333" stop-opacity="0.83"/>
</linearGradient>
</defs>
</svg>
