<svg width="25" height="25" viewBox="0 0 25 25" fill="none" xmlns="http://www.w3.org/2000/svg">
<path d="M5.46088 0.000488281C4.21954 0.00426478 3.03012 0.50645 2.1524 1.39736C1.27468 2.28827 0.779984 3.4955 0.776367 4.75537V19.5103C0.780192 20.7701 1.27504 21.9771 2.15284 22.8678C3.03063 23.7585 4.22004 24.2604 5.46127 24.264H19.999C21.2401 24.2603 22.4293 23.7583 23.3069 22.8676C24.1845 21.9769 24.6791 20.7699 24.6828 19.5103V4.75537C24.6791 3.49564 24.1846 2.28852 23.307 1.39764C22.4295 0.506752 21.2402 0.00447445 19.999 0.000488281H5.46088ZM6.63935 4.00425C6.89753 3.98428 7.157 4.01875 7.40143 4.10548C7.64585 4.19221 7.86995 4.32933 8.05964 4.50822C8.24933 4.68711 8.4005 4.90389 8.50364 5.14495C8.60678 5.386 8.65967 5.6461 8.65897 5.90891C8.65897 6.96701 7.87541 7.81317 6.61545 7.81317H6.59234C6.33589 7.83078 6.07863 7.79452 5.83662 7.70664C5.59461 7.61876 5.37307 7.48116 5.18584 7.30244C4.9986 7.12372 4.84971 6.90772 4.74846 6.66794C4.64721 6.42817 4.59578 6.16977 4.59739 5.90891C4.59739 4.82735 5.40446 4.00425 6.63974 4.00425H6.63935ZM17.2844 9.06094C19.6601 9.06094 21.4408 10.6368 21.4408 14.0238V20.3461H17.8305V14.4477C17.8305 12.9657 17.3083 11.9541 16.0017 11.9541C15.5946 11.9566 15.1981 12.0867 14.8665 12.3264C14.5349 12.5662 14.2843 12.904 14.149 13.2937C14.0567 13.5821 14.0169 13.8851 14.0314 14.188V20.3457H10.4188C10.4188 20.3457 10.4659 10.354 10.4188 9.3198H14.0295V10.8813C14.3565 10.3054 14.8327 9.83145 15.4063 9.51088C15.98 9.19031 16.6293 9.03539 17.2836 9.06292L17.2844 9.06094ZM4.80895 9.32059H8.4192V20.3457H4.80895V9.32059Z" fill="white"/>
</svg>
