<svg width="24" height="25" viewBox="0 0 24 25" fill="none" xmlns="http://www.w3.org/2000/svg">
<path fill-rule="evenodd" clip-rule="evenodd" d="M4.34679 0.000488281C3.19411 0.00101515 2.08879 0.46599 1.27372 1.29324C0.45865 2.12048 0.000519109 3.24232 0 4.41222V19.8523C0.000519109 21.0222 0.45865 22.144 1.27372 22.9713C2.08879 23.7985 3.19411 24.2635 4.34679 24.264H19.5596C20.7123 24.2635 21.8176 23.7985 22.6327 22.9713C23.4477 22.144 23.9059 21.0222 23.9064 19.8523V4.41222C23.9059 3.24232 23.4477 2.12048 22.6327 1.29324C21.8176 0.46599 20.7123 0.00101515 19.5596 0.000488281H4.34679ZM19.5596 2.20615H4.34679C3.77043 2.20615 3.21766 2.43854 2.81011 2.85218C2.40255 3.26582 2.17359 3.82684 2.17359 4.41182V19.8523C2.17359 20.4373 2.40255 20.9983 2.81011 21.4119C3.21766 21.8256 3.77043 22.0579 4.34679 22.0579H19.5596C20.136 22.0579 20.6887 21.8256 21.0963 21.4119C21.5038 20.9983 21.7328 20.4373 21.7328 19.8523V4.41222C21.7328 4.12253 21.6767 3.83567 21.5675 3.56802C21.4583 3.30037 21.2982 3.05718 21.0964 2.85232C20.8946 2.64746 20.655 2.48496 20.3913 2.37409C20.1276 2.26322 19.845 2.20615 19.5596 2.20615Z" fill="white"/>
</svg>
