<svg width="139" height="125" viewBox="0 0 139 125" fill="none" xmlns="http://www.w3.org/2000/svg">
<path d="M19.1943 44.8878L47.5394 20.203L84.7558 25.4676L56.4108 50.1524L19.1943 44.8878Z" fill="url(#paint0_linear_115_1998)"/>
<path d="M96.5615 66.2686L84.7688 25.6385L84.7028 25.4156L56.3628 50.0535L68.4186 90.7531L96.5615 66.2686Z" fill="url(#paint1_linear_115_1998)"/>
<path d="M31.467 85.5018L19.2285 45.0037L19.1625 44.7809L56.3491 50.0089L68.4049 90.7085L31.467 85.5018Z" fill="url(#paint2_linear_115_1998)"/>
<path d="M-8.98926 69.237L19.3558 44.5522L56.5722 49.8168L28.2272 74.5016L-8.98926 69.237Z" fill="url(#paint3_linear_115_1998)"/>
<path d="M68.378 90.6179L56.5852 49.9877L56.5192 49.7649L28.1792 74.4027L40.235 115.102L68.378 90.6179Z" fill="url(#paint4_linear_115_1998)"/>
<path d="M3.28341 109.851L-8.95511 69.353L-9.02113 69.1301L28.1655 74.3581L40.2213 115.058L3.28341 109.851Z" fill="url(#paint5_linear_115_1998)"/>
<path d="M56.0898 49.9594L84.4349 25.2746L121.651 30.5392L93.3063 55.224L56.0898 49.9594Z" fill="url(#paint6_linear_115_1998)"/>
<path d="M133.457 71.3403L121.664 30.7101L121.598 30.4873L93.2583 55.1251L105.314 95.8248L133.457 71.3403Z" fill="url(#paint7_linear_115_1998)"/>
<path d="M68.3625 90.5735L56.124 50.0754L56.058 49.8525L93.2446 55.0805L105.3 95.7802L68.3625 90.5735Z" fill="url(#paint8_linear_115_1998)"/>
<defs>
<linearGradient id="paint0_linear_115_1998" x1="46.7617" y1="16.8233" x2="58.1172" y2="55.1586" gradientUnits="userSpaceOnUse">
<stop stop-color="#17C3B7"/>
<stop offset="1" stop-color="#17C3B7" stop-opacity="0.35"/>
</linearGradient>
<linearGradient id="paint1_linear_115_1998" x1="64.3938" y1="17.4189" x2="92.1222" y2="111.028" gradientUnits="userSpaceOnUse">
<stop stop-color="#096760"/>
<stop offset="1" stop-color="#17C3B7"/>
</linearGradient>
<linearGradient id="paint2_linear_115_1998" x1="22.9962" y1="19.2563" x2="37.6745" y2="107.276" gradientUnits="userSpaceOnUse">
<stop stop-color="#17C3B7" stop-opacity="0"/>
<stop offset="1" stop-color="#096760"/>
</linearGradient>
<linearGradient id="paint3_linear_115_1998" x1="18.5781" y1="41.1725" x2="29.9336" y2="79.5078" gradientUnits="userSpaceOnUse">
<stop stop-color="#17C3B7"/>
<stop offset="1" stop-color="#17C3B7" stop-opacity="0.35"/>
</linearGradient>
<linearGradient id="paint4_linear_115_1998" x1="36.2102" y1="41.7681" x2="63.9386" y2="135.378" gradientUnits="userSpaceOnUse">
<stop stop-color="#096760"/>
<stop offset="1" stop-color="#17C3B7"/>
</linearGradient>
<linearGradient id="paint5_linear_115_1998" x1="-5.18737" y1="43.6056" x2="9.4909" y2="131.626" gradientUnits="userSpaceOnUse">
<stop stop-color="#17C3B7" stop-opacity="0"/>
<stop offset="1" stop-color="#096760"/>
</linearGradient>
<linearGradient id="paint6_linear_115_1998" x1="83.6572" y1="21.8949" x2="95.0127" y2="60.2302" gradientUnits="userSpaceOnUse">
<stop stop-color="#17C3B7"/>
<stop offset="1" stop-color="#17C3B7" stop-opacity="0.35"/>
</linearGradient>
<linearGradient id="paint7_linear_115_1998" x1="101.289" y1="22.4906" x2="129.018" y2="116.1" gradientUnits="userSpaceOnUse">
<stop stop-color="#096760"/>
<stop offset="1" stop-color="#17C3B7"/>
</linearGradient>
<linearGradient id="paint8_linear_115_1998" x1="59.8917" y1="24.328" x2="74.57" y2="112.348" gradientUnits="userSpaceOnUse">
<stop stop-color="#17C3B7" stop-opacity="0"/>
<stop offset="1" stop-color="#096760"/>
</linearGradient>
</defs>
</svg>
