<svg width="19" height="19" viewBox="0 0 19 19" fill="none" xmlns="http://www.w3.org/2000/svg">
<path d="M9.05947 17.1203C8.82884 17.1203 8.6144 17.0603 8.41412 16.9564L6.37151 15.7844C6.06468 15.6212 6.21843 15.5619 6.31081 15.5322C6.72487 15.3987 6.80174 15.369 7.23198 15.131C7.27783 15.1013 7.33988 15.1161 7.38573 15.1458L8.95225 16.0515C9.01294 16.0811 9.09049 16.0811 9.13635 16.0515L15.2642 12.6231C15.3249 12.5934 15.3559 12.534 15.3559 12.4599V5.61789C15.3559 5.54371 15.3256 5.48437 15.2642 5.45469L9.13635 2.0418C9.07498 2.01213 8.99811 2.01213 8.95225 2.0418L2.82441 5.45469C2.76305 5.48437 2.73203 5.55854 2.73203 5.61789V12.4599C2.73203 12.5192 2.76305 12.5934 2.82441 12.6231L4.49816 13.5584C5.40449 14.0035 5.97229 13.4842 5.97229 12.965V6.21199C5.97229 6.12298 6.04917 6.03396 6.15706 6.03396H6.93998C7.03237 6.03396 7.12408 6.10814 7.12408 6.21199V12.9643C7.12408 14.137 6.46389 14.8194 5.3121 14.8194C4.95874 14.8194 4.68225 14.8194 3.89933 14.4485L2.28696 13.5584C2.09266 13.4515 1.93042 13.2948 1.81696 13.1043C1.70351 12.9138 1.64298 12.6964 1.6416 12.4747V5.63272C1.6416 5.18765 1.88707 4.77225 2.28696 4.54971L8.41479 1.12063C8.61429 1.01833 8.83527 0.964966 9.05947 0.964966C9.28367 0.964966 9.50466 1.01833 9.70415 1.12063L15.8327 4.54904C16.2319 4.77158 16.4773 5.18698 16.4773 5.63205V12.474C16.4773 12.9191 16.2319 13.3345 15.8327 13.5577L9.70415 16.9854C9.50068 17.0736 9.28124 17.1191 9.05947 17.119V17.1203ZM10.9483 12.4154C8.26104 12.4154 7.70807 11.2285 7.70807 10.219C7.70807 10.13 7.78495 10.041 7.89217 10.041H8.6906C8.78299 10.041 8.85919 10.1003 8.85919 10.1893C8.9826 10.9756 9.33596 11.3613 10.9638 11.3613C12.2539 11.3613 12.8068 11.0795 12.8068 10.4119C12.8068 10.0261 12.6531 9.74425 10.6415 9.55138C8.96709 9.38751 7.92319 9.03213 7.92319 7.74075C7.92319 6.53838 8.96709 5.82559 10.7184 5.82559C12.6841 5.82559 13.6518 6.47903 13.7745 7.90394C13.7732 7.95218 13.7569 7.99882 13.728 8.03746C13.6977 8.06713 13.6518 8.0968 13.6053 8.0968H12.8068C12.7681 8.09587 12.7306 8.08233 12.7002 8.05824C12.6698 8.03415 12.6481 8.00082 12.6383 7.96328C12.4535 7.14732 11.9774 6.8796 10.7184 6.8796C9.30494 6.8796 9.13635 7.35434 9.13635 7.7104C9.13635 8.14131 9.33596 8.27483 11.2403 8.51221C13.1292 8.74958 14.02 9.0908 14.02 10.3667C14.0045 11.6736 12.8992 12.4154 10.9483 12.4154Z" fill="#38D8CC"/>
</svg>
