<svg width="189" height="174" viewBox="0 0 189 174" fill="none" xmlns="http://www.w3.org/2000/svg">
<g opacity="0.9">
<path d="M53.1943 68.8871L81.5394 44.2023L118.756 49.4669L90.4108 74.1517L53.1943 68.8871Z" fill="url(#paint0_linear_115_2813)"/>
<path d="M130.562 90.2681L118.769 49.6379L118.703 49.4151L90.3628 74.0529L102.419 114.753L130.562 90.2681Z" fill="url(#paint1_linear_115_2813)"/>
<path d="M65.467 109.501L53.2285 69.0031L53.1625 68.7803L90.3491 74.0083L102.405 114.708L65.467 109.501Z" fill="url(#paint2_linear_115_2813)"/>
<path d="M25.0107 93.2363L53.3558 68.5515L90.5722 73.8161L62.2272 98.5009L25.0107 93.2363Z" fill="url(#paint3_linear_115_2813)"/>
<path d="M102.378 114.617L90.5852 73.9872L90.5192 73.7643L62.1792 98.4022L74.235 139.102L102.378 114.617Z" fill="url(#paint4_linear_115_2813)"/>
<path d="M37.2834 133.85L25.0449 93.3524L24.9789 93.1295L62.1655 98.3575L74.2213 139.057L37.2834 133.85Z" fill="url(#paint5_linear_115_2813)"/>
<path d="M90.0898 73.9587L118.435 49.2739L155.651 54.5385L127.306 79.2233L90.0898 73.9587Z" fill="url(#paint6_linear_115_2813)"/>
<path d="M167.457 95.3397L155.664 54.7096L155.598 54.4867L127.258 79.1246L139.314 119.824L167.457 95.3397Z" fill="url(#paint7_linear_115_2813)"/>
<path d="M102.363 114.573L90.124 74.0748L90.058 73.8519L127.245 79.0799L139.3 119.78L102.363 114.573Z" fill="url(#paint8_linear_115_2813)"/>
</g>
<defs>
<linearGradient id="paint0_linear_115_2813" x1="80.7617" y1="40.8226" x2="92.1172" y2="79.1579" gradientUnits="userSpaceOnUse">
<stop stop-color="#17C3B7"/>
<stop offset="1" stop-color="#17C3B7" stop-opacity="0.35"/>
</linearGradient>
<linearGradient id="paint1_linear_115_2813" x1="98.3938" y1="41.4183" x2="126.122" y2="135.028" gradientUnits="userSpaceOnUse">
<stop stop-color="#096760"/>
<stop offset="1" stop-color="#17C3B7"/>
</linearGradient>
<linearGradient id="paint2_linear_115_2813" x1="56.9962" y1="43.2557" x2="71.6745" y2="131.276" gradientUnits="userSpaceOnUse">
<stop stop-color="#17C3B7" stop-opacity="0"/>
<stop offset="1" stop-color="#096760"/>
</linearGradient>
<linearGradient id="paint3_linear_115_2813" x1="52.5781" y1="65.1718" x2="63.9336" y2="103.507" gradientUnits="userSpaceOnUse">
<stop stop-color="#17C3B7"/>
<stop offset="1" stop-color="#17C3B7" stop-opacity="0.35"/>
</linearGradient>
<linearGradient id="paint4_linear_115_2813" x1="70.2102" y1="65.7676" x2="97.9386" y2="159.377" gradientUnits="userSpaceOnUse">
<stop stop-color="#096760"/>
<stop offset="1" stop-color="#17C3B7"/>
</linearGradient>
<linearGradient id="paint5_linear_115_2813" x1="28.8126" y1="67.6049" x2="43.4909" y2="155.625" gradientUnits="userSpaceOnUse">
<stop stop-color="#17C3B7" stop-opacity="0"/>
<stop offset="1" stop-color="#096760"/>
</linearGradient>
<linearGradient id="paint6_linear_115_2813" x1="117.657" y1="45.8942" x2="129.013" y2="84.2295" gradientUnits="userSpaceOnUse">
<stop stop-color="#17C3B7"/>
<stop offset="1" stop-color="#17C3B7" stop-opacity="0.35"/>
</linearGradient>
<linearGradient id="paint7_linear_115_2813" x1="135.289" y1="46.49" x2="163.018" y2="140.099" gradientUnits="userSpaceOnUse">
<stop stop-color="#096760"/>
<stop offset="1" stop-color="#17C3B7"/>
</linearGradient>
<linearGradient id="paint8_linear_115_2813" x1="93.8917" y1="48.3274" x2="108.57" y2="136.347" gradientUnits="userSpaceOnUse">
<stop stop-color="#17C3B7" stop-opacity="0"/>
<stop offset="1" stop-color="#096760"/>
</linearGradient>
</defs>
</svg>
