<svg width="512" height="512" viewBox="0 0 512 512" fill="none" xmlns="http://www.w3.org/2000/svg">
<rect width="512" height="512" rx="114" fill="#323443"/>
<path d="M404.999 196.323L247.513 107.151C241.657 103.929 235.1 102.169 228.407 102.022C221.714 101.875 215.085 103.346 209.091 106.309C203.097 109.271 197.917 113.637 193.997 119.029C190.077 124.421 187.534 130.679 186.586 137.264L133.398 107.151C127.101 103.683 120.002 101.909 112.804 102.004C105.606 102.098 98.5568 104.059 92.3549 107.691C86.1529 111.323 81.0127 116.501 77.4427 122.713C73.8727 128.925 71.9966 135.955 72 143.109V369.89C71.9964 377.057 73.8792 384.1 77.4616 390.32C81.044 396.54 86.2014 401.721 92.4217 405.348C98.642 408.976 105.709 410.923 112.921 410.998C120.133 411.072 127.239 409.271 133.534 405.773L186.586 375.739C187.536 382.337 190.088 388.606 194.021 394.005C197.954 399.403 203.151 403.77 209.162 406.727C215.174 409.683 221.819 411.142 228.525 410.975C235.23 410.809 241.794 409.024 247.65 405.773L405.074 316.645C415.7 310.542 424.522 301.767 430.653 291.202C436.784 280.637 440.008 268.654 440 256.458C439.992 244.263 436.754 232.284 430.61 221.726C424.466 211.169 415.633 202.404 404.999 196.315V196.323ZM120.926 383.581C118.609 384.864 115.999 385.532 113.347 385.522C109.184 385.517 105.193 383.872 102.25 380.947C99.3067 378.022 97.6512 374.057 97.6465 369.921V143.139C97.6512 139.004 99.3068 135.038 102.25 132.114C105.194 129.19 109.185 127.546 113.347 127.543C115.959 127.523 118.534 128.167 120.825 129.414L186.12 166.381V346.692L120.926 383.581ZM211.767 180.902L278.095 218.459C284.815 222.314 290.396 227.856 294.279 234.531C298.162 241.206 300.21 248.778 300.217 256.488C300.224 264.198 298.19 271.774 294.32 278.456C290.449 285.138 284.878 290.691 278.166 294.557L211.767 332.149V180.902ZM392.277 294.553L235.046 383.576C232.728 384.86 230.116 385.528 227.462 385.517C223.301 385.511 219.311 383.866 216.369 380.941C213.426 378.017 211.771 374.052 211.767 369.916V361.502L290.949 316.671C301.577 310.569 310.4 301.794 316.532 291.229C322.663 280.664 325.887 268.681 325.88 256.485C325.872 244.288 322.633 232.309 316.488 221.751C310.343 211.194 301.51 202.43 290.875 196.341L211.771 151.554V143.135C211.776 139 213.431 135.036 216.373 132.112C219.316 129.188 223.305 127.543 227.467 127.539C230.079 127.519 232.653 128.163 234.945 129.409L392.229 218.464C398.949 222.317 404.53 227.86 408.413 234.534C412.296 241.209 414.343 248.781 414.351 256.49C414.358 264.2 412.324 271.775 408.453 278.457C404.583 285.139 399.012 290.691 392.299 294.557L392.277 294.553Z" fill="#20CA86"/>
</svg>
