<svg width="93" height="40" viewBox="0 0 93 40" fill="none" xmlns="http://www.w3.org/2000/svg">
<g clip-path="url(#clip0_4196_2076)">
<path d="M73.0103 15.153C71.5819 14.1102 70.1667 13.1841 68.491 12.7348C69.9562 13.5797 71.1926 14.6657 72.2606 16.0673C68.3345 16.5258 65.0923 17.9707 63.1746 21.5142C61.9014 20.8461 60.5966 20.288 59.3379 19.6278C59.3537 19.5938 59.3221 19.6619 59.3379 19.6278C60.427 20.5068 61.5147 21.3858 62.6853 22.3303C61.5213 22.5844 60.548 22.7233 59.622 23.0115C56.8218 23.8826 54.5752 25.5908 52.6733 27.7706C49.756 31.1137 48.0028 35.0658 46.6888 39.242C46.6256 39.4411 46.5559 39.639 46.4362 39.9992C46.1798 39.2171 45.9838 38.5857 45.7668 37.9609C44.3607 33.9026 42.5049 30.0932 39.46 26.9728C37.2726 24.7302 34.7065 23.132 31.559 22.5897C31.3657 22.5569 31.1684 22.5386 30.9724 22.5189C30.7817 22.4993 30.591 22.4875 30.2648 22.46C31.2644 21.2849 32.264 20.2435 33.5504 19.582C33.5793 19.6318 33.5214 19.5322 33.5504 19.582C32.9006 19.8715 32.2364 20.1322 31.6064 20.4583C30.9869 20.7806 30.4016 21.1684 29.7373 21.5653C27.817 18.0074 24.5788 16.5219 20.604 16.0699C21.6773 14.6735 22.9084 13.5692 24.3946 12.7334C22.7163 13.167 21.309 14.1024 19.9108 15.1137C19.5478 14.6552 19.2282 14.1888 18.8468 13.7801C17.4604 12.2985 15.6888 11.4588 13.7882 10.8615C10.0633 9.693 6.22263 9.46899 2.35042 9.52925C1.6349 9.53973 0.918071 9.53056 0 9.53056C1.55336 8.45638 2.95151 7.42937 4.40885 6.49274C8.95974 3.56888 13.8263 1.38254 19.2019 0.466865C25.6481 -0.629581 31.8116 0.152472 37.5909 3.33308C38.0487 3.5846 38.4801 3.88327 38.9128 4.15313C38.5853 5.188 38.2144 6.16393 37.9711 7.1713C37.2029 10.3572 38.3012 13.1867 40.9199 14.7875C41.0725 14.2334 41.1922 13.6871 41.375 13.1631C41.6986 12.2383 42.0419 11.32 42.418 10.4161C42.5404 10.124 42.76 9.85019 42.9915 9.62881C43.4584 9.1808 44.0424 9.35633 44.0674 9.99298C44.095 10.6781 44.0201 11.3907 43.8478 12.0549C43.5742 13.1055 43.1809 14.1246 42.8218 15.2054C45.2143 13.298 47.6147 13.2732 50.1125 15.2709C49.9454 14.8268 49.7902 14.4901 49.6903 14.1377C49.3693 13.0085 49.0537 11.8767 48.7722 10.737C48.7064 10.4737 48.7406 10.1659 48.8038 9.89604C48.9235 9.37598 49.4193 9.19652 49.7981 9.57117C50.1322 9.90128 50.4426 10.3087 50.6083 10.741C51.0516 11.9003 51.4107 13.0898 51.8026 14.2687C51.8565 14.4299 51.8986 14.5936 51.9499 14.7665C54.7476 13.0557 56.3798 9.72444 53.9137 4.22255C54.1636 4.04833 54.4161 3.84921 54.6884 3.68416C58.1002 1.61702 61.8225 0.490445 65.7828 0.131512C72.8643 -0.509064 79.3553 1.40088 85.5042 4.73344C88.0428 6.10891 90.43 7.71232 92.766 9.53187C91.9702 9.53187 91.2613 9.54235 90.551 9.53056C86.8116 9.46768 83.0933 9.65632 79.4921 10.7528C78.3083 11.113 77.1587 11.6318 76.0552 12.199C74.7768 12.8553 73.7548 13.8456 73.0103 15.153ZM47.745 23.9717C47.7094 23.9704 47.7805 23.973 47.745 23.9717C47.6884 23.639 47.6147 23.2263 47.5477 22.832C46.7848 23.3193 46.0588 23.2604 45.3077 22.849C45.2512 23.2289 45.2038 23.5551 45.1315 24.0477C45.3367 23.7516 45.4445 23.597 45.5879 23.3888C45.6852 23.5826 45.7576 23.728 45.8509 23.9154C45.9272 23.8001 45.9983 23.6927 46.0732 23.5787C46.2284 23.7398 46.3389 23.8551 46.4862 24.0084C46.6349 23.6075 46.8164 23.4949 47.0255 23.88C47.1215 23.711 47.1978 23.5774 47.303 23.3914C47.4372 23.601 47.6529 23.8302 47.745 23.9717ZM47.6213 20.2802C47.9475 21.2103 48.4105 21.3675 49.0576 20.7662C49.4246 20.4243 49.7126 19.9985 50.0362 19.6108C49.2391 19.9854 48.6407 20.7387 47.6213 20.2802ZM42.856 19.6134C43.0638 19.8885 43.2638 20.1715 43.4834 20.4374C43.6071 20.588 43.7504 20.7282 43.9043 20.8461C44.5633 21.3531 45.0394 21.1474 45.1828 20.3011C44.2003 20.7243 43.6215 19.9697 42.856 19.6134Z" fill="#EBEBE8"/>
</g>
<defs>
<clipPath id="clip0_4196_2076">
<rect width="92.766" height="40" fill="white"/>
</clipPath>
</defs>
</svg>
