<svg width="19" height="19" viewBox="0 0 19 19" fill="none" xmlns="http://www.w3.org/2000/svg">
<path d="M15.3696 5.96464C15.5053 5.96548 15.6025 5.83368 15.5615 5.70425L14.1157 1.14011C14.0894 1.05699 14.0123 1.0005 13.9251 1.0005H4.03638C3.9489 1.0005 3.87158 1.05735 3.84548 1.14084L2.33739 5.96635C1.43642 8.84126 2.35839 12.1017 4.88181 13.9766L8.8774 16.9127C8.94803 16.9646 9.04424 16.9645 9.11472 16.9124L13.1001 13.9661C15.5249 12.1493 16.4949 9.0415 15.7239 6.22528C15.6876 6.09268 15.5294 6.04138 15.419 6.12338L11.6517 8.92295C11.5834 8.97372 11.5547 9.06218 11.5802 9.14339L12.9122 13.3861C12.9703 13.5713 12.7572 13.7224 12.6017 13.6063L9.11311 11.0009C9.04225 10.948 8.94505 10.9479 8.87408 11.0006L5.38701 13.5938C5.23122 13.7097 5.01835 13.558 5.077 13.3729L6.41695 9.14493C6.44284 9.06322 6.4138 8.9741 6.34473 8.92334L2.82174 6.33426C2.66657 6.22023 2.74638 5.9743 2.93894 5.97311L7.27842 5.94625C7.36507 5.94571 7.44152 5.88944 7.46778 5.80687L8.80614 1.59906C8.86525 1.41323 9.12818 1.41321 9.18732 1.59903L10.5231 5.7964C10.5494 5.87896 10.6258 5.93521 10.7124 5.93575L15.3696 5.96464Z" fill="#38D8CC"/>
</svg>
