<svg width="19" height="19" viewBox="0 0 19 19" fill="none" xmlns="http://www.w3.org/2000/svg">
<path d="M9.06003 2.26501H6.79503C6.19431 2.26501 5.6182 2.50365 5.19343 2.92842C4.76866 3.35319 4.53003 3.9293 4.53003 4.53001C4.53003 5.13073 4.76866 5.70684 5.19343 6.13161C5.6182 6.55638 6.19431 6.79501 6.79503 6.79501H9.06003M9.06003 2.26501V6.79501M9.06003 2.26501H11.325C11.9257 2.26501 12.5019 2.50365 12.9266 2.92842C13.3514 3.35319 13.59 3.9293 13.59 4.53001C13.59 5.13073 13.3514 5.70684 12.9266 6.13161C12.5019 6.55638 11.9257 6.79501 11.325 6.79501H9.06003" stroke="#38D8CC" stroke-width="1.125" stroke-linecap="round" stroke-linejoin="round"/>
<path d="M6.79503 11.325C6.19431 11.325 5.6182 11.5637 5.19343 11.9884C4.76866 12.4132 4.53003 12.9893 4.53003 13.59C4.53003 14.1908 4.76866 14.7669 5.19343 15.1916C5.6182 15.6164 6.19431 15.855 6.79503 15.855C7.39574 15.855 7.97186 15.6164 8.39663 15.1916C8.8214 14.7669 9.06003 14.1908 9.06003 13.59V11.325M6.79503 11.325H9.06003M6.79503 11.325C6.19431 11.325 5.6182 11.0864 5.19343 10.6616C4.76866 10.2369 4.53003 9.66076 4.53003 9.06004C4.53003 8.45933 4.76866 7.88322 5.19343 7.45845C5.6182 7.03368 6.19431 6.79504 6.79503 6.79504H9.06003V11.325M9.06003 9.06004C9.06003 8.45933 9.29866 7.88322 9.72343 7.45845C10.1482 7.03368 10.7243 6.79504 11.325 6.79504C11.9257 6.79504 12.5019 7.03368 12.9266 7.45845C13.3514 7.88322 13.59 8.45933 13.59 9.06004C13.59 9.66076 13.3514 10.2369 12.9266 10.6616C12.5019 11.0864 11.9257 11.325 11.325 11.325C10.7243 11.325 10.1482 11.0864 9.72343 10.6616C9.29866 10.2369 9.06003 9.66076 9.06003 9.06004Z" stroke="#38D8CC" stroke-width="1.125" stroke-linecap="round" stroke-linejoin="round"/>
</svg>
