<svg width="53" height="51" viewBox="0 0 53 51" fill="none" xmlns="http://www.w3.org/2000/svg">
<g filter="url(#filter0_f_135_730)">
<path d="M17.8447 15.0432L30.4028 6.3956L45.1613 10.2266L32.6031 18.8742L17.8447 15.0432Z" fill="url(#paint0_linear_135_730)"/>
<path d="M48.0459 27.2137L45.1586 10.2961L45.1422 10.2032L32.5883 18.8321L35.5784 35.7898L48.0459 27.2137Z" fill="url(#paint1_linear_135_730)"/>
<path d="M20.9257 31.9764L17.8527 15.0916L17.8363 14.9987L32.5844 18.8136L35.5745 35.7713L20.9257 31.9764Z" fill="url(#paint2_linear_135_730)"/>
<path d="M5.21191 23.7812L17.77 15.1336L32.5284 18.9645L19.9703 27.6122L5.21191 23.7812Z" fill="url(#paint3_linear_135_730)"/>
<path d="M35.4131 35.9516L32.5258 19.034L32.5094 18.9412L19.9555 27.5701L22.9456 44.5278L35.4131 35.9516Z" fill="url(#paint4_linear_135_730)"/>
<path d="M8.29287 40.7144L5.21986 23.8296L5.20349 23.7367L19.9516 27.5515L22.9417 44.5093L8.29287 40.7144Z" fill="url(#paint5_linear_135_730)"/>
</g>
<defs>
<filter id="filter0_f_135_730" x="0.388168" y="0.274887" width="52.5596" height="50.3473" filterUnits="userSpaceOnUse" color-interpolation-filters="sRGB">
<feFlood flood-opacity="0" result="BackgroundImageFix"/>
<feBlend mode="normal" in="SourceGraphic" in2="BackgroundImageFix" result="shape"/>
<feGaussianBlur stdDeviation="1.86256" result="effect1_foregroundBlur_135_730"/>
</filter>
<linearGradient id="paint0_linear_135_730" x1="30.2446" y1="4.9977" x2="33.061" y2="20.9703" gradientUnits="userSpaceOnUse">
<stop stop-color="#65C9E7"/>
<stop offset="1" stop-color="#CCF6FB"/>
</linearGradient>
<linearGradient id="paint1_linear_135_730" x1="37.3239" y1="6.04747" x2="44.2011" y2="45.0503" gradientUnits="userSpaceOnUse">
<stop stop-color="#096760"/>
<stop offset="1" stop-color="#17C3B7" stop-opacity="0.81"/>
</linearGradient>
<linearGradient id="paint2_linear_135_730" x1="20.5536" y1="4.88704" x2="22.4277" y2="41.0378" gradientUnits="userSpaceOnUse">
<stop stop-color="#17C3B7" stop-opacity="0.6"/>
<stop offset="1" stop-color="#096760"/>
</linearGradient>
<linearGradient id="paint3_linear_135_730" x1="17.6118" y1="13.7357" x2="20.4282" y2="29.7083" gradientUnits="userSpaceOnUse">
<stop stop-color="#65C9E7"/>
<stop offset="1" stop-color="#CCF6FB"/>
</linearGradient>
<linearGradient id="paint4_linear_135_730" x1="24.691" y1="14.7854" x2="31.5683" y2="53.7883" gradientUnits="userSpaceOnUse">
<stop stop-color="#096760"/>
<stop offset="1" stop-color="#17C3B7" stop-opacity="0.81"/>
</linearGradient>
<linearGradient id="paint5_linear_135_730" x1="7.92084" y1="13.625" x2="9.79488" y2="49.7758" gradientUnits="userSpaceOnUse">
<stop stop-color="#17C3B7" stop-opacity="0.6"/>
<stop offset="1" stop-color="#096760"/>
</linearGradient>
</defs>
</svg>
