<svg width="141" height="142" viewBox="0 0 141 142" fill="none" xmlns="http://www.w3.org/2000/svg">
<path fill-rule="evenodd" clip-rule="evenodd" d="M62.16 140.686C55.4579 139.929 49.054 138.232 42.9481 135.596C34.382 131.902 26.9306 126.887 20.594 120.55C14.2574 114.213 9.24206 106.762 5.54805 98.1958C1.84935 89.6297 0 80.4768 0 70.7372C0 60.8803 2.1122 51.258 6.33661 41.8704C10.561 32.4829 16.4587 24.3861 24.0298 17.5801C31.5962 10.7741 40.5731 5.787 50.9604 2.6187C61.343 -0.549603 72.6949 -0.842965 85.0161 1.73862C83.96 7.01912 84.3121 11.9758 86.0722 16.6085C87.8324 21.246 90.4726 25.1489 93.993 28.3172C97.5133 31.4855 101.679 33.6563 106.49 34.8298C111.301 36.0032 116.347 35.7099 121.628 33.9497C117.99 42.0465 118.635 48.9698 123.564 54.7197C128.492 60.4696 134.125 63.4618 140.461 63.6965C141.518 74.1402 140.403 84.0558 137.117 93.4434C134.528 100.841 130.974 107.51 126.455 113.45V86.1285H113.106L94.35 129.978L75.5936 86.1285H62.16V140.686ZM67.3229 53.572C65.2717 55.6279 62.7793 56.6559 59.8457 56.6559C56.9121 56.6559 54.4197 55.6279 52.3685 53.572C50.3126 51.5209 49.2847 49.0285 49.2847 46.0949C49.2847 43.1612 50.3126 40.6688 52.3685 38.6177C54.4197 36.5618 56.9121 35.5338 59.8457 35.5338C62.7793 35.5338 65.2717 36.5618 67.3229 38.6177C69.3788 40.6688 70.4067 43.1612 70.4067 46.0949C70.4067 49.0285 69.3788 51.5209 67.3229 53.572ZM53.2416 88.7754C51.1904 90.8313 48.698 91.8592 45.7644 91.8592C42.8308 91.8592 40.3384 90.8313 38.2872 88.7754C36.2313 86.7242 35.2034 84.2318 35.2034 81.2982C35.2034 78.3646 36.2313 75.8722 38.2872 73.821C40.3384 71.7651 42.8308 70.7372 45.7644 70.7372C48.698 70.7372 51.1904 71.7651 53.2416 73.821C55.2974 75.8722 56.3254 78.3646 56.3254 81.2982C56.3254 84.2318 55.2974 86.7242 53.2416 88.7754ZM96.5487 96.8722C95.1969 98.224 93.5236 98.8999 91.5287 98.8999C89.5339 98.8999 87.8629 98.224 86.5158 96.8722C85.164 95.5251 84.4881 93.8541 84.4881 91.8592C84.4881 89.8644 85.164 88.191 86.5158 86.8392C87.8629 85.4921 89.5339 84.8186 91.5287 84.8186C93.5236 84.8186 95.1969 85.4921 96.5487 86.8392C97.8959 88.191 98.5694 89.8644 98.5694 91.8592C98.5694 93.8541 97.8959 95.5251 96.5487 96.8722Z" fill="#0061AC"/>
<path d="M114.627 125.587V106.744L103.943 132.683C107.762 130.605 111.323 128.239 114.627 125.587Z" fill="#0061AC"/>
<path d="M87.4078 139.15C83.0828 140.208 78.6096 140.845 73.9883 141.061V106.744L87.4078 139.15Z" fill="#0061AC"/>
</svg>
