<svg width="19" height="19" viewBox="0 0 19 19" fill="none" xmlns="http://www.w3.org/2000/svg">
<path d="M14.5205 14.9231L14.5369 14.8896C14.553 14.8636 14.566 14.8357 14.5757 14.8067V14.804C14.6283 14.6659 14.6395 14.5193 14.6145 14.3721V14.3774C14.5872 14.2216 14.5308 14.0724 14.4482 13.9375L14.4535 13.9428L10.6845 7.31543L10.1091 6.31075L5.77586 13.9428C5.70094 14.0756 5.65419 14.2196 5.62922 14.3689V14.3774C5.59894 14.549 5.61806 14.7233 5.68713 14.8837L5.68447 14.8784C5.69297 14.9034 5.70679 14.9257 5.7206 14.9502L5.71795 14.9475C5.83164 15.1414 6.07232 15.3736 6.60362 15.3736H13.6157C13.7262 15.3736 14.2713 15.3513 14.5231 14.9225L14.5205 14.9231ZM10.1096 8.3233L13.5519 14.3779H6.67003L10.1096 8.3233ZM17.3703 13.9439L12.4006 5.18865C12.348 5.09461 12.0632 4.62973 11.5622 4.62973C11.338 4.62973 11.0171 4.72642 10.7541 5.18599L10.1123 6.31234L10.6824 7.31968L11.568 5.75076L16.4852 14.3817H14.6145C14.6395 14.5256 14.6257 14.6723 14.5757 14.8104V14.8051C14.5646 14.8354 14.5534 14.8662 14.5369 14.8938V14.8912L14.5205 14.9247C14.2686 15.3534 13.7262 15.3757 13.621 15.3757H16.5458C16.6536 15.3757 17.1934 15.3534 17.4452 14.9247C17.5589 14.7281 17.636 14.4019 17.3703 13.9449V13.9439ZM5.72379 14.948L5.69032 14.8816V14.879C5.62078 14.7198 5.59953 14.5438 5.62922 14.3726V14.3774L1.61102 14.3779L7.5828 3.87104L9.54169 7.31596L10.1118 6.31128L8.40152 3.30042C8.35424 3.21488 8.06681 2.75 7.56845 2.75C7.34424 2.75 7.02068 2.8467 6.76035 3.30892L0.71154 13.9433C0.658942 14.0347 0.409764 14.5161 0.658942 14.9448C0.772639 15.1414 1.01332 15.3709 1.54461 15.3709H6.6084C6.08241 15.3709 5.83642 15.1441 5.72273 14.9448L5.72379 14.948Z" fill="#38D8CC"/>
</svg>
