<svg width="19" height="19" viewBox="0 0 19 19" fill="none" xmlns="http://www.w3.org/2000/svg">
<mask id="path-1-outside-1_1549_637" maskUnits="userSpaceOnUse" x="-0.14502" y="-0.439941" width="18" height="19" fill="black">
<rect fill="white" x="-0.14502" y="-0.439941" width="18" height="19"/>
<path d="M17.2495 10.9887C17.2397 10.9588 17.2261 10.9302 17.2091 10.9037C17.1106 10.7181 16.8712 10.6622 16.4958 10.7401C15.3242 10.9809 14.8708 10.8322 14.7065 10.7259C15.6571 9.27522 16.4384 7.52277 16.8606 5.88791C17.0533 5.14414 17.4259 3.3924 16.947 2.53742C16.9167 2.47864 16.8811 2.42269 16.8408 2.37025C15.9263 1.20431 14.5861 0.577423 12.964 0.560423C11.905 0.549089 11.0019 0.805511 10.7568 0.899721C10.6355 0.876994 10.5136 0.857625 10.3913 0.841637C10.0845 0.786276 9.77363 0.756188 9.46191 0.751676C8.62464 0.738218 7.90142 0.93868 7.30145 1.34669C6.6951 1.11931 3.91058 0.181457 2.18717 1.40265C1.22311 2.08479 0.779687 3.30314 0.865398 5.02514C0.89444 5.60457 1.22453 7.38677 1.74587 9.09389C2.07171 10.1607 2.4103 11.0078 2.76094 11.6312C3.15265 12.3353 3.55854 12.7596 3.97504 12.8991C4.29238 13.004 4.7776 13.0004 5.29115 12.3827C5.73664 11.8499 6.19604 11.3288 6.66889 10.8201C6.97702 10.9866 7.31065 11.0766 7.65349 11.0872C7.65346 11.0881 7.65346 11.0891 7.65349 11.09C7.5939 11.161 7.53557 11.233 7.47853 11.3061C7.2384 11.6106 7.18811 11.6744 6.41601 11.8338C6.19642 11.8791 5.61274 11.9988 5.60424 12.4082C5.60262 12.4901 5.62503 12.5706 5.6687 12.6399C5.8295 12.9395 6.3218 13.072 6.38768 13.0883C7.33332 13.3241 8.16209 13.1534 8.77622 12.6073C8.76418 14.1876 8.83077 15.7368 9.02061 16.2114C9.17715 16.6031 9.56037 17.5601 10.7702 17.5601C10.9473 17.5601 11.1428 17.5388 11.3574 17.4935C12.6197 17.2229 13.168 16.6647 13.3798 15.435C13.486 14.8188 13.6645 13.3985 13.7616 12.5301C13.7736 12.4805 13.7871 12.4451 13.802 12.4337C13.802 12.4337 13.8515 12.3997 14.1044 12.455C14.1147 12.4573 14.1251 12.4589 14.1356 12.46L14.3155 12.4755L14.3261 12.4762C14.9261 12.5039 15.6798 12.3757 16.119 12.1717C16.5751 11.9592 17.3989 11.4399 17.2495 10.9887ZM2.23959 8.97205C1.71258 7.24722 1.40516 5.51177 1.38107 5.02585C1.30386 3.48731 1.67646 2.417 2.48751 1.84324C3.78875 0.923097 5.91592 1.46073 6.8141 1.75116L6.80702 1.75824C5.37403 3.20468 5.40803 5.67823 5.41299 5.82982C5.41299 5.88791 5.41724 5.97078 5.42432 6.08483C5.44841 6.49992 5.49516 7.27485 5.37191 8.15178C5.25857 8.96638 5.50933 9.76398 6.06113 10.3399C6.1178 10.3994 6.17801 10.4553 6.23963 10.5077C5.99384 10.7705 5.46045 11.3528 4.89165 12.0364C4.4893 12.5195 4.21163 12.4267 4.12096 12.3962C3.84329 12.3041 3.54508 11.9804 3.24332 11.4598C2.90331 10.8655 2.56118 10.0204 2.24101 8.97205H2.23959ZM6.49464 12.5761C6.3871 12.549 6.28403 12.5066 6.18863 12.45C6.25167 12.4224 6.35651 12.3863 6.53076 12.3509C7.44028 12.1632 7.58053 12.0314 7.88725 11.6425C7.96987 11.5346 8.05659 11.43 8.14721 11.3287C8.17103 11.3021 8.1889 11.2707 8.19963 11.2366C8.32005 11.1297 8.3923 11.1587 8.50847 11.2069C8.61897 11.2529 8.72664 11.3911 8.77056 11.5434C8.79181 11.6156 8.81448 11.7523 8.73868 11.8586C8.09834 12.7553 7.16473 12.744 6.49464 12.5761ZM7.97792 9.75123L7.94108 9.8504C7.84687 10.1033 7.75904 10.3385 7.7045 10.5616C7.23203 10.5602 6.7716 10.3576 6.42239 9.99278C5.97754 9.52881 5.77566 8.88351 5.86775 8.22191C5.99738 7.29539 5.94992 6.48858 5.92442 6.05508L5.91521 5.89924C6.12488 5.71365 7.09532 5.19372 7.78737 5.35239C8.10329 5.42465 8.29597 5.63998 8.3753 6.00974C8.78968 7.92511 8.43055 8.72271 8.14155 9.36448C8.08291 9.49153 8.02857 9.62052 7.97863 9.75123H7.97792ZM13.1942 12.9898C13.1821 13.1152 13.1687 13.2561 13.1503 13.412L13.0469 13.7222C13.0387 13.7469 13.0344 13.7727 13.0341 13.7987C13.0299 14.1352 12.9959 14.2584 12.9526 14.415C12.8823 14.659 12.8395 14.9102 12.8251 15.1637C12.7472 16.1653 12.2032 16.7412 11.1131 16.9743C10.0399 17.2045 9.84937 16.6229 9.6822 16.1094C9.66476 16.0554 9.64634 16.0018 9.62695 15.9486C9.47466 15.5335 9.49236 14.9484 9.51574 14.1387C9.52707 13.7414 9.49803 12.7922 9.28199 12.2645C9.28482 12.0569 9.28907 11.8458 9.29544 11.6326C9.29603 11.6055 9.2922 11.5785 9.28411 11.5526C9.27724 11.5028 9.26682 11.4535 9.25294 11.4052C9.16652 11.1021 8.95544 10.8485 8.70043 10.7429C8.59985 10.7011 8.41497 10.6246 8.19255 10.6813C8.24001 10.4858 8.32217 10.2655 8.41143 10.0261L8.44897 9.92549C8.49147 9.81215 8.54389 9.69527 8.59985 9.57131C8.9016 8.8998 9.31528 7.98036 8.86619 5.90349C8.69831 5.12572 8.13659 4.74605 7.28515 4.83388C6.77514 4.88701 6.30763 5.09314 6.07459 5.21072C6.02783 5.23437 5.98154 5.25893 5.93575 5.28439C6.00092 4.50096 6.24672 3.0361 7.16544 2.10958C7.23362 2.04081 7.30526 1.97556 7.38007 1.91407C7.4173 1.90694 7.45242 1.89144 7.48278 1.86874C8.01546 1.46498 8.68343 1.26665 9.46757 1.27869C9.758 1.28365 10.0357 1.30277 10.2992 1.33606C11.6734 1.58753 12.5971 2.36104 13.1581 3.02406C13.7347 3.70549 14.047 4.39188 14.1717 4.76234C13.2346 4.66742 12.5971 4.8523 12.2733 5.31485C11.5707 6.31929 12.6587 8.27008 13.1814 9.20793C13.2771 9.37935 13.3599 9.5281 13.3862 9.59044C13.5562 10.0034 13.7765 10.279 13.9372 10.4801C13.9868 10.5417 14.035 10.6013 14.0711 10.6537C13.7878 10.7358 13.2778 10.925 13.3238 11.8699C13.3062 12.0626 13.2864 12.255 13.2643 12.4472C13.2317 12.5945 13.2154 12.773 13.1942 12.9898ZM13.8246 11.8416C13.7963 11.2522 14.0159 11.1906 14.2475 11.1261C14.2796 11.1172 14.3115 11.1076 14.3431 11.0971C14.373 11.1236 14.4047 11.148 14.438 11.1701C14.8418 11.4364 15.5594 11.4683 16.568 11.265C16.425 11.3904 16.2004 11.5483 15.893 11.6907C15.6026 11.8253 15.1166 11.9266 14.6555 11.9485C14.1455 11.9726 13.8862 11.8919 13.8246 11.8416ZM14.2284 5.27448C14.22 5.51227 14.1952 5.74919 14.154 5.98353C14.115 6.23712 14.0747 6.49921 14.064 6.81726C14.0541 7.1261 14.0924 7.44769 14.1299 7.75936C14.2057 8.38766 14.2829 9.03439 13.9833 9.67261C13.9334 9.58448 13.8889 9.49341 13.8501 9.39989C13.7801 9.25075 13.7033 9.10491 13.6199 8.96284C13.1836 8.18083 12.1628 6.34904 12.6849 5.60244C12.9541 5.21781 13.6355 5.20152 14.2284 5.27448ZM14.3899 10.2421C14.37 10.2167 14.3499 10.1915 14.3297 10.1663L14.3049 10.1352C14.8191 9.28514 14.7186 8.44433 14.6286 7.69915C14.5918 7.39314 14.5578 7.10414 14.5663 6.83355C14.5755 6.54525 14.613 6.29875 14.6498 6.06003C14.6952 5.76607 14.7419 5.46219 14.7285 5.10376C14.739 5.05972 14.7419 5.0142 14.737 4.96918C14.7044 4.62492 14.312 3.5964 13.5115 2.66492C12.9898 2.05013 12.34 1.55693 11.6075 1.21989C12.0793 1.1234 12.5604 1.07922 13.0419 1.08814C14.4954 1.12073 15.6451 1.66474 16.459 2.7053C16.4763 2.72784 16.4922 2.7515 16.5064 2.77613C17.0186 3.73665 16.3102 7.22102 14.3899 10.2421ZM8.14509 5.90986C8.12738 6.03737 7.9255 6.2095 7.7052 6.2095C7.686 6.20942 7.66683 6.208 7.64783 6.20524C7.50399 6.18002 7.37552 6.10005 7.2894 5.98212C7.25682 5.93961 7.2044 5.85603 7.21432 5.78024C7.21758 5.7591 7.2251 5.73885 7.23643 5.72071C7.24775 5.70256 7.26264 5.68691 7.28019 5.67469C7.36378 5.61165 7.52953 5.58827 7.71229 5.61377C7.93612 5.64494 8.16775 5.75049 8.14509 5.90986ZM13.7623 5.61873C13.7701 5.6754 13.7276 5.7604 13.6539 5.83832C13.5776 5.9214 13.476 5.97694 13.3649 5.99628C13.3473 5.99868 13.3295 5.99987 13.3118 5.99982C13.1042 5.99982 12.9286 5.83407 12.9151 5.73703C12.8981 5.61165 13.1021 5.51744 13.3118 5.48769C13.5229 5.45794 13.7453 5.49406 13.7623 5.61873Z"/>
</mask>
<path d="M17.2495 10.9887C17.2397 10.9588 17.2261 10.9302 17.2091 10.9037C17.1106 10.7181 16.8712 10.6622 16.4958 10.7401C15.3242 10.9809 14.8708 10.8322 14.7065 10.7259C15.6571 9.27522 16.4384 7.52277 16.8606 5.88791C17.0533 5.14414 17.4259 3.3924 16.947 2.53742C16.9167 2.47864 16.8811 2.42269 16.8408 2.37025C15.9263 1.20431 14.5861 0.577423 12.964 0.560423C11.905 0.549089 11.0019 0.805511 10.7568 0.899721C10.6355 0.876994 10.5136 0.857625 10.3913 0.841637C10.0845 0.786276 9.77363 0.756188 9.46191 0.751676C8.62464 0.738218 7.90142 0.93868 7.30145 1.34669C6.6951 1.11931 3.91058 0.181457 2.18717 1.40265C1.22311 2.08479 0.779687 3.30314 0.865398 5.02514C0.89444 5.60457 1.22453 7.38677 1.74587 9.09389C2.07171 10.1607 2.4103 11.0078 2.76094 11.6312C3.15265 12.3353 3.55854 12.7596 3.97504 12.8991C4.29238 13.004 4.7776 13.0004 5.29115 12.3827C5.73664 11.8499 6.19604 11.3288 6.66889 10.8201C6.97702 10.9866 7.31065 11.0766 7.65349 11.0872C7.65346 11.0881 7.65346 11.0891 7.65349 11.09C7.5939 11.161 7.53557 11.233 7.47853 11.3061C7.2384 11.6106 7.18811 11.6744 6.41601 11.8338C6.19642 11.8791 5.61274 11.9988 5.60424 12.4082C5.60262 12.4901 5.62503 12.5706 5.6687 12.6399C5.8295 12.9395 6.3218 13.072 6.38768 13.0883C7.33332 13.3241 8.16209 13.1534 8.77622 12.6073C8.76418 14.1876 8.83077 15.7368 9.02061 16.2114C9.17715 16.6031 9.56037 17.5601 10.7702 17.5601C10.9473 17.5601 11.1428 17.5388 11.3574 17.4935C12.6197 17.2229 13.168 16.6647 13.3798 15.435C13.486 14.8188 13.6645 13.3985 13.7616 12.5301C13.7736 12.4805 13.7871 12.4451 13.802 12.4337C13.802 12.4337 13.8515 12.3997 14.1044 12.455C14.1147 12.4573 14.1251 12.4589 14.1356 12.46L14.3155 12.4755L14.3261 12.4762C14.9261 12.5039 15.6798 12.3757 16.119 12.1717C16.5751 11.9592 17.3989 11.4399 17.2495 10.9887ZM2.23959 8.97205C1.71258 7.24722 1.40516 5.51177 1.38107 5.02585C1.30386 3.48731 1.67646 2.417 2.48751 1.84324C3.78875 0.923097 5.91592 1.46073 6.8141 1.75116L6.80702 1.75824C5.37403 3.20468 5.40803 5.67823 5.41299 5.82982C5.41299 5.88791 5.41724 5.97078 5.42432 6.08483C5.44841 6.49992 5.49516 7.27485 5.37191 8.15178C5.25857 8.96638 5.50933 9.76398 6.06113 10.3399C6.1178 10.3994 6.17801 10.4553 6.23963 10.5077C5.99384 10.7705 5.46045 11.3528 4.89165 12.0364C4.4893 12.5195 4.21163 12.4267 4.12096 12.3962C3.84329 12.3041 3.54508 11.9804 3.24332 11.4598C2.90331 10.8655 2.56118 10.0204 2.24101 8.97205H2.23959ZM6.49464 12.5761C6.3871 12.549 6.28403 12.5066 6.18863 12.45C6.25167 12.4224 6.35651 12.3863 6.53076 12.3509C7.44028 12.1632 7.58053 12.0314 7.88725 11.6425C7.96987 11.5346 8.05659 11.43 8.14721 11.3287C8.17103 11.3021 8.1889 11.2707 8.19963 11.2366C8.32005 11.1297 8.3923 11.1587 8.50847 11.2069C8.61897 11.2529 8.72664 11.3911 8.77056 11.5434C8.79181 11.6156 8.81448 11.7523 8.73868 11.8586C8.09834 12.7553 7.16473 12.744 6.49464 12.5761ZM7.97792 9.75123L7.94108 9.8504C7.84687 10.1033 7.75904 10.3385 7.7045 10.5616C7.23203 10.5602 6.7716 10.3576 6.42239 9.99278C5.97754 9.52881 5.77566 8.88351 5.86775 8.22191C5.99738 7.29539 5.94992 6.48858 5.92442 6.05508L5.91521 5.89924C6.12488 5.71365 7.09532 5.19372 7.78737 5.35239C8.10329 5.42465 8.29597 5.63998 8.3753 6.00974C8.78968 7.92511 8.43055 8.72271 8.14155 9.36448C8.08291 9.49153 8.02857 9.62052 7.97863 9.75123H7.97792ZM13.1942 12.9898C13.1821 13.1152 13.1687 13.2561 13.1503 13.412L13.0469 13.7222C13.0387 13.7469 13.0344 13.7727 13.0341 13.7987C13.0299 14.1352 12.9959 14.2584 12.9526 14.415C12.8823 14.659 12.8395 14.9102 12.8251 15.1637C12.7472 16.1653 12.2032 16.7412 11.1131 16.9743C10.0399 17.2045 9.84937 16.6229 9.6822 16.1094C9.66476 16.0554 9.64634 16.0018 9.62695 15.9486C9.47466 15.5335 9.49236 14.9484 9.51574 14.1387C9.52707 13.7414 9.49803 12.7922 9.28199 12.2645C9.28482 12.0569 9.28907 11.8458 9.29544 11.6326C9.29603 11.6055 9.2922 11.5785 9.28411 11.5526C9.27724 11.5028 9.26682 11.4535 9.25294 11.4052C9.16652 11.1021 8.95544 10.8485 8.70043 10.7429C8.59985 10.7011 8.41497 10.6246 8.19255 10.6813C8.24001 10.4858 8.32217 10.2655 8.41143 10.0261L8.44897 9.92549C8.49147 9.81215 8.54389 9.69527 8.59985 9.57131C8.9016 8.8998 9.31528 7.98036 8.86619 5.90349C8.69831 5.12572 8.13659 4.74605 7.28515 4.83388C6.77514 4.88701 6.30763 5.09314 6.07459 5.21072C6.02783 5.23437 5.98154 5.25893 5.93575 5.28439C6.00092 4.50096 6.24672 3.0361 7.16544 2.10958C7.23362 2.04081 7.30526 1.97556 7.38007 1.91407C7.4173 1.90694 7.45242 1.89144 7.48278 1.86874C8.01546 1.46498 8.68343 1.26665 9.46757 1.27869C9.758 1.28365 10.0357 1.30277 10.2992 1.33606C11.6734 1.58753 12.5971 2.36104 13.1581 3.02406C13.7347 3.70549 14.047 4.39188 14.1717 4.76234C13.2346 4.66742 12.5971 4.8523 12.2733 5.31485C11.5707 6.31929 12.6587 8.27008 13.1814 9.20793C13.2771 9.37935 13.3599 9.5281 13.3862 9.59044C13.5562 10.0034 13.7765 10.279 13.9372 10.4801C13.9868 10.5417 14.035 10.6013 14.0711 10.6537C13.7878 10.7358 13.2778 10.925 13.3238 11.8699C13.3062 12.0626 13.2864 12.255 13.2643 12.4472C13.2317 12.5945 13.2154 12.773 13.1942 12.9898ZM13.8246 11.8416C13.7963 11.2522 14.0159 11.1906 14.2475 11.1261C14.2796 11.1172 14.3115 11.1076 14.3431 11.0971C14.373 11.1236 14.4047 11.148 14.438 11.1701C14.8418 11.4364 15.5594 11.4683 16.568 11.265C16.425 11.3904 16.2004 11.5483 15.893 11.6907C15.6026 11.8253 15.1166 11.9266 14.6555 11.9485C14.1455 11.9726 13.8862 11.8919 13.8246 11.8416ZM14.2284 5.27448C14.22 5.51227 14.1952 5.74919 14.154 5.98353C14.115 6.23712 14.0747 6.49921 14.064 6.81726C14.0541 7.1261 14.0924 7.44769 14.1299 7.75936C14.2057 8.38766 14.2829 9.03439 13.9833 9.67261C13.9334 9.58448 13.8889 9.49341 13.8501 9.39989C13.7801 9.25075 13.7033 9.10491 13.6199 8.96284C13.1836 8.18083 12.1628 6.34904 12.6849 5.60244C12.9541 5.21781 13.6355 5.20152 14.2284 5.27448ZM14.3899 10.2421C14.37 10.2167 14.3499 10.1915 14.3297 10.1663L14.3049 10.1352C14.8191 9.28514 14.7186 8.44433 14.6286 7.69915C14.5918 7.39314 14.5578 7.10414 14.5663 6.83355C14.5755 6.54525 14.613 6.29875 14.6498 6.06003C14.6952 5.76607 14.7419 5.46219 14.7285 5.10376C14.739 5.05972 14.7419 5.0142 14.737 4.96918C14.7044 4.62492 14.312 3.5964 13.5115 2.66492C12.9898 2.05013 12.34 1.55693 11.6075 1.21989C12.0793 1.1234 12.5604 1.07922 13.0419 1.08814C14.4954 1.12073 15.6451 1.66474 16.459 2.7053C16.4763 2.72784 16.4922 2.7515 16.5064 2.77613C17.0186 3.73665 16.3102 7.22102 14.3899 10.2421ZM8.14509 5.90986C8.12738 6.03737 7.9255 6.2095 7.7052 6.2095C7.686 6.20942 7.66683 6.208 7.64783 6.20524C7.50399 6.18002 7.37552 6.10005 7.2894 5.98212C7.25682 5.93961 7.2044 5.85603 7.21432 5.78024C7.21758 5.7591 7.2251 5.73885 7.23643 5.72071C7.24775 5.70256 7.26264 5.68691 7.28019 5.67469C7.36378 5.61165 7.52953 5.58827 7.71229 5.61377C7.93612 5.64494 8.16775 5.75049 8.14509 5.90986ZM13.7623 5.61873C13.7701 5.6754 13.7276 5.7604 13.6539 5.83832C13.5776 5.9214 13.476 5.97694 13.3649 5.99628C13.3473 5.99868 13.3295 5.99987 13.3118 5.99982C13.1042 5.99982 12.9286 5.83407 12.9151 5.73703C12.8981 5.61165 13.1021 5.51744 13.3118 5.48769C13.5229 5.45794 13.7453 5.49406 13.7623 5.61873Z" fill="#38D8CC"/>
<path d="M17.2495 10.9887C17.2397 10.9588 17.2261 10.9302 17.2091 10.9037C17.1106 10.7181 16.8712 10.6622 16.4958 10.7401C15.3242 10.9809 14.8708 10.8322 14.7065 10.7259C15.6571 9.27522 16.4384 7.52277 16.8606 5.88791C17.0533 5.14414 17.4259 3.3924 16.947 2.53742C16.9167 2.47864 16.8811 2.42269 16.8408 2.37025C15.9263 1.20431 14.5861 0.577423 12.964 0.560423C11.905 0.549089 11.0019 0.805511 10.7568 0.899721C10.6355 0.876994 10.5136 0.857625 10.3913 0.841637C10.0845 0.786276 9.77363 0.756188 9.46191 0.751676C8.62464 0.738218 7.90142 0.93868 7.30145 1.34669C6.6951 1.11931 3.91058 0.181457 2.18717 1.40265C1.22311 2.08479 0.779687 3.30314 0.865398 5.02514C0.89444 5.60457 1.22453 7.38677 1.74587 9.09389C2.07171 10.1607 2.4103 11.0078 2.76094 11.6312C3.15265 12.3353 3.55854 12.7596 3.97504 12.8991C4.29238 13.004 4.7776 13.0004 5.29115 12.3827C5.73664 11.8499 6.19604 11.3288 6.66889 10.8201C6.97702 10.9866 7.31065 11.0766 7.65349 11.0872C7.65346 11.0881 7.65346 11.0891 7.65349 11.09C7.5939 11.161 7.53557 11.233 7.47853 11.3061C7.2384 11.6106 7.18811 11.6744 6.41601 11.8338C6.19642 11.8791 5.61274 11.9988 5.60424 12.4082C5.60262 12.4901 5.62503 12.5706 5.6687 12.6399C5.8295 12.9395 6.3218 13.072 6.38768 13.0883C7.33332 13.3241 8.16209 13.1534 8.77622 12.6073C8.76418 14.1876 8.83077 15.7368 9.02061 16.2114C9.17715 16.6031 9.56037 17.5601 10.7702 17.5601C10.9473 17.5601 11.1428 17.5388 11.3574 17.4935C12.6197 17.2229 13.168 16.6647 13.3798 15.435C13.486 14.8188 13.6645 13.3985 13.7616 12.5301C13.7736 12.4805 13.7871 12.4451 13.802 12.4337C13.802 12.4337 13.8515 12.3997 14.1044 12.455C14.1147 12.4573 14.1251 12.4589 14.1356 12.46L14.3155 12.4755L14.3261 12.4762C14.9261 12.5039 15.6798 12.3757 16.119 12.1717C16.5751 11.9592 17.3989 11.4399 17.2495 10.9887ZM2.23959 8.97205C1.71258 7.24722 1.40516 5.51177 1.38107 5.02585C1.30386 3.48731 1.67646 2.417 2.48751 1.84324C3.78875 0.923097 5.91592 1.46073 6.8141 1.75116L6.80702 1.75824C5.37403 3.20468 5.40803 5.67823 5.41299 5.82982C5.41299 5.88791 5.41724 5.97078 5.42432 6.08483C5.44841 6.49992 5.49516 7.27485 5.37191 8.15178C5.25857 8.96638 5.50933 9.76398 6.06113 10.3399C6.1178 10.3994 6.17801 10.4553 6.23963 10.5077C5.99384 10.7705 5.46045 11.3528 4.89165 12.0364C4.4893 12.5195 4.21163 12.4267 4.12096 12.3962C3.84329 12.3041 3.54508 11.9804 3.24332 11.4598C2.90331 10.8655 2.56118 10.0204 2.24101 8.97205H2.23959ZM6.49464 12.5761C6.3871 12.549 6.28403 12.5066 6.18863 12.45C6.25167 12.4224 6.35651 12.3863 6.53076 12.3509C7.44028 12.1632 7.58053 12.0314 7.88725 11.6425C7.96987 11.5346 8.05659 11.43 8.14721 11.3287C8.17103 11.3021 8.1889 11.2707 8.19963 11.2366C8.32005 11.1297 8.3923 11.1587 8.50847 11.2069C8.61897 11.2529 8.72664 11.3911 8.77056 11.5434C8.79181 11.6156 8.81448 11.7523 8.73868 11.8586C8.09834 12.7553 7.16473 12.744 6.49464 12.5761ZM7.97792 9.75123L7.94108 9.8504C7.84687 10.1033 7.75904 10.3385 7.7045 10.5616C7.23203 10.5602 6.7716 10.3576 6.42239 9.99278C5.97754 9.52881 5.77566 8.88351 5.86775 8.22191C5.99738 7.29539 5.94992 6.48858 5.92442 6.05508L5.91521 5.89924C6.12488 5.71365 7.09532 5.19372 7.78737 5.35239C8.10329 5.42465 8.29597 5.63998 8.3753 6.00974C8.78968 7.92511 8.43055 8.72271 8.14155 9.36448C8.08291 9.49153 8.02857 9.62052 7.97863 9.75123H7.97792ZM13.1942 12.9898C13.1821 13.1152 13.1687 13.2561 13.1503 13.412L13.0469 13.7222C13.0387 13.7469 13.0344 13.7727 13.0341 13.7987C13.0299 14.1352 12.9959 14.2584 12.9526 14.415C12.8823 14.659 12.8395 14.9102 12.8251 15.1637C12.7472 16.1653 12.2032 16.7412 11.1131 16.9743C10.0399 17.2045 9.84937 16.6229 9.6822 16.1094C9.66476 16.0554 9.64634 16.0018 9.62695 15.9486C9.47466 15.5335 9.49236 14.9484 9.51574 14.1387C9.52707 13.7414 9.49803 12.7922 9.28199 12.2645C9.28482 12.0569 9.28907 11.8458 9.29544 11.6326C9.29603 11.6055 9.2922 11.5785 9.28411 11.5526C9.27724 11.5028 9.26682 11.4535 9.25294 11.4052C9.16652 11.1021 8.95544 10.8485 8.70043 10.7429C8.59985 10.7011 8.41497 10.6246 8.19255 10.6813C8.24001 10.4858 8.32217 10.2655 8.41143 10.0261L8.44897 9.92549C8.49147 9.81215 8.54389 9.69527 8.59985 9.57131C8.9016 8.8998 9.31528 7.98036 8.86619 5.90349C8.69831 5.12572 8.13659 4.74605 7.28515 4.83388C6.77514 4.88701 6.30763 5.09314 6.07459 5.21072C6.02783 5.23437 5.98154 5.25893 5.93575 5.28439C6.00092 4.50096 6.24672 3.0361 7.16544 2.10958C7.23362 2.04081 7.30526 1.97556 7.38007 1.91407C7.4173 1.90694 7.45242 1.89144 7.48278 1.86874C8.01546 1.46498 8.68343 1.26665 9.46757 1.27869C9.758 1.28365 10.0357 1.30277 10.2992 1.33606C11.6734 1.58753 12.5971 2.36104 13.1581 3.02406C13.7347 3.70549 14.047 4.39188 14.1717 4.76234C13.2346 4.66742 12.5971 4.8523 12.2733 5.31485C11.5707 6.31929 12.6587 8.27008 13.1814 9.20793C13.2771 9.37935 13.3599 9.5281 13.3862 9.59044C13.5562 10.0034 13.7765 10.279 13.9372 10.4801C13.9868 10.5417 14.035 10.6013 14.0711 10.6537C13.7878 10.7358 13.2778 10.925 13.3238 11.8699C13.3062 12.0626 13.2864 12.255 13.2643 12.4472C13.2317 12.5945 13.2154 12.773 13.1942 12.9898ZM13.8246 11.8416C13.7963 11.2522 14.0159 11.1906 14.2475 11.1261C14.2796 11.1172 14.3115 11.1076 14.3431 11.0971C14.373 11.1236 14.4047 11.148 14.438 11.1701C14.8418 11.4364 15.5594 11.4683 16.568 11.265C16.425 11.3904 16.2004 11.5483 15.893 11.6907C15.6026 11.8253 15.1166 11.9266 14.6555 11.9485C14.1455 11.9726 13.8862 11.8919 13.8246 11.8416ZM14.2284 5.27448C14.22 5.51227 14.1952 5.74919 14.154 5.98353C14.115 6.23712 14.0747 6.49921 14.064 6.81726C14.0541 7.1261 14.0924 7.44769 14.1299 7.75936C14.2057 8.38766 14.2829 9.03439 13.9833 9.67261C13.9334 9.58448 13.8889 9.49341 13.8501 9.39989C13.7801 9.25075 13.7033 9.10491 13.6199 8.96284C13.1836 8.18083 12.1628 6.34904 12.6849 5.60244C12.9541 5.21781 13.6355 5.20152 14.2284 5.27448ZM14.3899 10.2421C14.37 10.2167 14.3499 10.1915 14.3297 10.1663L14.3049 10.1352C14.8191 9.28514 14.7186 8.44433 14.6286 7.69915C14.5918 7.39314 14.5578 7.10414 14.5663 6.83355C14.5755 6.54525 14.613 6.29875 14.6498 6.06003C14.6952 5.76607 14.7419 5.46219 14.7285 5.10376C14.739 5.05972 14.7419 5.0142 14.737 4.96918C14.7044 4.62492 14.312 3.5964 13.5115 2.66492C12.9898 2.05013 12.34 1.55693 11.6075 1.21989C12.0793 1.1234 12.5604 1.07922 13.0419 1.08814C14.4954 1.12073 15.6451 1.66474 16.459 2.7053C16.4763 2.72784 16.4922 2.7515 16.5064 2.77613C17.0186 3.73665 16.3102 7.22102 14.3899 10.2421ZM8.14509 5.90986C8.12738 6.03737 7.9255 6.2095 7.7052 6.2095C7.686 6.20942 7.66683 6.208 7.64783 6.20524C7.50399 6.18002 7.37552 6.10005 7.2894 5.98212C7.25682 5.93961 7.2044 5.85603 7.21432 5.78024C7.21758 5.7591 7.2251 5.73885 7.23643 5.72071C7.24775 5.70256 7.26264 5.68691 7.28019 5.67469C7.36378 5.61165 7.52953 5.58827 7.71229 5.61377C7.93612 5.64494 8.16775 5.75049 8.14509 5.90986ZM13.7623 5.61873C13.7701 5.6754 13.7276 5.7604 13.6539 5.83832C13.5776 5.9214 13.476 5.97694 13.3649 5.99628C13.3473 5.99868 13.3295 5.99987 13.3118 5.99982C13.1042 5.99982 12.9286 5.83407 12.9151 5.73703C12.8981 5.61165 13.1021 5.51744 13.3118 5.48769C13.5229 5.45794 13.7453 5.49406 13.7623 5.61873Z" stroke="#38D8CC" stroke-width="0.4" mask="url(#path-1-outside-1_1549_637)"/>
</svg>
