<svg width="19" height="19" viewBox="0 0 19 19" fill="none" xmlns="http://www.w3.org/2000/svg">
<g clip-path="url(#clip0_1448_2772)">
<path d="M9.21589 4.22088C8.77131 4.71276 8.35659 5.23086 7.97397 5.77238C7.2803 5.83846 6.62171 5.9398 6.01008 6.07212C5.81205 5.26043 5.73639 4.54936 5.78386 3.99605C5.83337 3.41909 6.01399 3.03774 6.3005 2.87206L9.21589 4.22088ZM9.21589 4.22088C8.61168 3.6435 8.03366 3.22233 7.53089 2.98672C7.00664 2.74104 6.58658 2.7068 6.30053 2.87204L9.21589 4.22088ZM13.4437 15.2463L13.4436 15.2464C13.1572 15.412 12.7369 15.3779 12.2125 15.1323C11.7096 14.8968 11.1314 14.4757 10.5268 13.8983C10.9716 13.4064 11.3865 12.8883 11.7694 12.3468C12.4632 12.2814 13.1224 12.1794 13.734 12.0471C13.9317 12.8588 14.0074 13.5698 13.96 14.123C13.9106 14.7 13.7301 15.081 13.4437 15.2463ZM14.6447 6.30418C14.8831 5.31578 14.961 4.42155 14.8563 3.69594C14.7486 2.94974 14.4454 2.36984 13.9118 2.06141L13.9117 2.06138C13.3781 1.75334 12.7244 1.7807 12.0244 2.06063C11.3437 2.33282 10.6082 2.84753 9.87134 3.54839C9.13483 2.84753 8.39952 2.33283 7.71895 2.06064C7.01901 1.7807 6.36532 1.75334 5.83167 2.06138L5.83162 2.06141C5.29801 2.36984 4.9948 2.94974 4.88713 3.69594C4.78243 4.4215 4.86031 5.31566 5.09867 6.30397C4.12344 6.59143 3.31006 6.97089 2.73409 7.42427C2.14171 7.89055 1.79124 8.44313 1.79124 9.05959C1.79124 9.67605 2.14171 10.2286 2.73409 10.6949C3.31006 11.1483 4.12344 11.5277 5.09867 11.8152C4.8603 12.8035 4.78224 13.6977 4.88684 14.4231C4.99442 15.1693 5.29764 15.749 5.83169 16.0571C6.36535 16.3655 7.01904 16.3381 7.71895 16.0582C8.39952 15.786 9.13482 15.2713 9.87132 14.5708C10.6082 15.2716 11.3437 15.7863 12.0244 16.0585C12.7244 16.3383 13.3781 16.3655 13.9117 16.057C14.4454 15.749 14.7486 15.1692 14.8563 14.4231C14.961 13.6977 14.8831 12.8035 14.6447 11.8152C15.62 11.5277 16.4333 11.1483 17.0093 10.6949C17.6017 10.2286 17.9522 9.67605 17.9522 9.05959C17.9522 8.44311 17.6015 7.89053 17.0089 7.42426C16.4329 6.971 15.6196 6.59161 14.6447 6.30418ZM6.2997 15.2463L6.29966 15.2463C6.01286 15.081 5.83224 14.7001 5.78273 14.1233C5.73524 13.5699 5.81098 12.8585 6.00887 12.046C6.65734 12.1852 7.31358 12.2855 7.97407 12.3462C8.35664 12.8879 8.77133 13.4062 9.2159 13.8983C8.6117 14.4757 8.03368 14.8966 7.53083 15.1321C7.00651 15.3776 6.58619 15.4117 6.2997 15.2463ZM12.6304 9.05956C12.2286 9.88824 11.7673 10.6867 11.2501 11.4487C10.3321 11.5152 9.41052 11.5152 8.49253 11.4486C7.97564 10.6866 7.51459 9.88819 7.113 9.05959C7.51477 8.23094 7.97607 7.43249 8.49327 6.67053C9.41151 6.60392 10.3334 6.60392 11.2516 6.67053C11.7683 7.43252 12.2291 8.23096 12.6304 9.05956ZM9.87141 13.2204C9.64868 12.973 9.42481 12.7069 9.20305 12.4238C9.64869 12.4381 10.0947 12.4381 10.5403 12.4238C10.3182 12.7073 10.0946 12.9731 9.87141 13.2204ZM12.2126 2.98672C12.7369 2.74106 13.1572 2.70678 13.4436 2.87204C13.7302 3.03772 13.9108 3.4189 13.9603 3.99577C14.0078 4.54897 13.9321 5.26002 13.7341 6.07203C13.1224 5.93905 12.4631 5.83773 11.7694 5.77233C11.3867 5.2309 10.972 4.71283 10.5275 4.22089C11.1317 3.6435 11.7097 3.22234 12.2126 2.98672ZM9.20328 5.69534C9.42524 5.41234 9.64827 5.14664 9.87127 4.89893C10.1032 5.1568 10.3263 5.42243 10.5403 5.69534C10.0947 5.68105 9.64884 5.68105 9.20328 5.69534ZM12.4501 11.3203C12.6853 10.9416 12.9087 10.5554 13.1192 10.1623C13.2487 10.4841 13.3673 10.8102 13.4747 11.14C13.1487 11.2092 12.8065 11.2697 12.4501 11.3203ZM6.26781 6.97921C6.59412 6.9098 6.93647 6.84882 7.29304 6.7981C7.05781 7.17705 6.83479 7.56344 6.62432 7.95668C6.48987 7.62247 6.3708 7.29581 6.26781 6.97921ZM7.29256 11.3203C6.93615 11.2697 6.59402 11.2093 6.26796 11.14C6.37564 10.8101 6.49445 10.484 6.62417 10.1622C6.83454 10.5553 7.05745 10.9415 7.29256 11.3203ZM6.07543 9.05975C5.78595 9.69324 5.54428 10.3149 5.35302 10.9109C4.55119 10.6762 3.89755 10.3861 3.44213 10.0683C2.96718 9.737 2.72736 9.39016 2.72736 9.05959C2.72736 8.729 2.9672 8.38197 3.44214 8.05055C3.89759 7.73272 4.55128 7.44257 5.35318 7.20816C5.55675 7.83921 5.79793 8.45751 6.07543 9.05975ZM13.1199 7.95601C12.9095 7.563 12.6866 7.17682 12.4516 6.79808C12.795 6.84689 13.1368 6.90732 13.4762 6.97927C13.3728 7.29588 13.2541 7.62243 13.1199 7.95601ZM14.3906 10.9109C14.2004 10.3146 13.9574 9.69295 13.6679 9.05959C13.9574 8.42623 14.2004 7.80456 14.3906 7.20829C15.1927 7.44302 15.8465 7.73313 16.3019 8.05084C16.777 8.38217 17.0168 8.72902 17.0168 9.05959C17.0168 9.39015 16.777 9.737 16.3019 10.0683C15.8465 10.386 15.1927 10.6762 14.3906 10.9109ZM9.28153 10.4682C9.47038 10.5411 9.67196 10.5753 9.87428 10.5687C10.266 10.5559 10.6374 10.3913 10.9099 10.1097C11.1825 9.82806 11.3349 9.4515 11.3349 9.05959C11.3349 8.66767 11.1825 8.29111 10.9099 8.0095C10.6374 7.72789 10.266 7.5633 9.87428 7.55052C9.67196 7.54392 9.47038 7.57806 9.28153 7.65093C9.09268 7.7238 8.9204 7.83389 8.77495 7.97468C8.6295 8.11546 8.51384 8.28405 8.43486 8.47043C8.35587 8.65681 8.31517 8.85716 8.31517 9.05959C8.31517 9.26201 8.35587 9.46237 8.43486 9.64875C8.51384 9.83512 8.6295 10.0037 8.77495 10.1445C8.9204 10.2853 9.09268 10.3954 9.28153 10.4682Z" fill="#38D8CC" stroke="#38D8CC" stroke-width="0.181185"/>
</g>
<defs>
<clipPath id="clip0_1448_2772">
<rect width="18.1185" height="18.1185" fill="white" transform="translate(0.812012)"/>
</clipPath>
</defs>
</svg>
