<svg width="19" height="19" viewBox="0 0 19 19" fill="none" xmlns="http://www.w3.org/2000/svg">
<path d="M14.8253 3.53333L6.94867 12.0487L16.848 7.48133C16.5601 6.00073 15.8589 4.63191 14.8253 3.53333ZM8.98133 1C7.89 1 6.85 1.21867 5.902 1.614L4.84533 10.5207L10.1267 1.08267C9.74732 1.02809 9.36458 1.00047 8.98133 1ZM16.9267 7.97267L7.54667 13.222L16.3473 12.178C16.9164 10.8542 17.1166 9.40104 16.9267 7.97267ZM13.468 15.6573C14.5192 14.9454 15.3872 13.9951 16.0013 12.884L7.752 14.522L13.468 15.6573ZM10.6093 1.166L6.018 11.118L14.5353 3.24C13.4491 2.19142 12.0878 1.47228 10.6093 1.166ZM9.65133 17C10.5188 16.929 11.3688 16.7162 12.1673 16.37L7.54667 15.822L9.65133 17ZM1.67533 5.72C1.30721 6.53467 1.07891 7.40551 1 8.296L2.24467 10.5207L1.67533 5.72ZM5.20733 1.94333C4.07882 2.54773 3.11071 3.41254 2.38333 4.466L3.54533 10.3147L5.20733 1.94333Z" fill="#38D8CC"/>
</svg>
