<svg width="19" height="19" viewBox="0 0 19 19" fill="none" xmlns="http://www.w3.org/2000/svg">
<path d="M12.1667 13.5625C11.7958 13.5284 11.3513 13.4679 10.8925 13.188C10.6589 13.0454 10.302 13.1928 10.302 13.4665V14.0065C10.302 14.108 10.3527 14.2037 10.4411 14.2536C11.6614 14.9412 13.6088 14.7739 14.3047 13.8672C14.7344 13.3073 14.9115 12.5573 14.5933 11.7078C13.8487 10.2079 12.086 10.1055 11.5549 9.16949C11.5479 9.15706 11.5417 9.14325 11.5369 9.1298C11.074 7.82969 12.707 7.43997 13.8986 7.99368C14.1354 8.1037 14.4663 7.94645 14.4663 7.68535V7.14487C14.4663 7.04302 14.4155 6.94628 14.3241 6.90128C13.8419 6.66376 13.1647 6.63865 12.676 6.66506C11.2538 6.74184 10.2981 7.56822 10.3123 8.79922C10.2511 10.5176 12.2132 10.96 13.1985 11.7552C13.8677 12.323 13.8198 13.7001 12.1667 13.5625ZM6.85131 14.5473C6.68563 14.5473 6.55131 14.413 6.55131 14.2473V8.17578C6.55131 8.0101 6.417 7.87578 6.25131 7.87578H4.702C4.53631 7.87578 4.402 7.74147 4.402 7.57578V7.07256C4.402 6.90688 4.53631 6.77256 4.702 6.77256H9.59122C9.7569 6.77256 9.89122 6.90688 9.89122 7.07256V7.57578C9.89122 7.74147 9.7569 7.87578 9.59122 7.87578H8.03744C7.87175 7.87578 7.73744 8.0101 7.73744 8.17578V14.2473C7.73744 14.413 7.60312 14.5473 7.43744 14.5473H6.85131ZM15.7 2C15.8657 2 16 2.13431 16 2.3V15.7C16 15.8657 15.8657 16 15.7 16H2.3C2.13431 16 2 15.8657 2 15.7V2.3C2 2.13431 2.13431 2 2.3 2H15.7ZM17 1.3C17 1.13431 16.8657 1 16.7 1H1.3C1.13431 1 1 1.13431 1 1.3V16.7C1 16.8657 1.13431 17 1.3 17H16.7C16.8657 17 17 16.8657 17 16.7V1.3Z" fill="#38D8CC"/>
</svg>
