<svg width="19" height="19" viewBox="0 0 19 19" fill="none" xmlns="http://www.w3.org/2000/svg">
<path d="M16.6099 9.46775C15.2479 9.20727 14.5706 8.65235 13.95 7.24805C13.5823 7.77353 13.118 8.43189 13.2554 9.06005C13.2766 9.23974 13.0138 9.81505 12.8349 9.81505H2.26489C2.26489 13.7471 4.65371 15.1 6.94287 15.1C10.0565 15.1167 12.853 14.0612 14.3826 11.325C15.2479 11.2488 16.1161 10.1888 16.6099 9.46775Z" stroke="#38D8CC" stroke-width="1.15" stroke-linecap="round" stroke-linejoin="round"/>
<path d="M6.03982 7.55002H3.77482V9.81502H6.03982M6.03982 7.55002V9.81502M6.03982 7.55002H8.30482M6.03982 7.55002V5.28502H8.30482M6.03982 9.81502H8.30482M8.30482 7.55002V9.81502M8.30482 7.55002H10.5698M8.30482 7.55002V5.28502M8.30482 9.81502H10.5698V7.55002M10.5698 7.55002V5.28502M8.30482 5.28502H10.5698M8.30482 5.28502V3.02002H10.5698V5.28502M3.45093 13.59C4.58343 13.59 4.99641 13.5341 5.68422 13.0011M7.54982 12.08V12.0876" stroke="#38D8CC" stroke-width="1.15" stroke-linecap="round" stroke-linejoin="round"/>
</svg>
