<svg width="19" height="19" viewBox="0 0 19 19" fill="none" xmlns="http://www.w3.org/2000/svg">
<path d="M9 6.66664H3.55556C3.143 6.66664 2.74733 6.83053 2.45561 7.12225C2.16389 7.41397 2 7.80964 2 8.2222V11.3333C2 11.7459 2.16389 12.1415 2.45561 12.4332C2.74733 12.725 3.143 12.8889 3.55556 12.8889H5.88889M9 11.3333H14.4444C14.857 11.3333 15.2527 11.1694 15.5444 10.8777C15.8361 10.586 16 10.1903 16 9.77775V6.66664C16 6.25408 15.8361 5.85842 15.5444 5.5667C15.2527 5.27497 14.857 5.11108 14.4444 5.11108H12.1111" stroke="#38D8CC" stroke-width="1.2" stroke-linecap="round" stroke-linejoin="round"/>
<path d="M5.88843 6.66667V3.55556C5.88843 3.143 6.05232 2.74733 6.34404 2.45561C6.63576 2.16389 7.03142 2 7.44398 2H10.5551C10.9677 2 11.3633 2.16389 11.655 2.45561C11.9468 2.74733 12.1107 3.143 12.1107 3.55556V7.44444C12.1107 7.857 11.9468 8.25266 11.655 8.54439C11.3633 8.83611 10.9677 9 10.5551 9H7.44398C7.03142 9 6.63576 9.16389 6.34404 9.45561C6.05232 9.74734 5.88843 10.143 5.88843 10.5556V14.4444C5.88843 14.857 6.05232 15.2527 6.34404 15.5444C6.63576 15.8361 7.03142 16 7.44398 16H10.5551C10.9677 16 11.3633 15.8361 11.655 15.5444C11.9468 15.2527 12.1107 14.857 12.1107 14.4444V11.3333M8.22176 4.33333V4.34111M9.77732 13.6667V13.6744" stroke="#38D8CC" stroke-width="1.2" stroke-linecap="round" stroke-linejoin="round"/>
</svg>
