<svg width="19" height="19" viewBox="0 0 19 19" fill="none" xmlns="http://www.w3.org/2000/svg">
<g clip-path="url(#clip0_1457_608)">
<path d="M13.4437 15.2464L13.4436 15.2464C13.1572 15.412 12.7369 15.378 12.2125 15.1324C11.7096 14.8969 11.1314 14.4757 10.5268 13.8983C10.9716 13.4065 11.3865 12.8884 11.7694 12.3469C12.4632 12.2814 13.1224 12.1795 13.734 12.0471C13.9317 12.8588 14.0074 13.5698 13.96 14.1231C13.9106 14.7 13.7301 15.0811 13.4437 15.2464ZM14.6447 6.30421C14.8831 5.31581 14.961 4.42158 14.8563 3.69598C14.7486 2.94977 14.4454 2.36987 13.9118 2.06144L13.9117 2.06141C13.3781 1.75337 12.7244 1.78073 12.0244 2.06066C11.3437 2.33285 10.6082 2.84756 9.87134 3.54842C9.13483 2.84756 8.39952 2.33286 7.71895 2.06067C7.01901 1.78073 6.36532 1.75337 5.83167 2.06141L5.83162 2.06144C5.29801 2.36987 4.9948 2.94977 4.88713 3.69598C4.78243 4.42153 4.86031 5.31569 5.09867 6.304C4.12344 6.59146 3.31006 6.97092 2.73409 7.4243C2.14171 7.89058 1.79124 8.44316 1.79124 9.05962C1.79124 9.67608 2.14171 10.2287 2.73409 10.6949C3.31006 11.1483 4.12344 11.5278 5.09867 11.8152C4.8603 12.8035 4.78224 13.6977 4.88684 14.4232C4.99442 15.1693 5.29762 15.749 5.83162 16.057C6.36529 16.3655 7.01901 16.3381 7.71895 16.0582C8.39952 15.786 9.13482 15.2713 9.87132 14.5708C10.6082 15.2717 11.3437 15.7864 12.0244 16.0585C12.7244 16.3383 13.3781 16.3655 13.9118 16.057C14.4454 15.749 14.7486 15.1693 14.8563 14.4232C14.961 13.6977 14.8831 12.8035 14.6447 11.8152C15.62 11.5278 16.4333 11.1483 17.0093 10.6949C17.6017 10.2287 17.9522 9.67608 17.9522 9.05962C17.9522 8.44314 17.6015 7.89056 17.0089 7.42429C16.4329 6.97103 15.6196 6.59164 14.6447 6.30421ZM6.2997 15.2464L6.29967 15.2463C6.01286 15.081 5.83224 14.7001 5.78273 14.1233C5.73524 13.57 5.81098 12.8585 6.00887 12.0461C6.65734 12.1853 7.31358 12.2855 7.97407 12.3462C8.35664 12.8879 8.77133 13.4062 9.2159 13.8983C8.6117 14.4757 8.03368 14.8967 7.53083 15.1321C7.00651 15.3776 6.58619 15.4117 6.2997 15.2464ZM12.6304 9.05959C12.2286 9.88827 11.7673 10.6867 11.2501 11.4487C10.3321 11.5152 9.41051 11.5152 8.49253 11.4487C7.97564 10.6867 7.51459 9.88822 7.113 9.05962C7.51477 8.23097 7.97607 7.43252 8.49327 6.67056C9.41151 6.60395 10.3334 6.60395 11.2516 6.67056C11.7683 7.43255 12.2291 8.23099 12.6304 9.05959ZM9.87141 13.2204C9.64868 12.9731 9.42481 12.7069 9.20305 12.4239C9.64869 12.4382 10.0947 12.4382 10.5403 12.4239C10.3182 12.7074 10.0946 12.9731 9.87141 13.2204ZM12.2126 2.98675C12.7369 2.74109 13.1572 2.70681 13.4436 2.87207C13.7302 3.03775 13.9108 3.41893 13.9603 3.9958C14.0078 4.549 13.9321 5.26005 13.7341 6.07206C13.1224 5.93908 12.4631 5.83776 11.7694 5.77236C11.3867 5.23093 10.972 4.71287 10.5275 4.22092C11.1317 3.64353 11.7097 3.22237 12.2126 2.98675ZM9.20328 5.69537C9.42524 5.41238 9.64827 5.14667 9.87127 4.89896C10.1032 5.15683 10.3263 5.42246 10.5403 5.69537C10.0947 5.68108 9.64884 5.68108 9.20328 5.69537ZM7.97397 5.77241C7.2803 5.83849 6.62171 5.93983 6.01008 6.07215C5.81205 5.26046 5.73639 4.54939 5.78386 3.99608C5.83337 3.41912 6.01399 3.03777 6.3005 2.87209C6.58655 2.70683 7.00663 2.74106 7.53089 2.98675C8.03366 3.22237 8.61168 3.64353 9.21589 4.22091C8.77131 4.71279 8.35659 5.23089 7.97397 5.77241ZM12.4501 11.3203C12.6853 10.9416 12.9087 10.5554 13.1192 10.1623C13.2487 10.4841 13.3673 10.8102 13.4747 11.14C13.1487 11.2093 12.8065 11.2697 12.4501 11.3203ZM6.26781 6.97924C6.59412 6.90983 6.93647 6.84885 7.29304 6.79813C7.05781 7.17708 6.83479 7.56347 6.62432 7.95671C6.48987 7.6225 6.3708 7.29584 6.26781 6.97924ZM7.29256 11.3203C6.93615 11.2698 6.59402 11.2093 6.26796 11.14C6.37564 10.8102 6.49445 10.484 6.62417 10.1622C6.83454 10.5553 7.05745 10.9415 7.29256 11.3203ZM6.07543 9.05978C5.78595 9.69327 5.54428 10.3149 5.35302 10.911C4.55119 10.6762 3.89755 10.3861 3.44213 10.0684C2.96718 9.73703 2.72736 9.39019 2.72736 9.05962C2.72736 8.72903 2.9672 8.382 3.44214 8.05058C3.89759 7.73275 4.55128 7.4426 5.35318 7.2082C5.55675 7.83924 5.79793 8.45754 6.07543 9.05978ZM13.1199 7.95604C12.9095 7.56303 12.6866 7.17686 12.4516 6.79811C12.795 6.84692 13.1368 6.90735 13.4762 6.9793C13.3728 7.29591 13.2541 7.62246 13.1199 7.95604ZM14.3906 10.9109C14.2004 10.3146 13.9574 9.69298 13.6679 9.05962C13.9574 8.42626 14.2004 7.80459 14.3906 7.20832C15.1927 7.44305 15.8465 7.73316 16.3019 8.05087C16.777 8.3822 17.0168 8.72905 17.0168 9.05962C17.0168 9.39018 16.777 9.73703 16.3019 10.0684C15.8465 10.3861 15.1927 10.6762 14.3906 10.9109ZM9.28153 10.4683C9.47038 10.5411 9.67196 10.5753 9.87428 10.5687C10.266 10.5559 10.6374 10.3913 10.9099 10.1097C11.1825 9.8281 11.3349 9.45153 11.3349 9.05962C11.3349 8.6677 11.1825 8.29114 10.9099 8.00953C10.6374 7.72792 10.266 7.56333 9.87428 7.55055C9.67196 7.54395 9.47038 7.57809 9.28153 7.65096C9.09268 7.72383 8.9204 7.83393 8.77495 7.97471C8.6295 8.11549 8.51384 8.28408 8.43486 8.47046C8.35587 8.65684 8.31517 8.85719 8.31517 9.05962C8.31517 9.26204 8.35587 9.4624 8.43486 9.64878C8.51384 9.83515 8.6295 10.0037 8.77495 10.1445C8.9204 10.2853 9.09268 10.3954 9.28153 10.4683Z" fill="#38D8CC" stroke="#38D8CC" stroke-width="0.181185"/>
</g>
<defs>
<clipPath id="clip0_1457_608">
<rect width="18.1185" height="18.1185" fill="white" transform="translate(0.812012)"/>
</clipPath>
</defs>
</svg>
