<svg width="45" height="12" viewBox="0 0 45 12" fill="none" xmlns="http://www.w3.org/2000/svg">
<path d="M0.46875 8.97266C0.46875 8.75781 0.480469 8.56055 0.503906 8.38086C0.53125 8.19727 0.570312 8 0.621094 7.78906H1.79883V8.27539C1.79883 8.54492 1.81445 8.7832 1.8457 8.99023C1.88086 9.19727 1.93555 9.37305 2.00977 9.51758C2.08789 9.6582 2.18945 9.76562 2.31445 9.83984C2.44336 9.91016 2.59961 9.94531 2.7832 9.94531C3.07227 9.94531 3.29297 9.86719 3.44531 9.71094C3.59766 9.55078 3.67383 9.31836 3.67383 9.01367C3.67383 8.85742 3.66211 8.71484 3.63867 8.58594C3.61914 8.45312 3.58203 8.32227 3.52734 8.19336C3.47656 8.06445 3.40625 7.92969 3.31641 7.78906C3.22656 7.64453 3.11133 7.48438 2.9707 7.30859L1.38867 5.42773C1.10742 5.06836 0.890625 4.70703 0.738281 4.34375C0.585938 3.97656 0.509766 3.58594 0.509766 3.17188C0.509766 2.83984 0.560547 2.53516 0.662109 2.25781C0.767578 1.98047 0.917969 1.74219 1.11328 1.54297C1.30859 1.33984 1.54883 1.18359 1.83398 1.07422C2.12305 0.960938 2.44922 0.904297 2.8125 0.904297C3.25391 0.904297 3.62109 0.966797 3.91406 1.0918C4.21094 1.2168 4.44727 1.38086 4.62305 1.58398C4.79883 1.78711 4.92188 2.01563 4.99219 2.26953C5.06641 2.51953 5.10352 2.77148 5.10352 3.02539C5.10352 3.24023 5.08594 3.43945 5.05078 3.62305C5.01953 3.80273 4.98242 4.00195 4.93945 4.2207H3.76758V3.74609C3.76758 3.21484 3.69141 2.80859 3.53906 2.52734C3.38672 2.24219 3.13867 2.09961 2.79492 2.09961C2.50977 2.09961 2.29688 2.17969 2.15625 2.33984C2.01562 2.49609 1.94531 2.70703 1.94531 2.97266C1.94531 3.11328 1.95508 3.24023 1.97461 3.35352C1.99805 3.4668 2.0293 3.57227 2.06836 3.66992C2.11133 3.76367 2.16211 3.85547 2.2207 3.94531C2.2793 4.03516 2.3457 4.12891 2.41992 4.22656L4.18359 6.35938C4.50391 6.77734 4.75 7.17969 4.92188 7.56641C5.09375 7.94922 5.17969 8.35547 5.17969 8.78516C5.17969 9.14062 5.12305 9.46094 5.00977 9.74609C4.90039 10.0312 4.74219 10.2734 4.53516 10.4727C4.32812 10.6719 4.07812 10.8262 3.78516 10.9355C3.49219 11.041 3.16211 11.0938 2.79492 11.0938C2.3418 11.0938 1.96484 11.0332 1.66406 10.9121C1.36719 10.791 1.12891 10.6309 0.949219 10.4316C0.773438 10.2324 0.648438 10.0059 0.574219 9.75195C0.503906 9.49805 0.46875 9.23828 0.46875 8.97266ZM6.45703 0.992188H7.97461C8.16602 0.992188 8.375 1.00195 8.60156 1.02148C8.83203 1.03711 9.06055 1.07813 9.28711 1.14453C9.51758 1.20703 9.73828 1.30469 9.94922 1.4375C10.1641 1.57031 10.3535 1.75195 10.5176 1.98242C10.6816 2.20898 10.8125 2.49414 10.9102 2.83789C11.0117 3.18164 11.0625 3.59961 11.0625 4.0918V4.44336C11.0625 4.97852 11.0156 5.4375 10.9219 5.82031C10.832 6.19922 10.7109 6.51953 10.5586 6.78125C10.4062 7.03906 10.2285 7.24609 10.0254 7.40234C9.82617 7.55859 9.61719 7.67773 9.39844 7.75977C9.18359 7.83789 8.96484 7.89062 8.74219 7.91797C8.52344 7.94141 8.31641 7.95312 8.12109 7.95312H7.97461V11H6.45703V0.992188ZM8.05078 6.83984C8.32422 6.83984 8.55469 6.80078 8.74219 6.72266C8.92969 6.64062 9.07812 6.51562 9.1875 6.34766C9.30078 6.17578 9.38086 5.95703 9.42773 5.69141C9.47852 5.42188 9.50391 5.09961 9.50391 4.72461V3.82227C9.50391 3.52539 9.48242 3.26953 9.43945 3.05469C9.39648 2.83594 9.31836 2.65625 9.20508 2.51562C9.0957 2.375 8.94727 2.27148 8.75977 2.20508C8.57227 2.13477 8.33594 2.09961 8.05078 2.09961H7.97461V6.83984H8.05078ZM13.3125 0.992188H15.0586L16.9102 11H15.375L15.0996 9.20703H13.2715L13.0078 11H11.4668L13.3125 0.992188ZM14.9238 8.06445L14.2207 3.07812H14.1562L13.4473 8.06445H14.9238ZM20.0391 11.0879C19.8828 11.0879 19.7129 11.0742 19.5293 11.0469C19.3496 11.0234 19.168 10.9707 18.9844 10.8887C18.8047 10.8066 18.6309 10.6914 18.4629 10.543C18.2988 10.3906 18.1523 10.1914 18.0234 9.94531C17.8984 9.69922 17.7969 9.39648 17.7188 9.03711C17.6445 8.67383 17.6074 8.24219 17.6074 7.74219V4.19727C17.6074 3.69336 17.6465 3.26367 17.7246 2.9082C17.8027 2.54883 17.9062 2.24805 18.0352 2.00586C18.1641 1.75977 18.3125 1.56445 18.4805 1.41992C18.6484 1.27539 18.8223 1.16602 19.002 1.0918C19.1816 1.01367 19.3594 0.962891 19.5352 0.939453C19.7148 0.916016 19.8809 0.904297 20.0332 0.904297C20.4316 0.904297 20.7637 0.960938 21.0293 1.07422C21.2988 1.18359 21.5137 1.33594 21.6738 1.53125C21.8379 1.72266 21.9531 1.94727 22.0195 2.20508C22.0898 2.46289 22.125 2.73633 22.125 3.02539C22.125 3.24023 22.1133 3.43945 22.0898 3.62305C22.0703 3.80273 22.0391 4.00195 21.9961 4.2207H20.7656V3.71094C20.7656 3.16016 20.7051 2.74805 20.584 2.47461C20.4629 2.20117 20.2852 2.06445 20.0508 2.06445C19.9102 2.06445 19.7871 2.0918 19.6816 2.14648C19.5762 2.20117 19.4883 2.29492 19.418 2.42773C19.3477 2.55664 19.293 2.72852 19.2539 2.94336C19.2188 3.1582 19.2012 3.42578 19.2012 3.74609V8.31641C19.2012 8.62891 19.2148 8.88867 19.2422 9.0957C19.2734 9.30273 19.3223 9.46875 19.3887 9.59375C19.4551 9.71875 19.541 9.80859 19.6465 9.86328C19.7559 9.91406 19.8867 9.93945 20.0391 9.93945C20.1367 9.93945 20.2305 9.91797 20.3203 9.875C20.4102 9.82812 20.4883 9.75781 20.5547 9.66406C20.625 9.56641 20.6797 9.44531 20.7188 9.30078C20.7617 9.15234 20.7832 8.97852 20.7832 8.7793V7.80078H22.1719V8.72656C22.1719 9.53125 21.9883 10.125 21.6211 10.5078C21.2539 10.8906 20.7266 11.084 20.0391 11.0879ZM23.3672 0.992188H27.0762V2.1875H24.8848V5.18164H26.5781V6.37695H24.8848V9.80469H27.1348V11H23.3672V0.992188ZM28.2305 0.992188H29.7656C29.9922 0.992188 30.2266 1 30.4688 1.01562C30.7109 1.03125 30.9473 1.06445 31.1777 1.11523C31.4082 1.16602 31.627 1.24219 31.834 1.34375C32.041 1.44141 32.2207 1.57422 32.373 1.74219C32.5293 1.91016 32.6523 2.11914 32.7422 2.36914C32.8359 2.61523 32.8828 2.91211 32.8828 3.25977V3.74609C32.8828 4.01172 32.8438 4.25586 32.7656 4.47852C32.6914 4.70117 32.5918 4.89844 32.4668 5.07031C32.3418 5.23828 32.1992 5.37891 32.0391 5.49219C31.8789 5.60156 31.7148 5.67578 31.5469 5.71484V5.76172C32.043 5.85156 32.416 6.08789 32.666 6.4707C32.9199 6.84961 33.0469 7.33594 33.0469 7.92969V8.43945C33.0469 8.80273 33.0059 9.11914 32.9238 9.38867C32.8457 9.6543 32.7344 9.88281 32.5898 10.0742C32.4453 10.2617 32.2734 10.416 32.0742 10.5371C31.875 10.6582 31.6562 10.7539 31.418 10.8242C31.1797 10.8906 30.9258 10.9375 30.6562 10.9648C30.3867 10.9883 30.1094 11 29.8242 11H28.2305V0.992188ZM30.0117 5.27539C30.2148 5.27539 30.4004 5.25195 30.5684 5.20508C30.7363 5.1543 30.8789 5.07812 30.9961 4.97656C31.1172 4.87109 31.209 4.73633 31.2715 4.57227C31.3379 4.4043 31.3711 4.20312 31.3711 3.96875V3.55859C31.3711 3.32422 31.3477 3.11719 31.3008 2.9375C31.2539 2.75781 31.1758 2.60547 31.0664 2.48047C30.9609 2.35547 30.8203 2.26172 30.6445 2.19922C30.4727 2.13281 30.2617 2.09961 30.0117 2.09961H29.7188V5.27539H30.0117ZM30.1523 9.94531C30.3555 9.94531 30.5391 9.91992 30.7031 9.86914C30.8711 9.81445 31.0137 9.73242 31.1309 9.62305C31.252 9.50977 31.3438 9.36719 31.4062 9.19531C31.4727 9.02344 31.5059 8.82031 31.5059 8.58594V7.80664C31.5059 7.57227 31.4824 7.36523 31.4355 7.18555C31.3887 7.00195 31.3105 6.84961 31.2012 6.72852C31.0957 6.60352 30.957 6.50977 30.7852 6.44727C30.6133 6.38086 30.4023 6.34766 30.1523 6.34766H29.7188V9.94531H30.1523ZM36.5859 11.0879C36.4258 11.0879 36.252 11.0742 36.0645 11.0469C35.877 11.0234 35.6914 10.9707 35.5078 10.8887C35.3242 10.8066 35.1465 10.6914 34.9746 10.543C34.8066 10.3906 34.6562 10.1914 34.5234 9.94531C34.3945 9.69922 34.291 9.39648 34.2129 9.03711C34.1348 8.67383 34.0957 8.24219 34.0957 7.74219V4.19727C34.0957 3.69336 34.1348 3.26367 34.2129 2.9082C34.2949 2.54883 34.4023 2.24805 34.5352 2.00586C34.668 1.75977 34.8184 1.56445 34.9863 1.41992C35.1582 1.27539 35.3359 1.16602 35.5195 1.0918C35.707 1.01367 35.8926 0.962891 36.0762 0.939453C36.2598 0.916016 36.4297 0.904297 36.5859 0.904297C36.7344 0.904297 36.8984 0.916016 37.0781 0.939453C37.2617 0.958984 37.4434 1.00586 37.623 1.08008C37.8066 1.15039 37.9844 1.25781 38.1562 1.40234C38.3281 1.54297 38.4805 1.73633 38.6133 1.98242C38.7461 2.22461 38.8516 2.52734 38.9297 2.89062C39.0117 3.25 39.0527 3.68555 39.0527 4.19727V7.74219C39.0527 8.23828 39.0117 8.66602 38.9297 9.02539C38.8477 9.38086 38.7402 9.68359 38.6074 9.93359C38.4746 10.1797 38.3203 10.3789 38.1445 10.5312C37.9727 10.6797 37.7949 10.7969 37.6113 10.8828C37.4316 10.9648 37.252 11.0195 37.0723 11.0469C36.8926 11.0742 36.7305 11.0879 36.5859 11.0879ZM36.5859 9.94531C36.7344 9.94531 36.8633 9.91992 36.9727 9.86914C37.0859 9.81836 37.1777 9.73047 37.248 9.60547C37.3223 9.48047 37.377 9.31641 37.4121 9.11328C37.4512 8.90625 37.4707 8.64648 37.4707 8.33398V3.78125C37.4707 3.46094 37.4512 3.19336 37.4121 2.97852C37.377 2.76367 37.3223 2.5918 37.248 2.46289C37.1777 2.33008 37.0859 2.23633 36.9727 2.18164C36.8633 2.12695 36.7344 2.09961 36.5859 2.09961C36.4336 2.09961 36.3008 2.12695 36.1875 2.18164C36.0742 2.23633 35.9805 2.33008 35.9062 2.46289C35.832 2.5918 35.7754 2.76367 35.7363 2.97852C35.7012 3.19336 35.6836 3.46094 35.6836 3.78125V8.33398C35.6836 8.64648 35.7012 8.90625 35.7363 9.11328C35.7754 9.31641 35.832 9.48047 35.9062 9.60547C35.9805 9.73047 36.0742 9.81836 36.1875 9.86914C36.3008 9.91992 36.4336 9.94531 36.5859 9.94531ZM41.4141 2.1875H39.8027V0.992188H44.5371V2.1875H42.9316V11H41.4141V2.1875Z" fill="white"/>
</svg>
