<svg width="19" height="19" viewBox="0 0 19 19" fill="none" xmlns="http://www.w3.org/2000/svg">
<path d="M9.02873 15.476C9.01316 15.4669 8.99391 15.4669 8.97834 15.476L8.53831 15.7327C8.58572 15.814 8.65362 15.8815 8.73525 15.9284C8.81688 15.9753 8.90939 16 9.00354 16C9.09769 16 9.19019 15.9753 9.27182 15.9284C9.35345 15.8815 9.42135 15.814 9.46876 15.7327L9.02873 15.476ZM13.3111 2.50943C13.3111 2.52738 13.3208 2.54394 13.3363 2.55285L13.7785 2.80552C13.8253 2.72365 13.8497 2.63092 13.8494 2.53663C13.8491 2.44234 13.824 2.34978 13.7767 2.26823C13.7294 2.18667 13.6615 2.11897 13.5798 2.07189C13.4981 2.02482 13.4054 2.00003 13.3111 2V2.50943ZM9.02834 10.0909C9.01297 10.0822 8.9941 10.0822 8.97873 10.0909L8.53616 10.3438C8.58327 10.4262 8.65131 10.4946 8.73339 10.5422C8.81546 10.5898 8.90866 10.6149 9.00354 10.6149C9.09842 10.6149 9.19161 10.5898 9.27368 10.5422C9.35576 10.4946 9.4238 10.4262 9.47091 10.3438L9.02834 10.0909ZM4.67073 2.55285C4.68631 2.54394 4.69593 2.52738 4.69593 2.50943V2C4.60164 2.00003 4.509 2.02482 4.4273 2.07189C4.3456 2.11897 4.27769 2.18667 4.23037 2.26823C4.18305 2.34978 4.15797 2.44234 4.15765 2.53663C4.15733 2.63092 4.18178 2.72365 4.22855 2.80552L4.67073 2.55285ZM7.92663 2.45747C7.92663 2.49466 7.96579 2.51883 7.99903 2.50217L8.40801 2.29722L8.27426 2.02777C8.26581 2.01076 8.24846 2 8.22947 2H7.92663V2.45747ZM9.02594 4.70348C9.01184 4.69642 8.99523 4.69642 8.98114 4.70348L8.52216 4.93348C8.56693 5.0228 8.63566 5.0979 8.72067 5.15039C8.80569 5.20287 8.90363 5.23067 9.00354 5.23067C9.10345 5.23067 9.20138 5.20287 9.2864 5.15039C9.37141 5.0979 9.44014 5.0228 9.48491 4.93348L9.02594 4.70348ZM10.008 2.50217C10.0413 2.51883 10.0804 2.49466 10.0804 2.45747V2H9.77858C9.75964 2 9.74232 2.0107 9.73386 2.02764L9.59906 2.29722L10.008 2.50217ZM1.04319 2.78464C1.01934 2.79855 1.01128 2.82917 1.02519 2.85302L8.53831 15.7327L9.42557 15.2151C9.44942 15.2012 9.45748 15.1706 9.44356 15.1467L1.95564 2.31026C1.94172 2.28641 1.91111 2.27835 1.88725 2.29227L1.04319 2.78464ZM9.46876 15.7327L16.9819 2.85302C16.9958 2.82917 16.9877 2.79855 16.9639 2.78464L16.1198 2.29227C16.096 2.27835 16.0653 2.28641 16.0514 2.31026L8.56351 15.1467C8.54959 15.1706 8.55765 15.2012 8.5815 15.2151L9.46876 15.7327ZM12.8872 2.29619C12.8632 2.28249 12.8327 2.29082 12.819 2.31479L8.56097 9.76628C8.54727 9.79026 8.5556 9.8208 8.57957 9.8345L9.47091 10.3438L13.7785 2.80552L12.8872 2.29619ZM9.4275 9.8345C9.45148 9.8208 9.45981 9.79026 9.44611 9.76628L5.18811 2.31479C5.17441 2.29082 5.14387 2.28249 5.11989 2.29619L4.22855 2.80552L8.53616 10.3438L9.4275 9.8345ZM4.69593 3.0269C4.69593 3.05452 4.71831 3.0769 4.74593 3.0769H7.87663C7.90425 3.0769 7.92663 3.05452 7.92663 3.0269V2H4.69593V3.0269ZM7.48992 2.7573C7.46525 2.76966 7.45526 2.79968 7.4676 2.82436L8.52216 4.93348L9.44025 4.47341C9.46492 4.46105 9.47491 4.43103 9.46257 4.40635L8.40801 2.29722L7.48992 2.7573ZM9.48491 4.93348L10.5395 2.82436C10.5518 2.79968 10.5418 2.76966 10.5172 2.7573L9.59906 2.29722L8.5445 4.40635C8.53216 4.43103 8.54215 4.46105 8.56682 4.47341L9.48491 4.93348ZM10.0804 3.0269C10.0804 3.05452 10.1028 3.0769 10.1304 3.0769H13.2611C13.2888 3.0769 13.3111 3.05452 13.3111 3.0269V2H10.0804V3.0269Z" fill="#38D8CC"/>
</svg>
