<svg width="145" height="137" viewBox="0 0 145 137" fill="none" xmlns="http://www.w3.org/2000/svg">
<path d="M1.62946 0.793248C1.92529 0.581695 2.44651 0.327831 2.79869 0.215003C3.34809 0.0316573 12.8851 0.0175537 141.768 0.0598643L142.36 0.370142C142.698 0.553488 143.177 0.877869 143.416 1.10353C143.67 1.31508 144.064 1.90743 144.29 2.40105C144.642 3.19085 144.684 3.4165 144.628 4.29092C144.585 4.84096 144.445 5.48972 144.304 5.77179C144.163 6.03976 142.965 7.76039 141.655 9.57974C140.435 11.257 137.753 14.9837 135.466 18.1635L134.894 18.9586C132.499 22.287 130.343 25.2347 130.09 25.4885C129.85 25.7424 129.371 26.095 128.385 26.5745L62.1759 26.7155L61.4715 27.0399C61.0912 27.2233 60.5277 27.604 60.2318 27.8861C59.9501 28.1682 59.5697 28.7182 59.4007 29.1131C59.1894 29.6068 59.0908 30.1004 59.0908 30.735C59.0908 31.5953 59.2457 32.0608 61.4152 37.4906C63.0634 41.6371 63.8522 43.4705 64.1621 43.8372C64.4016 44.1193 64.9369 44.5424 66.1203 45.1911L91.153 45.2194C111.086 45.2476 116.2 45.304 116.2 45.4309C116.186 45.5296 115.228 47.0105 114.059 48.717C112.875 50.4236 111.368 52.5532 110.692 53.4417C110.016 54.3302 108.846 55.797 108.072 56.6855C107.311 57.574 105.775 59.2242 104.648 60.3524C103.522 61.4807 101.789 63.1026 100.789 63.9488C99.8025 64.795 98.253 66.0644 97.3373 66.7413C96.4357 67.4324 94.8157 68.5889 93.731 69.3082C92.6463 70.0275 90.5614 71.2968 89.0822 72.1289C87.6031 72.9751 86.0958 73.8495 85.7154 74.0893C85.3492 74.329 84.8561 74.8085 84.6166 75.1611C84.3912 75.5137 84.1517 76.0215 84.0813 76.2894C84.0109 76.5574 83.9123 84.7797 83.8559 94.5535C83.7714 111.337 83.7432 112.366 83.5037 113.029C83.3347 113.48 82.9966 113.974 82.574 114.383C82.1936 114.736 78.2493 117.81 73.7977 121.209C69.3462 124.608 63.8241 128.839 61.5419 130.588C59.3344 132.28 56.7314 134.262 55.6583 135.079L55.5549 135.158C54.2026 136.173 53.5264 136.596 52.9488 136.751C52.4417 136.892 51.9345 136.935 51.4697 136.878C51.0752 136.836 50.4836 136.653 50.1314 136.483C49.7792 136.3 49.2862 135.961 49.0326 135.708C48.7931 135.454 48.4409 134.974 47.9479 134.043L47.8774 104.638L47.8771 104.5C47.807 75.4144 47.8066 75.2308 47.5253 74.6675C47.3562 74.3572 44.6374 70.3236 41.4819 65.7118C38.3123 61.0999 34.4102 55.4162 32.8042 53.0891C31.1983 50.762 28.1555 46.3194 26.0142 43.2167C23.8871 40.1139 20.309 34.9097 18.0832 31.6518L18.0804 31.6477C15.8409 28.3902 12.8563 24.0491 11.4482 21.9908C10.0254 19.9317 7.053 15.5878 4.81315 12.344C2.58738 9.08612 0.615188 6.16669 0.432056 5.85641C0.26301 5.53203 0.0798779 4.89737 0.0235294 4.43196C-0.032819 3.82551 0.00944232 3.3883 0.178488 2.88057C0.305272 2.49977 0.55884 1.94974 0.756059 1.68177C0.939192 1.4138 1.33363 1.0189 1.62946 0.793248Z" fill="#D39DC8"/>
</svg>
