<svg width="19" height="19" viewBox="0 0 19 19" fill="none" xmlns="http://www.w3.org/2000/svg">
<path d="M3.08984 13.4828L7.73309 3.88273H7.71799C8.00489 3.27658 8.68439 3.04722 9.23554 3.36668C9.43184 3.48136 9.59794 3.66157 9.70364 3.87454L10.5039 5.52097" stroke="#38D8CC" stroke-width="1.2" stroke-linecap="round" stroke-linejoin="round"/>
<path d="M11.3496 4.80037C11.7875 4.31709 12.5047 4.31709 12.9426 4.79218C13.1087 4.97238 13.2144 5.20174 13.2522 5.45566L14.3847 12.9179C14.4602 13.4257 14.2337 13.9336 13.8109 14.1793L9.22804 16.5548C8.88074 16.7595 8.46549 16.7677 8.12574 16.5548L3.58064 14.1629C3.16539 13.909 2.93889 13.4093 3.01439 12.9015L4.49419 3.03926C4.58479 2.36758 5.16614 1.90887 5.77769 2.01536C6.12499 2.07269 6.43454 2.31024 6.60064 2.64608L7.53684 4.08773M3.12009 13.5895L11.3722 4.84132" stroke="#38D8CC" stroke-width="1.2" stroke-linecap="round" stroke-linejoin="round"/>
</svg>
