<svg width="19" height="19" viewBox="0 0 19 19" fill="none" xmlns="http://www.w3.org/2000/svg">
<g clip-path="url(#clip0_1459_949)">
<path d="M9.06 3.62402C6.80467 3.62402 5.39614 4.83202 4.832 7.24802C5.6776 6.04002 6.66454 5.58702 7.7916 5.88902C8.43547 6.06177 8.89451 6.56188 9.40308 7.11514C10.233 8.01631 11.1921 9.06002 13.288 9.06002C15.5433 9.06002 16.9519 7.85202 17.516 5.43602C16.6704 6.64402 15.6835 7.09702 14.5564 6.79502C13.9125 6.62228 13.4535 6.12217 12.9449 5.5689C12.115 4.66774 11.1559 3.62402 9.06 3.62402ZM4.832 9.06002C2.57667 9.06002 1.16814 10.268 0.604004 12.684C1.4496 11.476 2.43654 11.023 3.5636 11.325C4.20747 11.4978 4.66651 11.9979 5.17508 12.5511C6.00497 13.4523 6.96412 14.496 9.06 14.496C11.3153 14.496 12.7239 13.288 13.288 10.872C12.4424 12.08 11.4555 12.533 10.3284 12.231C9.68454 12.0583 9.2255 11.5582 8.71693 11.0049C7.88704 10.1037 6.92788 9.06002 4.832 9.06002Z" stroke="#38D8CC" stroke-linejoin="round"/>
</g>
<defs>
<clipPath id="clip0_1459_949">
<rect width="18.12" height="18.12" fill="white"/>
</clipPath>
</defs>
</svg>
