<svg width="19" height="19" viewBox="0 0 19 19" fill="none" xmlns="http://www.w3.org/2000/svg">
<mask id="path-1-outside-1_1549_643" maskUnits="userSpaceOnUse" x="-0.100098" y="-0.439941" width="18" height="19" fill="black">
<rect fill="white" x="-0.100098" y="-0.439941" width="18" height="19"/>
<path d="M15.3719 9.87252L15.4569 9.23856C16.1277 9.64656 16.3479 9.89164 16.4159 9.99718C16.3026 10.0191 16.0179 10.0298 15.3719 9.87252ZM13.8319 15.5307C13.8296 15.5478 13.8284 15.5651 13.8284 15.5824C13.8284 15.6419 13.6818 15.8693 13.0322 16.1264C12.7006 16.2531 12.3602 16.3554 12.0137 16.4324C11.0184 16.6626 9.79799 16.7894 8.57611 16.7894C5.30928 16.7894 3.32594 15.9507 3.32594 15.5824C3.32592 15.5651 3.32474 15.5478 3.3224 15.5307L1.84057 4.52814C1.93619 4.58339 2.0389 4.63723 2.14657 4.68893C2.17632 4.7031 2.20749 4.71585 2.23724 4.72931C2.33215 4.77323 2.4299 4.81573 2.53261 4.85681L2.6594 4.90568C2.76849 4.94677 2.88182 4.98643 2.99799 5.02468C3.02844 5.03389 3.05749 5.04523 3.09007 5.05514C3.23669 5.10118 3.38969 5.1451 3.54765 5.1876L3.67232 5.21877C3.79628 5.24993 3.92236 5.28039 4.05057 5.30873C4.24886 5.35252 4.44793 5.39266 4.64769 5.42914L4.7334 5.44543C4.9119 5.47731 5.09324 5.50564 5.2774 5.53185C5.32769 5.53964 5.3794 5.54602 5.4304 5.5531C5.57207 5.57222 5.71374 5.59064 5.85824 5.60764L6.02824 5.62677C6.20178 5.64518 6.37532 5.66218 6.5524 5.67635L6.60978 5.68273C6.80457 5.69831 7.00078 5.71106 7.19769 5.72239L7.36274 5.73089C7.51149 5.73798 7.66165 5.74364 7.81111 5.7486C8.47101 5.77035 9.13153 5.76421 9.7909 5.73018L9.95524 5.72239C10.1522 5.71106 10.3484 5.69831 10.5432 5.68273L10.5998 5.67706C10.7769 5.66289 10.9519 5.64518 11.1254 5.62606L11.294 5.60764C11.4392 5.59064 11.583 5.57222 11.7254 5.5531C11.7749 5.54602 11.8252 5.53964 11.8748 5.53185C12.0597 5.50564 12.2424 5.4766 12.4217 5.44543L12.5003 5.43127C12.6526 5.40293 12.8027 5.37318 12.9494 5.34273L13.0995 5.30943C13.2313 5.28039 13.3602 5.24922 13.4863 5.21735L13.6039 5.1876C13.7632 5.1451 13.9184 5.10118 14.0671 5.05373C14.0954 5.04523 14.1217 5.03531 14.1486 5.02681C14.266 4.98884 14.3824 4.94798 14.4978 4.90427C14.5389 4.88939 14.5785 4.8731 14.6182 4.85752C14.7244 4.81502 14.8257 4.77252 14.9228 4.72648C14.9497 4.71443 14.9787 4.70239 15.0049 4.68964C15.1133 4.63793 15.2174 4.58339 15.3138 4.52814L14.6224 9.66002C12.8601 9.10752 10.5106 8.03652 9.44382 7.53502C9.44288 7.33111 9.36132 7.13585 9.21693 6.99186C9.07255 6.84787 8.87706 6.76685 8.67315 6.76648C8.24815 6.76648 7.90249 7.11285 7.90249 7.53714C7.90249 7.96214 8.24815 8.30852 8.67315 8.30852C8.81199 8.30852 8.9409 8.26885 9.05353 8.20368C10.2719 8.77885 12.6972 9.88031 14.5183 10.4349L13.8319 15.5307ZM8.57611 1.33073C12.5973 1.33073 15.4299 2.57668 15.4824 3.26873L15.4724 3.34877C15.4654 3.37214 15.4505 3.39623 15.4384 3.42031C15.4278 3.44014 15.42 3.46068 15.4052 3.48193C15.3882 3.50531 15.3641 3.5301 15.3414 3.55418C15.3216 3.57543 15.3053 3.59668 15.2819 3.61793C15.255 3.64273 15.2203 3.66752 15.1877 3.69231C15.1594 3.71356 15.1353 3.73481 15.1034 3.75677C15.0659 3.78227 15.0212 3.80706 14.978 3.83256C14.9426 3.85381 14.9107 3.87506 14.8718 3.89631C14.8236 3.92181 14.7677 3.94802 14.7145 3.97423C14.6727 3.99406 14.6338 4.0146 14.5892 4.03443C14.5297 4.06135 14.4638 4.08685 14.3993 4.11306C14.3512 4.13218 14.3072 4.15131 14.2555 4.17114C14.1868 4.19664 14.1103 4.22214 14.0359 4.24693C13.9828 4.26535 13.9311 4.28448 13.8744 4.30289C13.7958 4.32768 13.7094 4.35177 13.6265 4.37585C13.5663 4.39285 13.5097 4.41127 13.4473 4.42756C13.3595 4.45164 13.2646 4.4736 13.1718 4.49698C13.1059 4.51256 13.0436 4.52956 12.9749 4.54514C12.8764 4.56781 12.7716 4.58835 12.6682 4.6096C12.5987 4.62377 12.5329 4.63864 12.4606 4.6521C12.3508 4.67335 12.2339 4.69248 12.1192 4.7116C12.0484 4.72435 11.9789 4.7371 11.9053 4.74843C11.7877 4.76685 11.663 4.78243 11.5405 4.79943C11.4626 4.80935 11.3896 4.82068 11.3103 4.8306C11.1821 4.84689 11.0468 4.85964 10.9136 4.8731C10.8357 4.8816 10.7592 4.89081 10.6784 4.8986C10.5453 4.90993 10.405 4.91914 10.2676 4.92906C10.1812 4.93543 10.0976 4.94323 10.0098 4.94889C9.86315 4.95739 9.71086 4.96306 9.55999 4.96873C9.47499 4.97227 9.39424 4.97722 9.30924 4.98006C8.82082 4.99426 8.3321 4.99426 7.84369 4.98006C7.75869 4.97722 7.67794 4.97227 7.59436 4.96873C7.44278 4.96306 7.28978 4.95739 7.14315 4.94889C7.05673 4.94323 6.97457 4.93473 6.88815 4.92977C6.75003 4.91914 6.60907 4.90993 6.47449 4.8986C6.39657 4.89152 6.32219 4.8816 6.24499 4.87381C6.1104 4.85964 5.97299 4.84689 5.84265 4.83131L5.61953 4.80014C5.49486 4.78314 5.36807 4.76756 5.24765 4.74843C5.17682 4.73781 5.11165 4.72506 5.04224 4.71302C4.92394 4.69318 4.80494 4.67406 4.69232 4.6521C4.62432 4.63935 4.56269 4.62518 4.49682 4.61243C4.38986 4.58977 4.28078 4.56852 4.17807 4.54514C4.11432 4.53098 4.05553 4.51468 3.9939 4.49981C3.89615 4.47573 3.79769 4.45235 3.70561 4.42756C3.64753 4.41198 3.5944 4.39498 3.53915 4.37868C3.45185 4.3546 3.36495 4.3291 3.27849 4.30218C3.22536 4.28518 3.17861 4.26748 3.12761 4.25048C3.04969 4.22427 2.96965 4.19735 2.8974 4.17043C2.84994 4.15273 2.80886 4.13431 2.76424 4.11589C2.69624 4.08898 2.62611 4.06206 2.56449 4.03443C2.52199 4.01531 2.48657 3.99618 2.4469 3.97777C2.39024 3.95014 2.33215 3.92323 2.28186 3.8956C2.24503 3.87577 2.21528 3.85664 2.18128 3.8361C2.13665 3.80918 2.08919 3.78298 2.05024 3.75606C2.01978 3.73552 1.99711 3.71498 1.97019 3.69514C1.93619 3.66893 1.90078 3.64343 1.87174 3.61723C1.84907 3.59668 1.83349 3.57685 1.81507 3.5556C1.79169 3.53081 1.76619 3.50602 1.74919 3.48193C1.73503 3.46068 1.72724 3.44085 1.71661 3.42102C1.70386 3.39623 1.68899 3.37285 1.6819 3.34877L1.67128 3.26873C1.72511 2.57668 4.55703 1.33073 8.57611 1.33073ZM17.205 9.91856C17.1214 9.47372 16.61 9.0041 15.5688 8.41122L16.2509 3.33956C16.2533 3.32242 16.2545 3.30515 16.2544 3.28785C16.2552 1.67993 12.2084 0.560059 8.57682 0.560059C4.9459 0.560059 0.899902 1.67993 0.899902 3.28785C0.900023 3.30491 0.901206 3.32194 0.903444 3.33885L2.55528 15.6121C2.60557 17.0302 6.26411 17.5601 8.57611 17.5601C9.85465 17.5601 11.1367 17.4269 12.1872 17.1839C12.6108 17.0862 12.9897 16.9714 13.3149 16.8439C14.1507 16.5131 14.5821 16.0981 14.5991 15.6121L15.2684 10.6411C15.663 10.7339 15.9881 10.7806 16.2523 10.7806C16.6348 10.7806 16.8912 10.6836 17.0556 10.4881C17.1216 10.4104 17.1693 10.3189 17.1951 10.2203C17.2208 10.1217 17.2247 10.0186 17.205 9.91856Z"/>
</mask>
<path d="M15.3719 9.87252L15.4569 9.23856C16.1277 9.64656 16.3479 9.89164 16.4159 9.99718C16.3026 10.0191 16.0179 10.0298 15.3719 9.87252ZM13.8319 15.5307C13.8296 15.5478 13.8284 15.5651 13.8284 15.5824C13.8284 15.6419 13.6818 15.8693 13.0322 16.1264C12.7006 16.2531 12.3602 16.3554 12.0137 16.4324C11.0184 16.6626 9.79799 16.7894 8.57611 16.7894C5.30928 16.7894 3.32594 15.9507 3.32594 15.5824C3.32592 15.5651 3.32474 15.5478 3.3224 15.5307L1.84057 4.52814C1.93619 4.58339 2.0389 4.63723 2.14657 4.68893C2.17632 4.7031 2.20749 4.71585 2.23724 4.72931C2.33215 4.77323 2.4299 4.81573 2.53261 4.85681L2.6594 4.90568C2.76849 4.94677 2.88182 4.98643 2.99799 5.02468C3.02844 5.03389 3.05749 5.04523 3.09007 5.05514C3.23669 5.10118 3.38969 5.1451 3.54765 5.1876L3.67232 5.21877C3.79628 5.24993 3.92236 5.28039 4.05057 5.30873C4.24886 5.35252 4.44793 5.39266 4.64769 5.42914L4.7334 5.44543C4.9119 5.47731 5.09324 5.50564 5.2774 5.53185C5.32769 5.53964 5.3794 5.54602 5.4304 5.5531C5.57207 5.57222 5.71374 5.59064 5.85824 5.60764L6.02824 5.62677C6.20178 5.64518 6.37532 5.66218 6.5524 5.67635L6.60978 5.68273C6.80457 5.69831 7.00078 5.71106 7.19769 5.72239L7.36274 5.73089C7.51149 5.73798 7.66165 5.74364 7.81111 5.7486C8.47101 5.77035 9.13153 5.76421 9.7909 5.73018L9.95524 5.72239C10.1522 5.71106 10.3484 5.69831 10.5432 5.68273L10.5998 5.67706C10.7769 5.66289 10.9519 5.64518 11.1254 5.62606L11.294 5.60764C11.4392 5.59064 11.583 5.57222 11.7254 5.5531C11.7749 5.54602 11.8252 5.53964 11.8748 5.53185C12.0597 5.50564 12.2424 5.4766 12.4217 5.44543L12.5003 5.43127C12.6526 5.40293 12.8027 5.37318 12.9494 5.34273L13.0995 5.30943C13.2313 5.28039 13.3602 5.24922 13.4863 5.21735L13.6039 5.1876C13.7632 5.1451 13.9184 5.10118 14.0671 5.05373C14.0954 5.04523 14.1217 5.03531 14.1486 5.02681C14.266 4.98884 14.3824 4.94798 14.4978 4.90427C14.5389 4.88939 14.5785 4.8731 14.6182 4.85752C14.7244 4.81502 14.8257 4.77252 14.9228 4.72648C14.9497 4.71443 14.9787 4.70239 15.0049 4.68964C15.1133 4.63793 15.2174 4.58339 15.3138 4.52814L14.6224 9.66002C12.8601 9.10752 10.5106 8.03652 9.44382 7.53502C9.44288 7.33111 9.36132 7.13585 9.21693 6.99186C9.07255 6.84787 8.87706 6.76685 8.67315 6.76648C8.24815 6.76648 7.90249 7.11285 7.90249 7.53714C7.90249 7.96214 8.24815 8.30852 8.67315 8.30852C8.81199 8.30852 8.9409 8.26885 9.05353 8.20368C10.2719 8.77885 12.6972 9.88031 14.5183 10.4349L13.8319 15.5307ZM8.57611 1.33073C12.5973 1.33073 15.4299 2.57668 15.4824 3.26873L15.4724 3.34877C15.4654 3.37214 15.4505 3.39623 15.4384 3.42031C15.4278 3.44014 15.42 3.46068 15.4052 3.48193C15.3882 3.50531 15.3641 3.5301 15.3414 3.55418C15.3216 3.57543 15.3053 3.59668 15.2819 3.61793C15.255 3.64273 15.2203 3.66752 15.1877 3.69231C15.1594 3.71356 15.1353 3.73481 15.1034 3.75677C15.0659 3.78227 15.0212 3.80706 14.978 3.83256C14.9426 3.85381 14.9107 3.87506 14.8718 3.89631C14.8236 3.92181 14.7677 3.94802 14.7145 3.97423C14.6727 3.99406 14.6338 4.0146 14.5892 4.03443C14.5297 4.06135 14.4638 4.08685 14.3993 4.11306C14.3512 4.13218 14.3072 4.15131 14.2555 4.17114C14.1868 4.19664 14.1103 4.22214 14.0359 4.24693C13.9828 4.26535 13.9311 4.28448 13.8744 4.30289C13.7958 4.32768 13.7094 4.35177 13.6265 4.37585C13.5663 4.39285 13.5097 4.41127 13.4473 4.42756C13.3595 4.45164 13.2646 4.4736 13.1718 4.49698C13.1059 4.51256 13.0436 4.52956 12.9749 4.54514C12.8764 4.56781 12.7716 4.58835 12.6682 4.6096C12.5987 4.62377 12.5329 4.63864 12.4606 4.6521C12.3508 4.67335 12.2339 4.69248 12.1192 4.7116C12.0484 4.72435 11.9789 4.7371 11.9053 4.74843C11.7877 4.76685 11.663 4.78243 11.5405 4.79943C11.4626 4.80935 11.3896 4.82068 11.3103 4.8306C11.1821 4.84689 11.0468 4.85964 10.9136 4.8731C10.8357 4.8816 10.7592 4.89081 10.6784 4.8986C10.5453 4.90993 10.405 4.91914 10.2676 4.92906C10.1812 4.93543 10.0976 4.94323 10.0098 4.94889C9.86315 4.95739 9.71086 4.96306 9.55999 4.96873C9.47499 4.97227 9.39424 4.97722 9.30924 4.98006C8.82082 4.99426 8.3321 4.99426 7.84369 4.98006C7.75869 4.97722 7.67794 4.97227 7.59436 4.96873C7.44278 4.96306 7.28978 4.95739 7.14315 4.94889C7.05673 4.94323 6.97457 4.93473 6.88815 4.92977C6.75003 4.91914 6.60907 4.90993 6.47449 4.8986C6.39657 4.89152 6.32219 4.8816 6.24499 4.87381C6.1104 4.85964 5.97299 4.84689 5.84265 4.83131L5.61953 4.80014C5.49486 4.78314 5.36807 4.76756 5.24765 4.74843C5.17682 4.73781 5.11165 4.72506 5.04224 4.71302C4.92394 4.69318 4.80494 4.67406 4.69232 4.6521C4.62432 4.63935 4.56269 4.62518 4.49682 4.61243C4.38986 4.58977 4.28078 4.56852 4.17807 4.54514C4.11432 4.53098 4.05553 4.51468 3.9939 4.49981C3.89615 4.47573 3.79769 4.45235 3.70561 4.42756C3.64753 4.41198 3.5944 4.39498 3.53915 4.37868C3.45185 4.3546 3.36495 4.3291 3.27849 4.30218C3.22536 4.28518 3.17861 4.26748 3.12761 4.25048C3.04969 4.22427 2.96965 4.19735 2.8974 4.17043C2.84994 4.15273 2.80886 4.13431 2.76424 4.11589C2.69624 4.08898 2.62611 4.06206 2.56449 4.03443C2.52199 4.01531 2.48657 3.99618 2.4469 3.97777C2.39024 3.95014 2.33215 3.92323 2.28186 3.8956C2.24503 3.87577 2.21528 3.85664 2.18128 3.8361C2.13665 3.80918 2.08919 3.78298 2.05024 3.75606C2.01978 3.73552 1.99711 3.71498 1.97019 3.69514C1.93619 3.66893 1.90078 3.64343 1.87174 3.61723C1.84907 3.59668 1.83349 3.57685 1.81507 3.5556C1.79169 3.53081 1.76619 3.50602 1.74919 3.48193C1.73503 3.46068 1.72724 3.44085 1.71661 3.42102C1.70386 3.39623 1.68899 3.37285 1.6819 3.34877L1.67128 3.26873C1.72511 2.57668 4.55703 1.33073 8.57611 1.33073ZM17.205 9.91856C17.1214 9.47372 16.61 9.0041 15.5688 8.41122L16.2509 3.33956C16.2533 3.32242 16.2545 3.30515 16.2544 3.28785C16.2552 1.67993 12.2084 0.560059 8.57682 0.560059C4.9459 0.560059 0.899902 1.67993 0.899902 3.28785C0.900023 3.30491 0.901206 3.32194 0.903444 3.33885L2.55528 15.6121C2.60557 17.0302 6.26411 17.5601 8.57611 17.5601C9.85465 17.5601 11.1367 17.4269 12.1872 17.1839C12.6108 17.0862 12.9897 16.9714 13.3149 16.8439C14.1507 16.5131 14.5821 16.0981 14.5991 15.6121L15.2684 10.6411C15.663 10.7339 15.9881 10.7806 16.2523 10.7806C16.6348 10.7806 16.8912 10.6836 17.0556 10.4881C17.1216 10.4104 17.1693 10.3189 17.1951 10.2203C17.2208 10.1217 17.2247 10.0186 17.205 9.91856Z" fill="#38D8CC"/>
<path d="M15.3719 9.87252L15.4569 9.23856C16.1277 9.64656 16.3479 9.89164 16.4159 9.99718C16.3026 10.0191 16.0179 10.0298 15.3719 9.87252ZM13.8319 15.5307C13.8296 15.5478 13.8284 15.5651 13.8284 15.5824C13.8284 15.6419 13.6818 15.8693 13.0322 16.1264C12.7006 16.2531 12.3602 16.3554 12.0137 16.4324C11.0184 16.6626 9.79799 16.7894 8.57611 16.7894C5.30928 16.7894 3.32594 15.9507 3.32594 15.5824C3.32592 15.5651 3.32474 15.5478 3.3224 15.5307L1.84057 4.52814C1.93619 4.58339 2.0389 4.63723 2.14657 4.68893C2.17632 4.7031 2.20749 4.71585 2.23724 4.72931C2.33215 4.77323 2.4299 4.81573 2.53261 4.85681L2.6594 4.90568C2.76849 4.94677 2.88182 4.98643 2.99799 5.02468C3.02844 5.03389 3.05749 5.04523 3.09007 5.05514C3.23669 5.10118 3.38969 5.1451 3.54765 5.1876L3.67232 5.21877C3.79628 5.24993 3.92236 5.28039 4.05057 5.30873C4.24886 5.35252 4.44793 5.39266 4.64769 5.42914L4.7334 5.44543C4.9119 5.47731 5.09324 5.50564 5.2774 5.53185C5.32769 5.53964 5.3794 5.54602 5.4304 5.5531C5.57207 5.57222 5.71374 5.59064 5.85824 5.60764L6.02824 5.62677C6.20178 5.64518 6.37532 5.66218 6.5524 5.67635L6.60978 5.68273C6.80457 5.69831 7.00078 5.71106 7.19769 5.72239L7.36274 5.73089C7.51149 5.73798 7.66165 5.74364 7.81111 5.7486C8.47101 5.77035 9.13153 5.76421 9.7909 5.73018L9.95524 5.72239C10.1522 5.71106 10.3484 5.69831 10.5432 5.68273L10.5998 5.67706C10.7769 5.66289 10.9519 5.64518 11.1254 5.62606L11.294 5.60764C11.4392 5.59064 11.583 5.57222 11.7254 5.5531C11.7749 5.54602 11.8252 5.53964 11.8748 5.53185C12.0597 5.50564 12.2424 5.4766 12.4217 5.44543L12.5003 5.43127C12.6526 5.40293 12.8027 5.37318 12.9494 5.34273L13.0995 5.30943C13.2313 5.28039 13.3602 5.24922 13.4863 5.21735L13.6039 5.1876C13.7632 5.1451 13.9184 5.10118 14.0671 5.05373C14.0954 5.04523 14.1217 5.03531 14.1486 5.02681C14.266 4.98884 14.3824 4.94798 14.4978 4.90427C14.5389 4.88939 14.5785 4.8731 14.6182 4.85752C14.7244 4.81502 14.8257 4.77252 14.9228 4.72648C14.9497 4.71443 14.9787 4.70239 15.0049 4.68964C15.1133 4.63793 15.2174 4.58339 15.3138 4.52814L14.6224 9.66002C12.8601 9.10752 10.5106 8.03652 9.44382 7.53502C9.44288 7.33111 9.36132 7.13585 9.21693 6.99186C9.07255 6.84787 8.87706 6.76685 8.67315 6.76648C8.24815 6.76648 7.90249 7.11285 7.90249 7.53714C7.90249 7.96214 8.24815 8.30852 8.67315 8.30852C8.81199 8.30852 8.9409 8.26885 9.05353 8.20368C10.2719 8.77885 12.6972 9.88031 14.5183 10.4349L13.8319 15.5307ZM8.57611 1.33073C12.5973 1.33073 15.4299 2.57668 15.4824 3.26873L15.4724 3.34877C15.4654 3.37214 15.4505 3.39623 15.4384 3.42031C15.4278 3.44014 15.42 3.46068 15.4052 3.48193C15.3882 3.50531 15.3641 3.5301 15.3414 3.55418C15.3216 3.57543 15.3053 3.59668 15.2819 3.61793C15.255 3.64273 15.2203 3.66752 15.1877 3.69231C15.1594 3.71356 15.1353 3.73481 15.1034 3.75677C15.0659 3.78227 15.0212 3.80706 14.978 3.83256C14.9426 3.85381 14.9107 3.87506 14.8718 3.89631C14.8236 3.92181 14.7677 3.94802 14.7145 3.97423C14.6727 3.99406 14.6338 4.0146 14.5892 4.03443C14.5297 4.06135 14.4638 4.08685 14.3993 4.11306C14.3512 4.13218 14.3072 4.15131 14.2555 4.17114C14.1868 4.19664 14.1103 4.22214 14.0359 4.24693C13.9828 4.26535 13.9311 4.28448 13.8744 4.30289C13.7958 4.32768 13.7094 4.35177 13.6265 4.37585C13.5663 4.39285 13.5097 4.41127 13.4473 4.42756C13.3595 4.45164 13.2646 4.4736 13.1718 4.49698C13.1059 4.51256 13.0436 4.52956 12.9749 4.54514C12.8764 4.56781 12.7716 4.58835 12.6682 4.6096C12.5987 4.62377 12.5329 4.63864 12.4606 4.6521C12.3508 4.67335 12.2339 4.69248 12.1192 4.7116C12.0484 4.72435 11.9789 4.7371 11.9053 4.74843C11.7877 4.76685 11.663 4.78243 11.5405 4.79943C11.4626 4.80935 11.3896 4.82068 11.3103 4.8306C11.1821 4.84689 11.0468 4.85964 10.9136 4.8731C10.8357 4.8816 10.7592 4.89081 10.6784 4.8986C10.5453 4.90993 10.405 4.91914 10.2676 4.92906C10.1812 4.93543 10.0976 4.94323 10.0098 4.94889C9.86315 4.95739 9.71086 4.96306 9.55999 4.96873C9.47499 4.97227 9.39424 4.97722 9.30924 4.98006C8.82082 4.99426 8.3321 4.99426 7.84369 4.98006C7.75869 4.97722 7.67794 4.97227 7.59436 4.96873C7.44278 4.96306 7.28978 4.95739 7.14315 4.94889C7.05673 4.94323 6.97457 4.93473 6.88815 4.92977C6.75003 4.91914 6.60907 4.90993 6.47449 4.8986C6.39657 4.89152 6.32219 4.8816 6.24499 4.87381C6.1104 4.85964 5.97299 4.84689 5.84265 4.83131L5.61953 4.80014C5.49486 4.78314 5.36807 4.76756 5.24765 4.74843C5.17682 4.73781 5.11165 4.72506 5.04224 4.71302C4.92394 4.69318 4.80494 4.67406 4.69232 4.6521C4.62432 4.63935 4.56269 4.62518 4.49682 4.61243C4.38986 4.58977 4.28078 4.56852 4.17807 4.54514C4.11432 4.53098 4.05553 4.51468 3.9939 4.49981C3.89615 4.47573 3.79769 4.45235 3.70561 4.42756C3.64753 4.41198 3.5944 4.39498 3.53915 4.37868C3.45185 4.3546 3.36495 4.3291 3.27849 4.30218C3.22536 4.28518 3.17861 4.26748 3.12761 4.25048C3.04969 4.22427 2.96965 4.19735 2.8974 4.17043C2.84994 4.15273 2.80886 4.13431 2.76424 4.11589C2.69624 4.08898 2.62611 4.06206 2.56449 4.03443C2.52199 4.01531 2.48657 3.99618 2.4469 3.97777C2.39024 3.95014 2.33215 3.92323 2.28186 3.8956C2.24503 3.87577 2.21528 3.85664 2.18128 3.8361C2.13665 3.80918 2.08919 3.78298 2.05024 3.75606C2.01978 3.73552 1.99711 3.71498 1.97019 3.69514C1.93619 3.66893 1.90078 3.64343 1.87174 3.61723C1.84907 3.59668 1.83349 3.57685 1.81507 3.5556C1.79169 3.53081 1.76619 3.50602 1.74919 3.48193C1.73503 3.46068 1.72724 3.44085 1.71661 3.42102C1.70386 3.39623 1.68899 3.37285 1.6819 3.34877L1.67128 3.26873C1.72511 2.57668 4.55703 1.33073 8.57611 1.33073ZM17.205 9.91856C17.1214 9.47372 16.61 9.0041 15.5688 8.41122L16.2509 3.33956C16.2533 3.32242 16.2545 3.30515 16.2544 3.28785C16.2552 1.67993 12.2084 0.560059 8.57682 0.560059C4.9459 0.560059 0.899902 1.67993 0.899902 3.28785C0.900023 3.30491 0.901206 3.32194 0.903444 3.33885L2.55528 15.6121C2.60557 17.0302 6.26411 17.5601 8.57611 17.5601C9.85465 17.5601 11.1367 17.4269 12.1872 17.1839C12.6108 17.0862 12.9897 16.9714 13.3149 16.8439C14.1507 16.5131 14.5821 16.0981 14.5991 15.6121L15.2684 10.6411C15.663 10.7339 15.9881 10.7806 16.2523 10.7806C16.6348 10.7806 16.8912 10.6836 17.0556 10.4881C17.1216 10.4104 17.1693 10.3189 17.1951 10.2203C17.2208 10.1217 17.2247 10.0186 17.205 9.91856Z" stroke="#38D8CC" stroke-width="0.4" mask="url(#path-1-outside-1_1549_643)"/>
</svg>
