<svg width="33" height="32" viewBox="0 0 33 32" fill="none" xmlns="http://www.w3.org/2000/svg">
<g filter="url(#filter0_f_135_721)">
<path d="M11.0283 9.71667L18.6663 4.4571L27.6426 6.78714L20.0046 12.0467L11.0283 9.71667Z" fill="url(#paint0_linear_135_721)"/>
<path d="M29.3969 17.1189L27.6408 6.82943L27.6308 6.77295L19.9954 12.0212L21.814 22.3351L29.3969 17.1189Z" fill="url(#paint1_linear_135_721)"/>
<path d="M12.9025 20.0156L11.0334 9.74606L11.0235 9.68958L19.9934 12.0098L21.812 22.3237L12.9025 20.0156Z" fill="url(#paint2_linear_135_721)"/>
<path d="M3.34473 15.0312L10.9827 9.77167L19.959 12.1017L12.321 17.3613L3.34473 15.0312Z" fill="url(#paint3_linear_135_721)"/>
<path d="M21.7133 22.4335L19.9572 12.144L19.9472 12.0875L12.3118 17.3357L14.1304 27.6496L21.7133 22.4335Z" fill="url(#paint4_linear_135_721)"/>
<path d="M5.21888 25.3302L3.34984 15.0606L3.33988 15.0042L12.3098 17.3244L14.1285 27.6383L5.21888 25.3302Z" fill="url(#paint5_linear_135_721)"/>
</g>
<defs>
<filter id="filter0_f_135_721" x="0.4111" y="0.734403" width="31.9678" height="30.6218" filterUnits="userSpaceOnUse" color-interpolation-filters="sRGB">
<feFlood flood-opacity="0" result="BackgroundImageFix"/>
<feBlend mode="normal" in="SourceGraphic" in2="BackgroundImageFix" result="shape"/>
<feGaussianBlur stdDeviation="1.13283" result="effect1_foregroundBlur_135_721"/>
</filter>
<linearGradient id="paint0_linear_135_721" x1="18.5701" y1="3.60687" x2="20.283" y2="13.3216" gradientUnits="userSpaceOnUse">
<stop stop-color="#65C9E7"/>
<stop offset="1" stop-color="#CCF6FB"/>
</linearGradient>
<linearGradient id="paint1_linear_135_721" x1="22.8756" y1="4.24539" x2="27.0584" y2="27.9674" gradientUnits="userSpaceOnUse">
<stop stop-color="#096760"/>
<stop offset="1" stop-color="#17C3B7" stop-opacity="0.81"/>
</linearGradient>
<linearGradient id="paint2_linear_135_721" x1="12.6762" y1="3.53953" x2="13.816" y2="25.5269" gradientUnits="userSpaceOnUse">
<stop stop-color="#17C3B7" stop-opacity="0.6"/>
<stop offset="1" stop-color="#096760"/>
</linearGradient>
<linearGradient id="paint3_linear_135_721" x1="10.8865" y1="8.92145" x2="12.5995" y2="18.6362" gradientUnits="userSpaceOnUse">
<stop stop-color="#65C9E7"/>
<stop offset="1" stop-color="#CCF6FB"/>
</linearGradient>
<linearGradient id="paint4_linear_135_721" x1="15.192" y1="9.55996" x2="19.3748" y2="33.282" gradientUnits="userSpaceOnUse">
<stop stop-color="#096760"/>
<stop offset="1" stop-color="#17C3B7" stop-opacity="0.81"/>
</linearGradient>
<linearGradient id="paint5_linear_135_721" x1="4.9926" y1="8.85411" x2="6.13242" y2="30.8414" gradientUnits="userSpaceOnUse">
<stop stop-color="#17C3B7" stop-opacity="0.6"/>
<stop offset="1" stop-color="#096760"/>
</linearGradient>
</defs>
</svg>
