<svg width="135" height="154" viewBox="0 0 135 154" fill="none" xmlns="http://www.w3.org/2000/svg">
<path d="M51.3765 75.7433L18.8128 95.2919C18.3091 95.5943 17.8687 95.9913 17.516 96.4609C14.5113 100.461 19.2203 105.676 23.5054 103.094L56.0368 83.492C57.9581 82.3342 58.74 79.9429 57.8738 77.8737C56.8098 75.332 53.7389 74.3251 51.3765 75.7433Z" fill="#17C3B7"/>
<g clip-path="url(#clip0_115_2016)">
<path d="M97.7102 45.3198L38.3555 22.8514L57.499 82.711L3.49862 114.933L62.8533 137.401L116.854 105.179L97.7102 45.3198Z" fill="#096760"/>
</g>
<path d="M47.4938 10.1591L43.0109 16.2139C40.6927 19.3449 41.9266 23.8205 45.5218 25.3212L93.7303 45.4439C95.3281 46.1109 96.5599 47.4355 97.1092 49.0775L112.264 94.3822C113.833 99.0715 120.082 99.957 122.892 95.888L126.065 91.292C127.117 89.7688 127.407 87.8452 126.85 86.0797L109.738 31.7681C109.188 30.0236 107.873 28.625 106.165 27.9696L54.4658 8.12778C51.9493 7.16198 49.0977 7.99282 47.4938 10.1591Z" fill="#17C3B7"/>
<defs>
<clipPath id="clip0_115_2016">
<path d="M36.9579 26.5445C38.131 23.4454 41.5943 21.8841 44.6934 23.0573L129.389 55.1182C132.488 56.2913 134.049 59.7546 132.876 62.8537L100.815 147.549C99.6421 150.648 96.1788 152.21 93.0797 151.036L8.38423 118.976C5.28514 117.802 3.72384 114.339 4.89698 111.24L36.9579 26.5445Z" fill="white"/>
</clipPath>
</defs>
</svg>
