<svg width="25" height="25" viewBox="0 0 25 25" fill="none" xmlns="http://www.w3.org/2000/svg">
<path d="M24.1138 12.2077C24.114 9.8751 23.4556 7.59134 22.2166 5.62678C20.9776 3.66223 19.2099 2.09914 17.1228 1.1226C15.0357 0.146059 12.7166 -0.203038 10.44 0.116642C8.1635 0.436323 6.02489 1.41139 4.27743 2.9264C2.52996 4.44141 1.24682 6.4329 0.579928 8.66509C-0.0869627 10.8973 -0.109672 13.2767 0.514489 15.5216C1.13865 17.7665 2.38354 19.7828 4.10176 21.3319C5.81999 22.881 7.93958 23.8979 10.2096 24.2623V15.7343H7.15606V12.2053H10.2096V9.51727C10.2096 6.45749 12.0055 4.76835 14.7515 4.76835C15.6533 4.78122 16.553 4.86095 17.4434 5.00693V8.01025H15.9296C14.4361 8.01025 13.9707 8.95144 13.9707 9.9165V12.2077H17.3059L16.7727 15.7366H13.9679V24.2639C16.7965 23.8093 19.3724 22.3454 21.2324 20.1353C23.0924 17.9253 24.1144 15.1142 24.1146 12.2077H24.1138Z" fill="white"/>
</svg>
