<svg width="1920" height="374" viewBox="0 0 1920 374" fill="none" xmlns="http://www.w3.org/2000/svg">
<rect width="1920" height="374" fill="#1D2C48"/>
<rect x="722.77" y="288.289" width="252" height="241" transform="rotate(3.57971 722.77 288.289)" fill="white"/>
<rect x="771.611" y="358.07" width="252" height="241" transform="rotate(-20.6403 771.611 358.07)" fill="#0D2156"/>
<rect x="1091.3" y="316.106" width="252" height="241" transform="rotate(-6.97207 1091.3 316.106)" fill="#096760"/>
<rect x="994.394" y="290.27" width="252" height="241" transform="rotate(15.7324 994.394 290.27)" fill="#17C3B7"/>
<rect x="598.146" y="316.451" width="252" height="241" transform="rotate(23.3908 598.146 316.451)" fill="#1E2944"/>
<rect x="860.573" y="349.022" width="252" height="241" transform="rotate(-3.14798 860.573 349.022)" fill="#9D9A9A"/>
<rect x="1064.75" y="403.247" width="252" height="241" transform="rotate(-18.9059 1064.75 403.247)" fill="#0F1830"/>
<rect x="645.914" y="312.146" width="252" height="241" transform="rotate(17.8171 645.914 312.146)" fill="#17C3B7"/>
</svg>
