<svg width="1816" height="3032" viewBox="0 0 1816 3032" fill="none" xmlns="http://www.w3.org/2000/svg">
<g opacity="0.5">
<path opacity="0.54" d="M1585.81 3716.98C1657.26 3776.39 1726.35 3717.85 1742.76 3619.93C1759.16 3522.01 1736.39 3398.93 1708.48 3283.09C1680.6 3167.24 1646.93 3049.11 1640.39 2936.69C1626.89 2704.03 1730.31 2558.79 1830.75 2442.9C1931.18 2327 2040.92 2198.47 2044.09 1973.75C2046.59 1797.54 1982.05 1601.15 1952.55 1413.63C1901.03 1086.29 1965.08 781.538 2114.06 645.623" stroke="url(#paint0_linear_1410_985)" stroke-width="0.684124" stroke-miterlimit="10"/>
<path opacity="0.54" d="M1565.91 3706.86C1637.26 3766.28 1706.42 3708.73 1723.55 3611.69C1725.09 3603.03 1726.28 3594.1 1727.24 3585.06C1736.72 3492.71 1716.4 3381.72 1691.77 3276.51C1687.01 3256.19 1682.08 3235.8 1677.15 3215.41C1653.97 3119.67 1630.73 3023.27 1625.67 2930.87C1624.05 2900.91 1624.32 2872.38 1626.3 2845.19C1639.56 2661.72 1729.45 2539.33 1817.58 2440C1823.99 2432.79 1830.42 2425.53 1836.87 2418.21C1932.3 2309.81 2028.16 2186.36 2036.33 1981.69C2038.67 1923.15 2034.56 1862.23 2024.84 1798.27C2013.38 1722.77 1994.51 1644.67 1976.47 1568C1964.16 1515.64 1952.21 1463.67 1942.85 1412.08C1938.45 1387.82 1934.67 1363.62 1931.55 1339.51C1911.68 1185.99 1919.14 1037.25 1949.92 913.13C1980.78 788.716 2034.61 688.495 2106.42 624.822" stroke="url(#paint1_linear_1410_985)" stroke-width="0.684124" stroke-miterlimit="10"/>
<path opacity="0.54" d="M1546.02 3696.78C1617.33 3756.26 1686.53 3699.72 1704.37 3603.55C1705.96 3594.94 1707.24 3586.11 1708.24 3577.11C1718.36 3485.48 1698.91 3374.95 1675.06 3269.93C1670.44 3249.65 1665.66 3229.34 1660.87 3208.98C1638.35 3113.45 1615.66 3017.18 1610.93 2925.04C1609.4 2895.19 1609.74 2866.7 1611.79 2839.55C1625.55 2656.4 1715.63 2534.82 1804.36 2437.05C1810.81 2429.95 1817.3 2422.79 1823.79 2415.63C1919.9 2309.17 2015.33 2188.39 2028.47 1989.49C2032.33 1931.38 2030.81 1870.91 2021.73 1805.48C2011.02 1728.15 1990.66 1647.34 1970.81 1569.17C1957.27 1515.83 1943.86 1463.08 1933.12 1410.53C1928.08 1385.79 1923.67 1361.15 1919.97 1336.43C1896.4 1179.1 1903.14 1024.18 1935.31 896.88C1967.54 769.291 2024.34 668.322 2098.84 604.123" stroke="url(#paint2_linear_1410_985)" stroke-width="0.684124" stroke-miterlimit="10"/>
<path opacity="0.54" d="M1526.09 3686.66C1597.3 3746.15 1666.59 3690.66 1685.1 3595.32C1686.76 3586.81 1688.12 3578.07 1689.17 3569.13C1699.95 3478.16 1681.37 3368.13 1658.28 3263.31C1653.81 3243.11 1649.18 3222.77 1644.54 3202.5C1622.69 3107.18 1600.56 3011.08 1596.15 2919.17C1594.7 2889.41 1595.13 2861.02 1597.23 2833.93C1611.47 2651.14 1701.71 2530.31 1791.09 2434.1C1797.59 2427.1 1804.13 2420.11 1810.64 2413.05C1907.47 2308.54 2002.56 2190.35 2020.59 1997.34C2025.99 1939.61 2027 1879.65 2018.56 1812.7C2008.62 1733.54 1986.75 1650 1965.05 1570.35C1950.27 1515.97 1935.39 1462.5 1923.3 1408.99C1917.6 1383.82 1912.56 1358.63 1908.3 1333.35C1881.03 1172.23 1887.03 1011.12 1920.59 880.647C1954.2 749.88 2013.95 648.168 2091.12 583.39" stroke="url(#paint3_linear_1410_985)" stroke-width="0.684124" stroke-miterlimit="10"/>
<path opacity="0.54" d="M1506.2 3676.53C1577.33 3736.03 1646.67 3681.55 1665.91 3587.13C1667.64 3578.66 1669.04 3570.03 1670.18 3561.18C1681.63 3470.93 1663.87 3361.36 1641.54 3256.73C1637.24 3236.56 1632.73 3216.31 1628.22 3196.07C1607.04 3100.96 1585.49 3004.98 1581.36 2913.31C1580.03 2883.64 1580.51 2855.29 1582.7 2828.29C1597.4 2645.82 1687.87 2525.85 1777.83 2431.1C1784.36 2424.21 1790.95 2417.31 1797.54 2410.41C1895.06 2307.84 1990.02 2192.26 2012.73 2005.13C2019.7 1947.82 2023.22 1888.27 2015.4 1819.86C2006.22 1738.82 1982.85 1652.61 1959.34 1571.47C1943.3 1516.11 1926.99 1461.86 1913.51 1407.34C1907.18 1381.73 1901.51 1356 1896.63 1330.11C1865.65 1165.19 1870.96 997.896 1905.88 864.245C1940.84 730.305 2003.57 627.843 2083.42 562.488" stroke="url(#paint4_linear_1410_985)" stroke-width="0.684124" stroke-miterlimit="10"/>
<path opacity="0.54" d="M1486.3 3666.4C1557.35 3725.97 1626.79 3672.47 1646.72 3578.93C1648.51 3570.57 1649.98 3561.98 1651.16 3553.18C1663.29 3463.64 1646.36 3354.53 1624.82 3250.09C1620.65 3229.95 1616.28 3209.74 1611.91 3189.52C1591.39 3094.63 1570.38 2998.77 1566.58 2907.38C1565.35 2877.8 1565.95 2849.55 1568.16 2822.55C1583.36 2640.38 1673.98 2521.23 1764.59 2428.04C1771.18 2421.25 1777.78 2414.51 1784.43 2407.71C1882.63 2307.08 1977.63 2194.14 2004.88 2012.85C2013.43 1955.85 2019.44 1896.89 2012.3 1827C2003.86 1744.14 1979.01 1655.2 1953.68 1572.52C1936.39 1516.11 1918.63 1461.09 1903.78 1405.67C1896.8 1379.58 1890.51 1353.41 1885.04 1326.9C1850.37 1158.18 1854.94 984.711 1891.24 847.882C1927.61 710.815 1993.27 607.559 2075.79 541.625" stroke="url(#paint5_linear_1410_985)" stroke-width="0.684124" stroke-miterlimit="10"/>
<path opacity="0.54" d="M1466.42 3656.33C1537.41 3715.9 1606.91 3663.46 1627.54 3570.74C1629.38 3562.48 1630.93 3553.93 1632.17 3545.23C1644.93 3456.36 1628.9 3347.76 1608.1 3243.57C1604.07 3223.46 1599.88 3203.32 1595.64 3183.14C1575.76 3088.46 1555.34 2992.78 1551.86 2901.6C1550.74 2872.12 1551.38 2843.92 1553.69 2817.01C1569.35 2635.15 1660.19 2516.81 1751.4 2425.18C1758.02 2418.5 1764.68 2411.87 1771.38 2405.23C1870.26 2306.54 1965.45 2196.2 1997.06 2020.79C2007.24 1964.15 2015.72 1905.71 2009.19 1834.31C2001.52 1749.62 1975.15 1657.96 1947.98 1573.8C1929.47 1516.4 1910.25 1460.61 1894.02 1404.23C1886.39 1377.71 1879.46 1350.99 1873.41 1323.87C1835.04 1151.35 1838.9 971.7 1876.56 831.697C1914.29 691.458 1982.93 587.455 2068.12 520.94" stroke="url(#paint6_linear_1410_985)" stroke-width="0.684124" stroke-miterlimit="10"/>
<path opacity="0.54" d="M1446.49 3646.2C1517.4 3705.84 1586.96 3654.34 1608.29 3562.56C1610.18 3554.34 1611.79 3545.9 1613.11 3537.23C1626.53 3449.08 1611.34 3340.94 1591.32 3236.94C1587.44 3216.91 1583.37 3196.76 1579.28 3176.66C1560.05 3082.14 1540.22 2986.63 1537.04 2895.74C1536.02 2866.35 1536.73 2838.19 1539.13 2811.38C1555.26 2629.84 1646.27 2512.3 1738.13 2422.24C1744.82 2415.71 1751.51 2409.18 1758.23 2402.65C1857.8 2305.91 1953.38 2198.29 1989.17 2028.63C2001.05 1972.33 2011.91 1914.43 2006.04 1841.51C1999.14 1754.99 1971.27 1660.61 1942.28 1574.96C1922.53 1516.53 1901.86 1460.01 1884.25 1402.62C1875.96 1375.61 1868.41 1348.46 1861.78 1320.73C1819.69 1144.41 1822.84 958.579 1861.88 815.398C1900.99 671.981 1972.58 567.236 2060.46 500.197" stroke="url(#paint7_linear_1410_985)" stroke-width="0.684124" stroke-miterlimit="10"/>
<path opacity="0.54" d="M1426.6 3636.08C1497.41 3695.73 1567.06 3645.27 1589.09 3554.31C1591.07 3546.19 1592.72 3537.8 1594.1 3529.23C1608.18 3441.74 1593.88 3334.16 1574.6 3230.31C1570.89 3210.3 1566.97 3190.22 1563.02 3170.16C1544.45 3075.86 1525.16 2980.46 1522.31 2889.85C1521.36 2860.51 1522.19 2832.5 1524.61 2805.68C1541.25 2624.5 1632.43 2507.72 1724.9 2419.22C1731.62 2412.8 1738.37 2406.37 1745.17 2399.99C1845.43 2305.25 1941.49 2200.35 1981.34 2036.4C1994.93 1980.44 2008.15 1923.03 2002.92 1848.69C1996.76 1760.36 1967.41 1663.25 1936.61 1576.11C1915.63 1516.69 1893.48 1459.41 1874.48 1401.06C1865.57 1373.61 1857.36 1345.92 1850.16 1317.64C1804.38 1137.52 1806.83 945.56 1847.22 799.155C1887.68 652.565 1962.28 547.067 2052.8 479.454" stroke="url(#paint8_linear_1410_985)" stroke-width="0.684124" stroke-miterlimit="10"/>
<path opacity="0.54" d="M1406.71 3625.95C1477.47 3685.67 1547.15 3636.16 1569.91 3546.12C1571.93 3538.05 1573.67 3529.75 1575.11 3521.29C1589.83 3434.51 1576.38 3327.39 1557.86 3223.73C1554.29 3203.75 1550.5 3183.71 1546.69 3163.67C1528.78 3069.58 1510.06 2974.37 1507.52 2883.98C1506.7 2854.73 1507.56 2826.77 1510.08 2800.05C1527.18 2619.18 1618.54 2503.22 1711.64 2416.22C1718.39 2409.9 1725.21 2403.63 1732.04 2397.36C1832.98 2304.55 1929.72 2202.49 1973.43 2044.18C1988.79 1988.6 2004.35 1931.7 1999.75 1855.84C1994.37 1765.68 1963.53 1665.84 1930.88 1577.17C1908.62 1516.72 1885.07 1458.7 1864.67 1399.34C1855.11 1371.47 1846.26 1343.23 1838.48 1314.33C1788.98 1130.42 1790.72 932.281 1832.49 782.698C1874.31 632.938 1951.87 526.637 2045.08 458.5" stroke="url(#paint9_linear_1410_985)" stroke-width="0.684124" stroke-miterlimit="10"/>
<path opacity="0.54" d="M1386.84 3615.87C1457.49 3675.6 1527.26 3627.14 1550.71 3537.99C1552.79 3530.02 1554.59 3521.82 1556.09 3513.34C1571.47 3427.23 1558.9 3320.61 1541.13 3217.15C1537.7 3197.26 1534.06 3177.24 1530.38 3157.23C1513.11 3063.37 1494.99 2968.26 1492.75 2878.16C1492.02 2849 1492.97 2821.13 1495.56 2794.46C1513.13 2613.9 1604.67 2498.75 1698.41 2413.31C1705.22 2407.09 1712.07 2400.93 1718.94 2394.81C1820.56 2303.96 1918.13 2204.82 1965.6 2052.06C1982.74 1996.86 2000.58 1940.46 1996.61 1863.08C1992 1771.09 1959.65 1668.53 1925.16 1578.39C1901.66 1516.89 1876.66 1458.16 1854.89 1397.83C1844.68 1369.48 1835.21 1340.8 1826.85 1311.3C1773.66 1123.58 1774.68 919.266 1817.84 766.506C1861.05 613.569 1941.55 506.526 2037.43 437.811" stroke="url(#paint10_linear_1410_985)" stroke-width="0.684124" stroke-miterlimit="10"/>
<path opacity="0.54" d="M1366.92 3605.75C1437.52 3665.54 1507.37 3618.08 1531.48 3529.75C1533.66 3521.87 1535.5 3513.72 1537.06 3505.35C1553.11 3419.95 1541.36 3313.79 1524.36 3210.58C1521.08 3190.72 1517.6 3170.73 1514.07 3150.8C1497.46 3057.15 1479.89 2962.17 1477.97 2872.29C1477.35 2843.22 1478.35 2815.4 1481.02 2788.77C1499.08 2608.52 1590.81 2494.23 1685.15 2410.3C1691.99 2404.19 1698.91 2398.18 1705.84 2392.17C1808.15 2303.25 1906.65 2207.19 1957.73 2059.83C1976.71 2005.06 1996.8 1949.11 1993.48 1870.27C1989.62 1776.46 1955.79 1671.17 1919.49 1579.54C1894.77 1517.05 1868.31 1457.55 1845.16 1396.27C1834.29 1367.48 1824.19 1338.26 1815.25 1308.14C1758.36 1116.63 1758.68 906.135 1803.2 750.204C1847.76 594.097 1931.23 486.306 2029.78 417.011" stroke="url(#paint11_linear_1410_985)" stroke-width="0.684124" stroke-miterlimit="10"/>
<path opacity="0.54" d="M1347.03 3595.62C1417.54 3655.43 1487.46 3608.97 1512.3 3521.56C1514.52 3513.73 1516.45 3505.67 1518.09 3497.34C1534.81 3412.65 1523.92 3306.95 1507.68 3203.93C1504.56 3184.09 1501.2 3164.2 1497.81 3144.31C1481.86 3050.86 1464.85 2956.06 1463.24 2866.4C1462.71 2837.43 1463.82 2809.65 1466.54 2783.12C1485.07 2603.18 1576.99 2489.7 1671.97 2407.33C1678.86 2401.32 1685.82 2395.41 1692.79 2389.57C1795.81 2302.58 1895.37 2209.73 1949.93 2067.63C1970.78 2013.28 1993.06 1957.75 1990.39 1877.44C1987.3 1781.8 1951.95 1673.8 1913.83 1580.62C1887.87 1517.11 1859.92 1456.83 1835.43 1394.59C1823.91 1365.31 1813.17 1335.61 1803.66 1304.93C1743.06 1109.62 1742.66 892.951 1788.56 733.844C1834.51 574.56 1920.93 466.027 2022.16 396.208" stroke="url(#paint12_linear_1410_985)" stroke-width="0.684124" stroke-miterlimit="10"/>
<path opacity="0.54" d="M1327.14 3585.5C1397.6 3645.36 1467.56 3599.89 1493.11 3513.31C1495.38 3505.58 1497.36 3497.57 1499.08 3489.33C1516.44 3405.31 1506.42 3300.12 1490.93 3197.29C1487.94 3177.49 1484.76 3157.67 1481.48 3137.81C1466.2 3044.58 1449.76 2949.9 1448.45 2860.52C1448.01 2831.65 1449.21 2803.97 1452.01 2777.48C1471.01 2597.9 1563.13 2485.17 1658.72 2404.36C1665.66 2398.52 1672.67 2392.71 1679.67 2386.97C1783.38 2301.93 1884.09 2212.38 1942.03 2075.4C1964.8 2021.57 1989.25 1966.4 1987.21 1884.57C1984.89 1787.11 1948.04 1676.38 1908.07 1581.72C1880.85 1517.22 1851.49 1456.17 1825.62 1392.97C1813.47 1363.26 1802.08 1333.07 1791.99 1301.78C1727.7 1102.67 1726.59 879.827 1773.85 717.549C1821.15 555.095 1910.55 445.815 2014.45 375.416" stroke="url(#paint13_linear_1410_985)" stroke-width="0.684124" stroke-miterlimit="10"/>
<path opacity="0.54" d="M1307.27 3575.42C1377.63 3635.3 1447.68 3590.88 1473.91 3505.18C1476.25 3497.55 1478.3 3489.59 1480.08 3481.45C1498.11 3398.14 1488.95 3293.4 1474.21 3190.77C1471.38 3171.05 1468.32 3151.2 1465.2 3131.37C1450.54 3038.3 1434.69 2943.79 1433.71 2854.69C1433.39 2825.91 1434.63 2798.27 1437.48 2771.83C1456.95 2592.57 1549.24 2480.65 1645.46 2401.35C1652.46 2395.6 1659.5 2389.91 1666.54 2384.32C1770.93 2301.22 1872.92 2215.07 1934.15 2083.16C1958.88 2029.84 1985.44 1975.05 1984.05 1891.75C1982.48 1792.46 1944.16 1679.07 1902.37 1582.87C1873.9 1517.33 1843.1 1455.55 1815.84 1391.35C1803.02 1361.16 1791.04 1330.46 1780.34 1298.57C1712.36 1095.66 1710.52 866.649 1759.16 701.197C1807.85 535.567 1900.18 425.546 2006.75 354.568" stroke="url(#paint14_linear_1410_985)" stroke-width="0.684124" stroke-miterlimit="10"/>
<path opacity="0.54" d="M1287.38 3565.3C1357.69 3625.24 1427.78 3581.76 1454.74 3496.98C1457.15 3489.4 1459.26 3481.53 1461.09 3473.44C1479.77 3390.8 1471.45 3286.57 1457.51 3184.18C1454.81 3164.49 1451.9 3144.73 1448.92 3124.93C1434.92 3032.07 1419.63 2937.74 1418.97 2848.86C1418.74 2820.18 1420.07 2792.64 1422.99 2766.24C1442.96 2587.28 1535.43 2476.17 1632.26 2398.43C1639.29 2392.8 1646.37 2387.25 1653.51 2381.77C1758.58 2300.61 1861.95 2218.05 1926.34 2091.02C1953.06 2038.33 1981.72 1983.79 1980.96 1898.97C1980.16 1797.86 1940.33 1681.74 1896.73 1584.06C1867.04 1517.53 1834.79 1454.99 1806.14 1389.82C1792.7 1359.2 1780.08 1328.02 1768.79 1295.51C1697.1 1088.81 1694.57 853.618 1744.57 684.996C1794.61 516.197 1889.92 405.427 1999.16 333.871" stroke="url(#paint15_linear_1410_985)" stroke-width="0.684124" stroke-miterlimit="10"/>
<path opacity="0.54" d="M1267.47 3555.17C1337.68 3615.13 1407.89 3572.7 1435.52 3488.74C1437.99 3481.26 1440.16 3473.49 1442.06 3465.45C1461.41 3383.51 1453.92 3279.75 1440.74 3177.55C1438.2 3157.89 1435.43 3138.16 1432.6 3118.44C1419.27 3025.79 1404.54 2931.57 1404.18 2842.98C1404.08 2814.39 1405.45 2786.9 1408.46 2760.6C1428.89 2581.95 1521.55 2471.65 1619.02 2395.47C1626.1 2389.93 1633.22 2384.5 1640.39 2379.17C1746.14 2299.95 1850.93 2221.04 1918.48 2098.82C1947.22 2046.8 1977.91 1992.43 1977.8 1906.14C1977.77 1803.21 1936.43 1684.37 1891.01 1585.15C1860.08 1517.59 1826.35 1454.32 1796.36 1388.2C1782.25 1357.14 1769.01 1325.41 1757.16 1292.35C1681.78 1081.86 1678.51 840.494 1729.89 668.697C1781.32 496.722 1879.57 385.212 1991.48 313.078" stroke="url(#paint16_linear_1410_985)" stroke-width="0.684124" stroke-miterlimit="10"/>
<path opacity="0.54" d="M1247.6 3545.1C1317.75 3605.06 1388.01 3563.69 1416.32 3480.61C1418.84 3473.17 1421.1 3465.5 1423.05 3457.5C1443.04 3376.28 1436.43 3272.97 1424.01 3170.96C1421.61 3151.33 1418.99 3131.68 1416.29 3112C1403.62 3019.56 1389.44 2925.47 1389.4 2837.1C1389.38 2808.6 1390.83 2781.15 1393.91 2754.89C1414.8 2576.56 1507.64 2467.07 1605.75 2392.44C1612.87 2387.01 1620.04 2381.68 1627.26 2376.51C1733.7 2299.24 1840.01 2224.18 1910.57 2106.58C1941.39 2055.26 1974.1 2001.06 1974.61 1913.32C1975.32 1808.56 1932.5 1687 1885.23 1586.3C1853.08 1517.75 1817.9 1453.72 1786.52 1386.58C1771.77 1355.04 1757.88 1322.82 1745.45 1289.14C1666.35 1074.86 1662.4 827.318 1715.14 652.352C1767.92 477.208 1869.15 364.95 1983.74 292.291" stroke="url(#paint17_linear_1410_985)" stroke-width="0.684124" stroke-miterlimit="10"/>
<path opacity="0.54" d="M1227.72 3534.97C1297.78 3595 1368.11 3554.57 1397.14 3472.37C1399.74 3465.02 1402.05 3457.4 1404.05 3449.5C1424.7 3368.94 1418.94 3266.14 1407.26 3164.33C1405.02 3144.78 1402.55 3125.11 1399.97 3105.51C1387.96 3013.29 1374.34 2919.37 1374.61 2831.22C1374.68 2802.82 1376.25 2775.46 1379.38 2749.25C1400.78 2571.28 1493.79 2462.55 1592.51 2389.48C1599.68 2384.15 1606.9 2378.98 1614.15 2373.91C1721.27 2298.58 1829.12 2227.42 1902.71 2114.38C1935.62 2063.84 1970.3 2009.76 1971.47 1920.48C1972.96 1813.91 1928.65 1689.62 1879.55 1587.44C1846.13 1517.86 1809.52 1453.04 1776.78 1385C1761.4 1353.02 1746.87 1320.32 1733.85 1286.03C1651.06 1067.9 1646.38 814.246 1700.53 636.1C1754.67 457.788 1858.87 344.783 1976.13 271.545" stroke="url(#paint18_linear_1410_985)" stroke-width="0.684124" stroke-miterlimit="10"/>
<path opacity="0.54" d="M1207.83 3524.84C1277.83 3584.88 1348.22 3545.5 1377.96 3464.17C1380.62 3456.92 1382.98 3449.35 1385.07 3441.55C1406.39 3361.7 1401.48 3259.35 1390.56 3157.74C1388.45 3138.22 1386.13 3118.63 1383.71 3099.01C1372.33 3007 1359.32 2913.19 1359.92 2825.33C1360.11 2797.01 1361.72 2769.7 1364.91 2743.59C1386.77 2565.93 1479.98 2458.06 1579.31 2386.44C1586.53 2381.27 1593.79 2376.15 1601.1 2371.18C1708.9 2297.79 1818.33 2230.69 1894.88 2122.06C1929.89 2072.34 1966.56 2018.31 1968.33 1927.53C1970.59 1819.13 1924.78 1692.12 1873.87 1588.46C1839.21 1517.84 1801.16 1452.29 1767.01 1383.31C1750.96 1350.85 1735.82 1317.65 1722.22 1282.76C1635.74 1060.83 1630.35 800.999 1685.86 619.685C1741.38 438.199 1848.5 324.399 1968.44 250.635" stroke="url(#paint19_linear_1410_985)" stroke-width="0.684124" stroke-miterlimit="10"/>
<path opacity="0.54" d="M1187.92 3514.72C1257.84 3574.82 1328.31 3536.44 1358.76 3455.98C1361.47 3448.78 1363.91 3441.3 1366.05 3433.55C1387.99 3354.37 1383.96 3252.53 1373.83 3151.15C1371.89 3131.66 1369.68 3112.11 1367.4 3092.56C1356.69 3000.77 1344.22 2907.08 1345.15 2819.5C1345.43 2791.27 1347.13 2764.06 1350.39 2738C1372.72 2560.64 1466.14 2453.58 1566.08 2383.53C1573.36 2378.46 1580.66 2373.49 1588 2368.63C1696.5 2297.24 1807.53 2234.24 1887.01 2129.92C1924.15 2081.12 1962.73 2027 1965.19 1934.8C1968.19 1824.57 1920.9 1694.85 1868.14 1589.65C1832.25 1518.04 1792.75 1451.73 1757.21 1381.73C1740.53 1348.84 1724.73 1315.1 1710.57 1279.65C1620.37 1053.93 1614.28 787.929 1671.16 603.442C1728.04 418.789 1838.17 304.235 1960.74 229.9" stroke="url(#paint20_linear_1410_985)" stroke-width="0.684124" stroke-miterlimit="10"/>
<path opacity="0.54" d="M1168.06 3504.65C1237.91 3564.76 1308.45 3527.37 1339.56 3447.79C1342.33 3440.7 1344.84 3433.26 1347.04 3425.6C1369.66 3347.13 1366.48 3245.75 1357.08 3144.58C1355.27 3125.11 1353.24 3105.64 1351.09 3086.12C1341.03 2994.49 1329.13 2901.03 1330.38 2813.67C1330.78 2785.54 1332.53 2758.37 1335.86 2732.35C1358.68 2555.3 1452.25 2449.05 1552.84 2380.56C1560.14 2375.59 1567.51 2370.73 1574.88 2366.03C1684.1 2296.56 1796.77 2237.84 1879.14 2137.71C1918.46 2089.89 1958.95 2035.67 1962.02 1941.96C1965.79 1829.91 1916.99 1697.46 1862.43 1590.79C1825.3 1518.14 1784.33 1451.12 1747.45 1380.15C1730.14 1346.83 1713.69 1312.6 1698.94 1276.54C1605.07 1047.02 1598.27 774.904 1656.5 587.196C1714.76 399.369 1827.83 284.075 1953.07 209.161" stroke="url(#paint21_linear_1410_985)" stroke-width="0.684124" stroke-miterlimit="10"/>
<path opacity="0.54" d="M1148.18 3494.52C1217.95 3554.7 1288.57 3518.3 1320.39 3439.59C1323.23 3432.54 1325.77 3425.21 1328.05 3417.6C1351.33 3339.85 1348.98 3238.91 1340.36 3137.93C1338.71 3118.55 1336.79 3099.05 1334.8 3079.62C1325.4 2988.2 1314.05 2894.86 1315.62 2807.78C1316.11 2779.74 1317.94 2752.62 1321.36 2726.7C1344.65 2549.96 1438.42 2444.51 1539.62 2377.58C1546.99 2372.71 1554.39 2368.01 1561.8 2363.42C1671.69 2295.89 1786.05 2241.6 1871.28 2145.5C1912.76 2098.72 1955.15 2044.35 1958.88 1949.11C1963.41 1835.19 1913.11 1700.07 1856.74 1591.91C1818.36 1518.28 1775.97 1450.48 1737.69 1378.51C1719.71 1344.7 1702.65 1309.99 1687.32 1273.31C1589.76 1040 1582.23 761.718 1641.84 570.837C1701.45 379.843 1817.49 263.8 1945.41 188.362" stroke="url(#paint22_linear_1410_985)" stroke-width="0.684124" stroke-miterlimit="10"/>
<path opacity="0.54" d="M1128.3 3484.39C1198.01 3544.58 1268.69 3509.24 1301.2 3431.35C1304.1 3424.39 1306.74 3417.16 1309.06 3409.59C1333 3332.5 1331.52 3232.07 1323.62 3131.29C1322.1 3111.94 1320.37 3092.52 1318.48 3073.13C1309.72 2981.92 1298.97 2888.7 1300.84 2801.89C1301.45 2773.95 1303.33 2746.93 1306.83 2721.05C1330.59 2544.67 1424.54 2439.98 1526.38 2374.6C1533.77 2369.85 1541.24 2365.24 1548.72 2360.81C1659.3 2295.22 1775.31 2245.36 1863.45 2153.29C1907.14 2107.63 1951.39 2052.96 1955.75 1956.32C1961.02 1840.57 1909.25 1702.74 1851.05 1593.04C1811.43 1518.37 1767.6 1449.84 1727.95 1376.92C1709.34 1342.68 1691.67 1307.47 1675.73 1270.19C1574.46 1033.09 1566.24 748.632 1627.21 554.583C1688.22 360.47 1807.18 243.633 1937.77 167.616" stroke="url(#paint23_linear_1410_985)" stroke-width="0.684124" stroke-miterlimit="10"/>
<path opacity="0.54" d="M1108.4 3474.27C1178.02 3534.53 1248.76 3500.12 1281.97 3423.16C1284.93 3416.31 1287.64 3409.12 1290.02 3401.65C1314.6 3325.28 1313.98 3225.31 1306.88 3124.76C1305.5 3105.45 1303.9 3086.05 1302.18 3066.69C1294.07 2975.69 1283.88 2882.64 1286.05 2796.01C1286.75 2768.16 1288.71 2741.18 1292.29 2715.34C1316.54 2539.28 1410.64 2435.4 1513.12 2371.57C1520.57 2366.92 1528.08 2362.47 1535.59 2358.14C1646.85 2294.5 1764.56 2249.23 1855.52 2160.97C1901.41 2116.45 1947.55 2061.53 1952.55 1963.36C1958.59 1845.79 1905.31 1705.24 1845.28 1594.06C1804.43 1518.41 1759.15 1449.11 1718.12 1375.23C1698.84 1340.51 1680.55 1304.81 1664.03 1266.91C1559.08 1026.02 1550.12 735.401 1612.47 538.18C1674.83 340.9 1796.77 223.316 1930.02 146.723" stroke="url(#paint24_linear_1410_985)" stroke-width="0.684124" stroke-miterlimit="10"/>
<path opacity="0.54" d="M1088.53 3464.2C1158.09 3524.46 1228.89 3491.11 1262.8 3414.97C1265.84 3408.16 1268.58 3401.07 1271.06 3393.65C1296.3 3317.93 1296.54 3218.46 1290.2 3118.11C1288.99 3098.87 1287.5 3079.52 1285.92 3060.18C1278.48 2969.4 1268.82 2876.47 1271.33 2790.11C1272.11 2762.36 1274.19 2735.47 1277.78 2709.69C1302.5 2533.93 1396.81 2430.86 1499.89 2368.54C1507.37 2363.99 1514.91 2359.65 1522.49 2355.47C1634.43 2293.77 1753.83 2253.15 1847.67 2168.69C1895.8 2125.42 1943.76 2070.14 1949.39 1970.45C1956.2 1851.06 1901.41 1707.79 1839.57 1595.13C1797.48 1518.44 1750.72 1448.37 1708.35 1373.53C1688.43 1338.38 1669.5 1302.13 1652.41 1263.68C1543.74 1019 1534.11 722.207 1597.82 521.762C1661.54 321.315 1786.44 202.984 1922.36 125.813" stroke="url(#paint25_linear_1410_985)" stroke-width="0.684124" stroke-miterlimit="10"/>
<path opacity="0.54" d="M1068.66 3454.07C1138.13 3514.4 1209.02 3481.98 1243.64 3406.77C1246.73 3400.06 1249.54 3393.02 1252.09 3385.69C1278 3310.68 1279.06 3211.68 1273.48 3111.52C1272.41 3092.31 1271.08 3072.98 1269.62 3053.74C1262.84 2963.16 1253.76 2870.35 1256.56 2784.28C1257.47 2756.61 1259.59 2729.78 1263.27 2704.09C1288.45 2528.64 1382.94 2426.37 1486.66 2365.61C1494.21 2361.22 1501.78 2356.99 1509.42 2352.91C1622.05 2293.14 1743.11 2257.24 1839.82 2176.53C1890.17 2134.49 1940 2078.85 1946.27 1977.7C1953.83 1856.49 1897.55 1710.5 1833.91 1596.35C1790.6 1518.67 1742.39 1447.84 1698.63 1372.04C1678.1 1336.45 1658.52 1299.72 1640.85 1260.66C1528.5 1012.19 1518.15 709.224 1583.22 505.613C1648.32 301.995 1776.16 182.922 1914.75 105.173" stroke="url(#paint26_linear_1410_985)" stroke-width="0.684124" stroke-miterlimit="10"/>
<path opacity="0.54" d="M1048.78 3443.94C1118.19 3504.28 1189.14 3472.92 1224.47 3398.58C1227.61 3391.92 1230.51 3384.96 1233.11 3377.74C1259.65 3303.4 1261.59 3204.9 1256.78 3104.93C1255.85 3085.75 1254.67 3066.5 1253.37 3047.28C1247.26 2956.92 1238.73 2864.28 1241.85 2778.43C1242.85 2750.87 1245.04 2724.07 1248.8 2698.43C1274.44 2523.29 1369.16 2421.88 1473.48 2362.62C1481.06 2358.34 1488.68 2354.2 1496.37 2350.28C1609.68 2292.46 1732.4 2261.37 1832.01 2184.3C1884.61 2143.61 1936.23 2087.45 1943.16 1984.84C1951.48 1861.81 1893.73 1713.09 1828.2 1597.42C1783.62 1518.71 1734 1447.15 1688.88 1370.39C1667.66 1334.32 1647.47 1297.1 1629.22 1257.42C1513.19 1005.16 1502.11 696.035 1568.56 489.252C1635.01 282.469 1765.82 162.647 1907.07 84.3199" stroke="url(#paint27_linear_1410_985)" stroke-width="0.684124" stroke-miterlimit="10"/>
<path opacity="0.54" d="M1028.88 3433.82C1098.21 3494.23 1169.24 3463.86 1205.23 3390.34C1208.43 3383.78 1211.37 3376.87 1214.05 3369.69C1241.26 3296.06 1244.05 3198.02 1239.97 3098.25C1239.17 3079.09 1238.16 3059.87 1236.98 3040.74C1231.48 2950.54 1223.54 2858.08 1226.99 2772.5C1228.11 2745.03 1230.36 2718.34 1234.19 2692.73C1260.35 2517.95 1355.2 2417.3 1460.16 2359.6C1467.8 2355.41 1475.47 2351.44 1483.18 2347.63C1597.17 2291.74 1721.54 2265.54 1824.04 2192.03C1878.89 2152.7 1932.35 2096.07 1939.91 1991.94C1949 1867.08 1889.74 1715.65 1822.41 1598.49C1776.59 1518.75 1725.53 1446.46 1679.02 1368.7C1657.18 1332.2 1636.33 1294.43 1617.51 1254.2C1497.77 998.15 1486 682.855 1553.81 472.906C1621.64 262.951 1755.39 142.393 1899.32 63.5404" stroke="url(#paint28_linear_1410_985)" stroke-width="0.684124" stroke-miterlimit="10"/>
<path opacity="0.54" d="M1009.02 3423.75C1078.29 3484.17 1149.36 3454.79 1186.08 3382.2C1189.37 3375.74 1192.36 3368.88 1195.1 3361.79C1222.97 3288.87 1226.59 3191.29 1223.3 3091.76C1222.69 3072.69 1221.78 3053.5 1220.75 3034.34C1215.92 2944.35 1208.55 2852.01 1212.3 2766.71C1213.5 2739.33 1215.84 2712.68 1219.76 2687.18C1246.37 2512.71 1341.43 2412.85 1447.01 2356.72C1454.67 2352.63 1462.4 2348.76 1470.16 2345.11C1584.83 2291.16 1710.84 2269.9 1816.27 2199.91C1873.35 2162.04 1928.63 2104.82 1936.83 1999.23C1946.66 1872.55 1885.93 1718.4 1816.79 1599.76C1769.75 1519.03 1717.24 1445.97 1669.32 1367.26C1646.84 1330.27 1625.36 1292.08 1605.96 1251.23C1482.54 991.388 1470.04 669.934 1539.22 456.813C1608.41 243.694 1745.13 122.388 1891.72 42.9563" stroke="url(#paint29_linear_1410_985)" stroke-width="0.684124" stroke-miterlimit="10"/>
<path opacity="0.54" d="M989.148 3413.62C1058.32 3474.05 1129.48 3445.73 1166.9 3373.95C1170.24 3367.53 1173.33 3360.83 1176.09 3353.73C1204.63 3281.47 1209.11 3184.39 1206.55 3085.06C1206.07 3066.02 1205.3 3046.87 1204.42 3027.79C1200.25 2938.01 1193.44 2845.84 1197.5 2760.77C1198.78 2733.43 1201.21 2706.93 1205.16 2681.42C1232.24 2507.26 1327.49 2408.22 1433.69 2353.58C1441.42 2349.6 1449.18 2345.89 1457 2342.34C1572.39 2290.31 1699.96 2274 1808.33 2207.52C1867.66 2171.12 1924.77 2113.32 1933.61 2006.21C1944.21 1877.71 1881.97 1720.84 1811.02 1600.72C1762.75 1518.95 1708.77 1445.18 1659.49 1365.45C1636.34 1328.03 1614.24 1289.29 1594.26 1247.84C1467.16 984.2 1453.95 656.58 1524.49 440.296C1595.05 224.006 1734.7 101.907 1883.97 21.9481" stroke="url(#paint30_linear_1410_985)" stroke-width="0.684124" stroke-miterlimit="10"/>
<path opacity="0.54" d="M969.277 3403.5C1044.56 3469.38 1122.34 3431.07 1157.13 3345.78C1191.88 3260.49 1192.81 3139.67 1188.15 3021.34C1183.49 2903.01 1174.11 2780.35 1190.67 2675.76C1220.25 2489.31 1327.88 2389.8 1443.93 2339.77C1560 2289.68 1689.18 2278.42 1800.48 2215.35C1862.06 2180.45 1920.96 2121.97 1930.44 2013.4C1941.82 1883.07 1878.06 1723.49 1805.27 1601.84C1732.48 1480.19 1646.99 1376.31 1582.61 1244.71C1451.8 977.291 1437.88 643.506 1509.8 424.051C1581.72 204.596 1724.33 81.7466 1876.27 1.21429" stroke="url(#paint31_linear_1410_985)" stroke-width="0.684124" stroke-miterlimit="10"/>
</g>
<defs>
<linearGradient id="paint0_linear_1410_985" x1="2181.66" y1="708.94" x2="394.457" y2="2583.27" gradientUnits="userSpaceOnUse">
<stop stop-color="#7ED4EF"/>
<stop offset="0.2294" stop-color="#66BFE6"/>
<stop offset="0.711" stop-color="#298BD0"/>
<stop offset="1" stop-color="#0169C2"/>
</linearGradient>
<linearGradient id="paint1_linear_1410_985" x1="2167.67" y1="682.103" x2="369.29" y2="2568.12" gradientUnits="userSpaceOnUse">
<stop stop-color="#7ED4EF"/>
<stop offset="0.2294" stop-color="#66BFE6"/>
<stop offset="0.711" stop-color="#298BD0"/>
<stop offset="1" stop-color="#0169C2"/>
</linearGradient>
<linearGradient id="paint2_linear_1410_985" x1="2153.69" y1="655.275" x2="344.134" y2="2552.97" gradientUnits="userSpaceOnUse">
<stop stop-color="#7ED4EF"/>
<stop offset="0.2294" stop-color="#66BFE6"/>
<stop offset="0.711" stop-color="#298BD0"/>
<stop offset="1" stop-color="#0169C2"/>
</linearGradient>
<linearGradient id="paint3_linear_1410_985" x1="2141.71" y1="630.342" x2="320.968" y2="2539.72" gradientUnits="userSpaceOnUse">
<stop stop-color="#7ED4EF"/>
<stop offset="0.2294" stop-color="#66BFE6"/>
<stop offset="0.711" stop-color="#298BD0"/>
<stop offset="1" stop-color="#0169C2"/>
</linearGradient>
<linearGradient id="paint4_linear_1410_985" x1="2133.13" y1="608.662" x2="301.209" y2="2529.72" gradientUnits="userSpaceOnUse">
<stop stop-color="#7ED4EF"/>
<stop offset="0.2294" stop-color="#66BFE6"/>
<stop offset="0.711" stop-color="#298BD0"/>
<stop offset="1" stop-color="#0169C2"/>
</linearGradient>
<linearGradient id="paint5_linear_1410_985" x1="2124.75" y1="587.171" x2="281.65" y2="2519.9" gradientUnits="userSpaceOnUse">
<stop stop-color="#7ED4EF"/>
<stop offset="0.2294" stop-color="#66BFE6"/>
<stop offset="0.711" stop-color="#298BD0"/>
<stop offset="1" stop-color="#0169C2"/>
</linearGradient>
<linearGradient id="paint6_linear_1410_985" x1="2116.59" y1="565.89" x2="262.313" y2="2510.3" gradientUnits="userSpaceOnUse">
<stop stop-color="#7ED4EF"/>
<stop offset="0.2294" stop-color="#66BFE6"/>
<stop offset="0.711" stop-color="#298BD0"/>
<stop offset="1" stop-color="#0169C2"/>
</linearGradient>
<linearGradient id="paint7_linear_1410_985" x1="2108.65" y1="544.83" x2="243.207" y2="2500.92" gradientUnits="userSpaceOnUse">
<stop stop-color="#7ED4EF"/>
<stop offset="0.2294" stop-color="#66BFE6"/>
<stop offset="0.711" stop-color="#298BD0"/>
<stop offset="1" stop-color="#0169C2"/>
</linearGradient>
<linearGradient id="paint8_linear_1410_985" x1="2101.22" y1="524.251" x2="224.602" y2="2492.01" gradientUnits="userSpaceOnUse">
<stop stop-color="#7ED4EF"/>
<stop offset="0.2294" stop-color="#66BFE6"/>
<stop offset="0.711" stop-color="#298BD0"/>
<stop offset="1" stop-color="#0169C2"/>
</linearGradient>
<linearGradient id="paint9_linear_1410_985" x1="2094.19" y1="504.061" x2="206.402" y2="2483.5" gradientUnits="userSpaceOnUse">
<stop stop-color="#7ED4EF"/>
<stop offset="0.2294" stop-color="#66BFE6"/>
<stop offset="0.711" stop-color="#298BD0"/>
<stop offset="1" stop-color="#0169C2"/>
</linearGradient>
<linearGradient id="paint10_linear_1410_985" x1="2087.41" y1="484.109" x2="188.455" y2="2475.22" gradientUnits="userSpaceOnUse">
<stop stop-color="#7ED4EF"/>
<stop offset="0.2294" stop-color="#66BFE6"/>
<stop offset="0.711" stop-color="#298BD0"/>
<stop offset="1" stop-color="#0169C2"/>
</linearGradient>
<linearGradient id="paint11_linear_1410_985" x1="2080.81" y1="464.323" x2="170.678" y2="2467.11" gradientUnits="userSpaceOnUse">
<stop stop-color="#7ED4EF"/>
<stop offset="0.2294" stop-color="#66BFE6"/>
<stop offset="0.711" stop-color="#298BD0"/>
<stop offset="1" stop-color="#0169C2"/>
</linearGradient>
<linearGradient id="paint12_linear_1410_985" x1="2074.32" y1="444.657" x2="153.028" y2="2459.11" gradientUnits="userSpaceOnUse">
<stop stop-color="#7ED4EF"/>
<stop offset="0.2294" stop-color="#66BFE6"/>
<stop offset="0.711" stop-color="#298BD0"/>
<stop offset="1" stop-color="#0169C2"/>
</linearGradient>
<linearGradient id="paint13_linear_1410_985" x1="2067.93" y1="425.074" x2="135.467" y2="2451.2" gradientUnits="userSpaceOnUse">
<stop stop-color="#7ED4EF"/>
<stop offset="0.2294" stop-color="#66BFE6"/>
<stop offset="0.711" stop-color="#298BD0"/>
<stop offset="1" stop-color="#0169C2"/>
</linearGradient>
<linearGradient id="paint14_linear_1410_985" x1="2061.61" y1="405.564" x2="117.979" y2="2443.36" gradientUnits="userSpaceOnUse">
<stop stop-color="#7ED4EF"/>
<stop offset="0.2294" stop-color="#66BFE6"/>
<stop offset="0.711" stop-color="#298BD0"/>
<stop offset="1" stop-color="#0169C2"/>
</linearGradient>
<linearGradient id="paint15_linear_1410_985" x1="2055.34" y1="386.112" x2="100.551" y2="2435.58" gradientUnits="userSpaceOnUse">
<stop stop-color="#7ED4EF"/>
<stop offset="0.2294" stop-color="#66BFE6"/>
<stop offset="0.711" stop-color="#298BD0"/>
<stop offset="1" stop-color="#0169C2"/>
</linearGradient>
<linearGradient id="paint16_linear_1410_985" x1="2049.12" y1="366.699" x2="83.1669" y2="2427.83" gradientUnits="userSpaceOnUse">
<stop stop-color="#7ED4EF"/>
<stop offset="0.2294" stop-color="#66BFE6"/>
<stop offset="0.711" stop-color="#298BD0"/>
<stop offset="1" stop-color="#0169C2"/>
</linearGradient>
<linearGradient id="paint17_linear_1410_985" x1="2042.93" y1="347.318" x2="65.8185" y2="2420.12" gradientUnits="userSpaceOnUse">
<stop stop-color="#7ED4EF"/>
<stop offset="0.2294" stop-color="#66BFE6"/>
<stop offset="0.711" stop-color="#298BD0"/>
<stop offset="1" stop-color="#0169C2"/>
</linearGradient>
<linearGradient id="paint18_linear_1410_985" x1="2036.78" y1="327.977" x2="48.5016" y2="2412.45" gradientUnits="userSpaceOnUse">
<stop stop-color="#7ED4EF"/>
<stop offset="0.2294" stop-color="#66BFE6"/>
<stop offset="0.711" stop-color="#298BD0"/>
<stop offset="1" stop-color="#0169C2"/>
</linearGradient>
<linearGradient id="paint19_linear_1410_985" x1="2030.64" y1="308.649" x2="31.2083" y2="2404.79" gradientUnits="userSpaceOnUse">
<stop stop-color="#7ED4EF"/>
<stop offset="0.2294" stop-color="#66BFE6"/>
<stop offset="0.711" stop-color="#298BD0"/>
<stop offset="1" stop-color="#0169C2"/>
</linearGradient>
<linearGradient id="paint20_linear_1410_985" x1="2024.53" y1="289.346" x2="13.9377" y2="2397.15" gradientUnits="userSpaceOnUse">
<stop stop-color="#7ED4EF"/>
<stop offset="0.2294" stop-color="#66BFE6"/>
<stop offset="0.711" stop-color="#298BD0"/>
<stop offset="1" stop-color="#0169C2"/>
</linearGradient>
<linearGradient id="paint21_linear_1410_985" x1="2018.44" y1="270.061" x2="-3.31471" y2="2389.53" gradientUnits="userSpaceOnUse">
<stop stop-color="#7ED4EF"/>
<stop offset="0.2294" stop-color="#66BFE6"/>
<stop offset="0.711" stop-color="#298BD0"/>
<stop offset="1" stop-color="#0169C2"/>
</linearGradient>
<linearGradient id="paint22_linear_1410_985" x1="2012.36" y1="250.79" x2="-20.5523" y2="2381.92" gradientUnits="userSpaceOnUse">
<stop stop-color="#7ED4EF"/>
<stop offset="0.2294" stop-color="#66BFE6"/>
<stop offset="0.711" stop-color="#298BD0"/>
<stop offset="1" stop-color="#0169C2"/>
</linearGradient>
<linearGradient id="paint23_linear_1410_985" x1="2006.29" y1="231.534" x2="-37.7761" y2="2374.33" gradientUnits="userSpaceOnUse">
<stop stop-color="#7ED4EF"/>
<stop offset="0.2294" stop-color="#66BFE6"/>
<stop offset="0.711" stop-color="#298BD0"/>
<stop offset="1" stop-color="#0169C2"/>
</linearGradient>
<linearGradient id="paint24_linear_1410_985" x1="2000.23" y1="212.285" x2="-54.9912" y2="2366.75" gradientUnits="userSpaceOnUse">
<stop stop-color="#7ED4EF"/>
<stop offset="0.2294" stop-color="#66BFE6"/>
<stop offset="0.711" stop-color="#298BD0"/>
<stop offset="1" stop-color="#0169C2"/>
</linearGradient>
<linearGradient id="paint25_linear_1410_985" x1="1994.18" y1="193.049" x2="-72.1949" y2="2359.18" gradientUnits="userSpaceOnUse">
<stop stop-color="#7ED4EF"/>
<stop offset="0.2294" stop-color="#66BFE6"/>
<stop offset="0.711" stop-color="#298BD0"/>
<stop offset="1" stop-color="#0169C2"/>
</linearGradient>
<linearGradient id="paint26_linear_1410_985" x1="1988.15" y1="173.821" x2="-89.3857" y2="2351.61" gradientUnits="userSpaceOnUse">
<stop stop-color="#7ED4EF"/>
<stop offset="0.2294" stop-color="#66BFE6"/>
<stop offset="0.711" stop-color="#298BD0"/>
<stop offset="1" stop-color="#0169C2"/>
</linearGradient>
<linearGradient id="paint27_linear_1410_985" x1="1982.11" y1="154.601" x2="-106.574" y2="2344.06" gradientUnits="userSpaceOnUse">
<stop stop-color="#7ED4EF"/>
<stop offset="0.2294" stop-color="#66BFE6"/>
<stop offset="0.711" stop-color="#298BD0"/>
<stop offset="1" stop-color="#0169C2"/>
</linearGradient>
<linearGradient id="paint28_linear_1410_985" x1="1976.09" y1="135.385" x2="-123.752" y2="2336.51" gradientUnits="userSpaceOnUse">
<stop stop-color="#7ED4EF"/>
<stop offset="0.2294" stop-color="#66BFE6"/>
<stop offset="0.711" stop-color="#298BD0"/>
<stop offset="1" stop-color="#0169C2"/>
</linearGradient>
<linearGradient id="paint29_linear_1410_985" x1="1970.07" y1="116.182" x2="-140.921" y2="2328.96" gradientUnits="userSpaceOnUse">
<stop stop-color="#7ED4EF"/>
<stop offset="0.2294" stop-color="#66BFE6"/>
<stop offset="0.711" stop-color="#298BD0"/>
<stop offset="1" stop-color="#0169C2"/>
</linearGradient>
<linearGradient id="paint30_linear_1410_985" x1="1964.05" y1="96.977" x2="-158.091" y2="2321.42" gradientUnits="userSpaceOnUse">
<stop stop-color="#7ED4EF"/>
<stop offset="0.2294" stop-color="#66BFE6"/>
<stop offset="0.711" stop-color="#298BD0"/>
<stop offset="1" stop-color="#0169C2"/>
</linearGradient>
<linearGradient id="paint31_linear_1410_985" x1="1958.04" y1="77.7803" x2="-175.251" y2="2313.89" gradientUnits="userSpaceOnUse">
<stop stop-color="#7ED4EF" stop-opacity="0.63"/>
<stop offset="0.2294" stop-color="#66BFE6"/>
<stop offset="0.711" stop-color="#0793FF" stop-opacity="0.31"/>
<stop offset="1" stop-color="#205680"/>
</linearGradient>
</defs>
</svg>
