<svg width="29" height="25" viewBox="0 0 29 25" fill="none" xmlns="http://www.w3.org/2000/svg">
<path d="M28.9586 2.84006C28.6652 3.40145 28.3055 3.92448 27.8874 4.39758C27.3342 5.05136 26.6809 5.61044 25.9524 6.05332C25.9739 6.22643 25.9898 6.38866 26.0002 6.54003C26.0309 8.85604 25.6125 11.1556 24.7689 13.3077C23.2883 17.0558 21.0203 20.0722 17.7811 22.1201C14.4032 24.0871 10.4681 24.5058 6.843 24.148C4.4363 23.8696 2.06329 23.0708 0.270508 21.5681C3.55127 21.9658 6.61303 20.8337 9.03383 19.0034C6.34505 19.0722 4.39125 17.0988 3.47056 14.8163C3.87973 14.9087 4.30128 14.9306 4.7176 14.8812C5.19017 14.8454 5.66014 14.7804 6.12487 14.6863C4.41005 14.1249 2.91032 13.093 2.12872 11.5379C1.68264 10.6079 1.45189 9.58676 1.45407 8.55244C2.25722 8.98188 3.22374 9.40019 4.10838 9.36361C2.77202 8.21525 1.7009 6.7464 1.50187 5.06242C1.41729 3.72865 1.66479 2.39471 2.22157 1.18352C4.22004 3.41344 6.46102 5.24971 9.05029 6.377C10.746 7.10616 12.5656 7.49219 14.4071 7.51343C14.1409 5.93837 14.3937 4.31817 15.1264 2.90368C15.9699 1.54996 17.2913 0.574581 18.8201 0.177114C19.7989 -0.0785968 20.8285 -0.053116 21.7939 0.250711C22.7593 0.554538 23.6224 1.12475 24.287 1.89767C25.6403 1.69817 26.9371 1.2115 28.0927 0.469374C27.6394 1.86109 26.7572 3.24763 25.4702 3.91009C26.6676 3.68382 27.8369 3.32473 28.957 2.83926L28.9586 2.84006Z" fill="white"/>
</svg>
